<svg xmlns="http://www.w3.org/2000/svg" viewBox="0 0 62.362 62.362"><path d="M31.315 62.362C13.483 62.362 0 47.59 0 31.315 0 12.633 15.557 0 31.08 0c18.602 0 31.282 15.34 31.282 30.947 0 19.05-15.657 31.415-31.047 31.415" style="fill:none"/><path d="M43.57 48.706H18.79a5.14 5.14 0 0 1-5.136-5.136V18.792a5.14 5.14 0 0 1 5.136-5.136h24.778a5.14 5.14 0 0 1 5.136 5.136V43.57a5.14 5.14 0 0 1-5.136 5.136M18.79 15.656a3.14 3.14 0 0 0-3.136 3.135v24.78a3.14 3.14 0 0 0 3.136 3.135h24.778a3.14 3.14 0 0 0 3.136-3.136V18.792a3.14 3.14 0 0 0-3.136-3.136z" style="fill:#da291c"/><path d="M38.708 38.063a1.01 1.01 0 0 1-1.009-1.01V24.249a1.009 1.009 0 0 1 2.018 0v12.806c0 .557-.452 1.008-1.009 1.008m-4.411-1.429L28.45 23.99a1.266 1.266 0 0 0-2.298 0l-5.865 12.682a.98.98 0 1 0 1.78.816l1.37-3.015.006-.017a.36.36 0 0 1 .338-.232h6.98c.154 0 .286.096.338.232s1.369 3.016 1.369 3.016a1.006 1.006 0 1 0 1.829-.838m-4.19-4.331h-5.67v-.001l2.842-6.223 2.829 6.223" style="fill:#da291c"/></svg>