<svg xmlns="http://www.w3.org/2000/svg" viewBox="0 0 62.362 62.362"><path d="M31.315 62.362C13.483 62.362 0 47.59 0 31.315 0 12.633 15.557 0 31.08 0c18.602 0 31.282 15.34 31.282 30.947 0 19.05-15.657 31.415-31.047 31.415" style="fill:none"/><path d="M37.33 46.706H18.791a3.14 3.14 0 0 1-3.136-3.136V18.792a3.14 3.14 0 0 1 3.136-3.136h24.778a3.14 3.14 0 0 1 3.136 3.136v15.54c.683.064 1.357.175 2 .332V18.792a5.14 5.14 0 0 0-5.136-5.136H18.791a5.14 5.14 0 0 0-5.136 5.136V43.57a5.14 5.14 0 0 0 5.136 5.136H37.33z" style="fill:#da291c"/><path d="M34.297 36.634 28.45 23.99a1.266 1.266 0 0 0-2.298 0l-5.865 12.682a.98.98 0 1 0 1.78.816l1.37-3.015.006-.017a.36.36 0 0 1 .338-.232h6.98c.154 0 .286.096.338.232s1.369 3.016 1.369 3.016a1.006 1.006 0 1 0 1.829-.838m-4.19-4.331h-5.67v-.001l2.842-6.223 2.829 6.223M51.88 38.49c-.13-1.93-3.48-2.98-6.65-2.98-3.16 0-6.51 1.05-6.64 2.98-.01.04-.01.08-.01.12v10.18c0 2.01 3.43 3.1 6.65 3.1 3.23 0 6.66-1.09 6.66-3.1V38.61c0-.04 0-.08-.01-.12m-1.24 10.3c0 .75-2.11 1.85-5.41 1.85s-5.4-1.1-5.4-1.85v-1.43c.97.54 2.66 1.13 5.4 1.13 2.77 0 4.45-.58 5.41-1.12zm0-2.94c-.42.36-1.9 1.39-5.41 1.39-3.48 0-4.97-1.01-5.4-1.38v-1.89c.97.54 2.66 1.13 5.4 1.13 2.77 0 4.45-.58 5.41-1.12zm0-3.39c-.42.36-1.9 1.39-5.41 1.39-3.48 0-4.97-1.01-5.4-1.38v-2c1.28.82 3.38 1.25 5.4 1.25s4.13-.43 5.41-1.25zm-5.41-1.99c-3.3 0-5.4-1.1-5.4-1.86 0-.75 2.1-1.85 5.4-1.85s5.41 1.1 5.41 1.85c0 .76-2.11 1.86-5.41 1.86m-5.513-5.07V24.248a1.009 1.009 0 0 0-2.018 0v12.806c0 .038.018.07.022.108.406-.73 1.11-1.314 1.996-1.762" style="fill:#da291c"/></svg>