<svg xmlns="http://www.w3.org/2000/svg" viewBox="0 0 62.362 62.362"><path d="M31.315 62.364C13.483 62.364 0 47.592 0 31.316 0 12.635 15.557.002 31.08.002c18.602 0 31.282 15.34 31.282 30.947 0 19.05-15.657 31.415-31.047 31.415" style="fill:none"/><path d="m22.983 41.702-.007-.005-.66-.409c-.956-.594-2.62-1.625-2.793-1.74-1.911-1.321-3.048-3.453-3.048-5.706v-10.55c0-1.945.775-2.937 3.46-4.418l8.706-4.966a6.18 6.18 0 0 1 5.999.049l9.279 4.915c1.648.935 1.895 1.829 1.895 4.42v10.55c0 .142.004.27.005.405a15 15 0 0 1 2.003.208l-.008-11.161c0-2.727-.204-4.628-2.932-6.176l-9.28-4.915a8.18 8.18 0 0 0-7.94-.04l-8.707 4.966c-2.363 1.306-4.48 2.758-4.48 6.164v10.549c0 2.908 1.458 5.654 3.901 7.345.062.043.605.387 3.553 2.213a.999.999 0 0 0 1.5-1.078 1 1 0 0 0-.446-.62" style="fill:#da291c"/><path d="m37.305 42.689-4.621 2.68c-.734.4-1.702.376-2.418-.054a1.73 1.73 0 0 1-.862-1.483l-.002-6.787-.062-1.4c-.031-.721-.42-1.696-1.052-3.228-.757-1.836-1.43-3.557-1.34-4.428.177-1.71 2.403-5.773 2.786-6.273.238-.301.479-.452.586-.496a.4.4 0 0 1 .142-.029l1.932-.003h.001q.063 0 .122.02c.125.043.25.142.463.335.016.014.086.08.1.097.48.612 2.682 4.666 2.856 6.35.15 1.447-.893 3.644-1.339 4.582-.102.212-.181.381-.23.498a1 1 0 0 0 .53 1.31 1.01 1.01 0 0 0 1.313-.531 10 10 0 0 1 .17-.37c.585-1.228 1.755-3.685 1.546-5.697-.23-2.205-2.838-6.983-3.425-7.548-.434-.416-1.084-1.043-2.08-1.043h-1.958c-.981 0-1.708.625-2.06 1.02q-.009.013-.02.023c-.587.566-3.197 5.347-3.425 7.55-.15 1.443.68 3.451 1.48 5.394.502 1.216.881 2.163.904 2.551l.062 8.1c0 1.314.684 2.509 1.83 3.2 1.3.781 3.077.818 4.43.083L37.303 45z" style="fill:#da291c"/><path d="M51.88 38.49c-.13-1.93-3.48-2.98-6.65-2.98-3.16 0-6.51 1.05-6.64 2.98-.01.04-.01.08-.01.12v10.18c0 2.01 3.43 3.1 6.65 3.1 3.23 0 6.66-1.09 6.66-3.1V38.61c0-.04 0-.08-.01-.12m-1.24 10.3c0 .75-2.11 1.85-5.41 1.85s-5.4-1.1-5.4-1.85v-1.43c.97.54 2.66 1.13 5.4 1.13 2.77 0 4.45-.58 5.41-1.12zm0-2.94c-.42.36-1.9 1.39-5.41 1.39-3.48 0-4.97-1.01-5.4-1.38v-1.89c.97.54 2.66 1.13 5.4 1.13 2.77 0 4.45-.58 5.41-1.12zm0-3.39c-.42.36-1.9 1.39-5.41 1.39-3.48 0-4.97-1.01-5.4-1.38v-2c1.28.82 3.38 1.25 5.4 1.25s4.13-.43 5.41-1.25zm-5.41-1.99c-3.3 0-5.4-1.1-5.4-1.86 0-.75 2.1-1.85 5.4-1.85s5.41 1.1 5.41 1.85c0 .76-2.11 1.86-5.41 1.86" style="fill:#da291c"/></svg>