<svg xmlns="http://www.w3.org/2000/svg" viewBox="0 0 62.362 62.362"><path d="M31.315 62.362C13.483 62.362 0 47.59 0 31.315 0 12.633 15.557 0 31.08 0c18.602 0 31.282 15.34 31.282 30.947 0 19.05-15.657 31.415-31.047 31.415" style="fill:none"/><path d="m31.18 19.122-5.57 9.65h.795L31.18 20.5v1.378l-3.98 6.893h.797l3.183-5.514v1.379l-2.387 4.135h.796l1.591-2.757v1.378l-.796 1.379h6.368zm-5.899 10.217-5.571 9.649h.796l4.775-8.27v1.378l-3.98 6.892h.797l3.183-5.514v1.379l-2.388 4.135h.796l1.592-2.757v1.378l-.796 1.379h6.368zm11.789 0-5.57 9.649h.795l4.776-8.27v1.378l-3.98 6.892h.796l3.184-5.514v1.379l-2.388 4.135h.796l1.592-2.757v1.378l-.796 1.379h6.367z" style="fill:#da291c"/></svg>