<svg xmlns="http://www.w3.org/2000/svg" viewBox="0 0 62.362 62.362"><path d="M31.315 62.364C13.483 62.364 0 47.592 0 31.316 0 12.635 15.557.002 31.08.002c18.602 0 31.282 15.34 31.282 30.947 0 19.05-15.657 31.415-31.047 31.415" style="fill:none"/><path d="M29.706 20.9a1 1 0 0 0-.844-1.737c-2.526.486-4.517 1.182-6.638 3.14a1 1 0 0 0 1.356 1.47c.959-.885 1.857-1.455 2.837-1.86-.36.614-.714 1.337-1.012 2.167a1 1 0 0 0 1.883.675c.893-2.493 2.406-3.843 2.418-3.854M14.958 29.51c.525-2.716 1.889-4.344 2.45-4.919a1 1 0 1 0-1.429-1.398c-.688.702-2.356 2.688-2.985 5.936-.783 4.038.284 6.92.33 7.04a1 1 0 0 0 1.285.58 1 1 0 0 0 .586-1.285c-.009-.025-.906-2.505-.237-5.954m3.337 4.507c-.146-.916-.157-1.715-.034-2.376a1 1 0 1 0-1.966-.366c-.165.885-.157 1.914.024 3.055.334 2.105 1.335 3.26 2.116 3.859a1 1 0 0 0 1.403-.186 1 1 0 0 0-.186-1.402c-.492-.377-1.127-1.131-1.357-2.584m5.525 3.077a1 1 0 1 0 .64-1.895c-1.874-.633-2.885-1.865-3.185-3.881a1.005 1.005 0 0 0-1.136-.842 1 1 0 0 0-.843 1.136c.411 2.763 1.933 4.608 4.523 5.482m2.394-3.342q.204.09.415.09a1 1 0 0 0 .91-.585c.67-1.468 1.269-4.352-.732-5.851-2.274-1.706-5.957-.293-6.37-.127a1 1 0 0 0 .75 1.855c.144-.058.362-.13.607-.202l.008.033c.25.973.486 1.891 1.483 2.633a.999.999 0 1 0 1.194-1.604c-.39-.291-.51-.643-.707-1.405.693-.026 1.37.068 1.836.417 1.2.9.122 3.398.111 3.42a1 1 0 0 0 .495 1.326M13.525 20.163a1 1 0 0 0 .758-1.194c-.752-3.356.378-5.471 1.746-6.017 1.605-.64 3.662.65 5.24 3.287a1 1 0 0 0 1.717-1.026c-2.561-4.28-5.654-4.934-7.699-4.119-2.2.879-3.969 3.79-2.957 8.311a1 1 0 0 0 1.195.758" style="fill:#da291c"/><path d="M15.51 20.248a1 1 0 0 0 1.805.859c.662-1.39 2.572-2.12 2.588-2.126a1.002 1.002 0 0 0 .474-1.513c-1.677-2.394-3.88-1.894-3.973-1.871a.99.99 0 0 0-.73 1.179c.115.53.648.873 1.177.77.067-.012.494-.076 1.023.234-.823.511-1.82 1.322-2.365 2.468m29.998-2.703a1 1 0 0 0 .451-1.949c-.85-.202-2.633-.04-3.973 1.872a1.005 1.005 0 0 0 .471 1.512c.02.006 1.93.736 2.59 2.127a1 1 0 0 0 1.807-.86c-.546-1.145-1.542-1.956-2.365-2.467.518-.304.94-.25 1.019-.235M33.5 19.163a.995.995 0 0 0-1.086.543c-.198.405-.1.894.24 1.192.014.014 1.528 1.364 2.42 3.857a1.001 1.001 0 0 0 1.883-.675 13 13 0 0 0-1.012-2.167c.98.405 1.878.975 2.836 1.86a1 1 0 0 0 1.358-1.469c-2.121-1.96-4.114-2.655-6.639-3.141m12.884 4.03a1.001 1.001 0 0 0-1.43 1.399c.562.574 1.924 2.201 2.451 4.918.668 3.45-.228 5.93-.236 5.951a.998.998 0 1 0 1.87.71c.045-.121 1.112-3.004.33-7.041-.63-3.249-2.298-5.234-2.985-5.936ZM44.9 30.475a1 1 0 0 0-.8 1.166c.124.66.113 1.46-.032 2.376-.231 1.452-.866 2.207-1.358 2.584a1 1 0 1 0 1.217 1.587c.781-.598 1.782-1.754 2.116-3.858.18-1.143.188-2.17.024-3.055a.995.995 0 0 0-1.167-.8m-3.813.843c-.295 1.988-1.337 3.257-3.185 3.881a1 1 0 0 0 .64 1.895c2.555-.862 4.118-2.758 4.523-5.482a1 1 0 1 0-1.978-.294m-5.53-3.912c-2.001 1.5-1.402 4.383-.733 5.85a1 1 0 0 0 1.822-.827c-.012-.025-1.091-2.523.11-3.423.466-.348 1.142-.442 1.835-.415-.198.76-.316 1.112-.707 1.403a1 1 0 0 0 1.195 1.604c.996-.742 1.233-1.66 1.483-2.634l.008-.032c.245.072.463.144.608.202a.999.999 0 0 0 .748-1.855c-.412-.166-4.093-1.58-6.37.127m4.051 10.419a1 1 0 0 0-.432 1.347q.248.482.293.997a5 5 0 0 1-1.838.643 1 1 0 1 0 .283 1.98 7 7 0 0 0 1.048-.242q-.207.604-.435 1.121-.007.003-.016.004a5.3 5.3 0 0 1-2.031.408l-.133-.001a1.001 1.001 0 0 0-.023 2h.152c.14 0 .282-.012.423-.02-.525.443-1.09.681-1.698.681h-.021c-1.203-.12-2.21-.46-2.997-1.014v-.982c1.43-.62 2.576-1.642 3.414-3.044a1 1 0 1 0-1.717-1.025c-.663 1.109-1.556 1.852-2.698 2.297-1.14-.445-2.034-1.189-2.698-2.298a1 1 0 0 0-1.716 1.027c.839 1.402 1.985 2.423 3.413 3.042v.984c-.786.552-1.782.892-2.908 1.008-.646 0-1.235-.235-1.775-.675.13.007.261.02.39.02h.152a1 1 0 0 0 .978-1.023 1.01 1.01 0 0 0-1.022-.978 5.1 5.1 0 0 1-2.142-.407l-.016-.003a14 14 0 0 1-.435-1.122c.344.104.694.191 1.047.242q.072.01.143.01a1 1 0 0 0 .14-1.99 5 5 0 0 1-1.837-.643 2.7 2.7 0 0 1 .292-.997 1 1 0 0 0-1.779-.914c-.56 1.09-.673 2.27-.336 3.497 1.242 4.63 3.312 6.98 6.242 6.979h.069c1.487-.15 2.752-.593 3.799-1.29 1.05.697 2.327 1.142 3.887 1.295h.057c2.847 0 4.921-2.35 6.164-6.978.338-1.233.225-2.412-.336-3.503a1 1 0 0 0-1.346-.432Z" style="fill:#da291c"/><path d="M47.075 11.094c-2.044-.814-5.137-.162-7.698 4.119a1 1 0 0 0 1.717 1.026c1.577-2.636 3.633-3.929 5.24-3.287 1.367.546 2.497 2.661 1.746 6.017a1 1 0 1 0 1.951.436c1.013-4.522-.755-7.432-2.956-8.31M31.18 14.897c-2.915 0-5.96.885-8.144 2.368a1 1 0 1 0 1.123 1.654c1.838-1.247 4.528-2.022 7.021-2.022s5.183.775 7.021 2.023a.999.999 0 1 0 1.123-1.654c-2.183-1.484-5.227-2.37-8.144-2.37Z" style="fill:#da291c"/></svg>