<?xml version="1.0" encoding="UTF-8"?>
<svg xmlns="http://www.w3.org/2000/svg" version="1.1" viewBox="0 0 62.3622 62.3622">
  <defs>
    <style>
      .cls-1 {
        fill: #f6fbff;
      }

      .cls-2 {
        fill: #fff;
      }

      .cls-3 {
        fill: none;
        stroke: #1d1d1b;
        stroke-miterlimit: 10;
        stroke-width: 1.25px;
      }

      .cls-4 {
        fill: #da291c;
      }
    </style>
  </defs>
  <!-- Generator: Adobe Illustrator 28.6.0, SVG Export Plug-In . SVG Version: 1.2.0 Build 709)  -->
  <g>
    <g id="Ebene_2">
      <path class="cls-4" d="M31.3149,62.3622C13.4828,62.3622,0,47.5905,0,31.3148,0,12.6329,15.5571,0,31.0807,0c18.6016,0,31.2815,15.3399,31.2815,30.9472,0,19.0495-15.6575,31.415-31.0473,31.415h0Z"/>
    </g>
    <g id="Ebene_3">
      <g>
        <path class="cls-1" d="M33.1754,36.0292h-16.3334c-1.7021,0-3.0869-1.3848-3.0869-3.0869v-15.7705c0-1.7017,1.3848-3.0864,3.0869-3.0864h22.1729c1.7021,0,3.0869,1.3848,3.0869,3.0864v8.3317h1.9785v-8.3317c0-2.793-2.2725-5.0649-5.0654-5.0649h-22.1729c-2.7935,0-5.0654,2.272-5.0654,5.0649v15.7705c0,2.793,2.272,5.0654,5.0654,5.0654h16.3334v-1.9785Z"/>
        <path class="cls-1" d="M33.1755,39.9989h-10.0432c-.5527,0-1.001.4482-1.001,1.001s.4482,1.001,1.001,1.001h10.0432v-2.002Z"/>
        <path class="cls-2" d="M37.6931,27.875c-1.1797,0-2.1387.9595-2.1387,2.1387v18.103c0,1.1797.959,2.1387,2.1387,2.1387h10.7529c1.1797,0,2.1396-.959,2.1396-2.1387v-18.103c0-1.1792-.96-2.1387-2.1396-2.1387h-10.7529ZM48.446,49.0054h-10.7529c-.4902,0-.8887-.3984-.8887-.8887v-18.103c0-.4902.3984-.8887.8887-.8887h10.7529c.4902,0,.8896.3984.8896.8887v18.103c0,.4902-.3994.8887-.8896.8887Z"/>
        <path class="cls-2" d="M45.3672,30.8818c.3419,0,.62.2781.62.62s-.2781.62-.62.62h-4.5938c-.3419,0-.62-.2781-.62-.62s.2781-.62.62-.62h4.5938"/>
        <path class="cls-2" d="M43.0703,46.0412c.3514,0,.6373.2859.6373.6373s-.2859.6373-.6373.6373-.6373-.2859-.6373-.6373.2859-.6373.6373-.6373"/>
      </g>
      <g>
        <path class="cls-2" d="M42.9528,40.9624c-.167,0-.3232-.0645-.4414-.1826l-1.3418-1.3408c-.2441-.2441-.2441-.6406-.001-.8838.2441-.2441.6416-.2432.8838-.001l.9004.8994,3.7529-3.751c.1152-.1172.2715-.1816.4385-.1826h.002c.168,0,.3252.0654.4434.1836.1172.1162.1826.2725.1826.4395,0,.168-.0645.3262-.1836.4443l-4.1943,4.1924c-.1162.1172-.2725.1826-.4414.1826Z"/>
        <path class="cls-2" d="M42.9519,44.0854h0c-2.6211-.001-4.7529-2.1338-4.7529-4.7549s2.1328-4.7539,4.7559-4.7539c.7256,0,1.4551.1709,2.1104.4951.3027.1504.4277.5195.2793.8223-.0723.1475-.1973.2578-.3525.3105-.1562.0518-.3223.04-.4707-.0322-.4873-.2402-1.0293-.3672-1.5664-.3672-1.9443,0-3.5273,1.582-3.5273,3.5254s1.5811,3.5264,3.5244,3.5273c1.9443,0,3.5273-1.582,3.5273-3.5254,0-.3389.2754-.6143.6143-.6143.3379,0,.6133.2754.6133.6143,0,2.6211-2.1328,4.7529-4.7549,4.7529Z"/>
      </g>
      <line class="cls-3" x1="87.8111" y1="34.1173" x2="87.8111" y2="40.4317"/>
      <path class="cls-2" d="M27.8535,27.2407c-.1602,0-.3198-.061-.4419-.1831l-2.4429-2.4429c-.2441-.2441-.2441-.6396,0-.8838s.6396-.2441.8838,0l2.001,2.001,5.665-5.6655c.2441-.2441.6406-.2441.8848,0,.2432.2441.2432.6396,0,.8838l-6.1079,6.1074c-.1221.1221-.2817.1831-.4419.1831Z"/>
      <path class="cls-2" d="M27.8545,31.2105h-.002c-1.6353,0-3.1724-.6372-4.3286-1.7939-1.1558-1.1562-1.7925-2.6934-1.792-4.3286s.6372-3.1724,1.7939-4.3286c1.1558-1.1553,2.6929-1.792,4.3276-1.792h.001c.9395.0005,1.8799.2212,2.7197.6377.3091.1538.4355.5288.2822.8379-.1543.3091-.5288.4336-.8379.2822-.6685-.332-1.417-.5073-2.1646-.5078h-.0005c-1.3008,0-2.5239.5063-3.4443,1.4263-.9199.9199-1.4272,2.1431-1.4272,3.4443s.5063,2.5249,1.4263,3.4453c.9199.9199,2.1431,1.4272,3.4443,1.4272h.002c1.3003,0,2.5234-.5063,3.4434-1.4258.9199-.9199,1.4277-2.1431,1.4277-3.4443,0-.3452.2803-.625.625-.625h0c.3457,0,.625.2798.625.625-.001,1.6353-.6377,3.1724-1.7939,4.3281s-2.6929,1.792-4.3271,1.792Z"/>
    </g>
  </g>
</svg>