<?xml version="1.0" encoding="UTF-8"?>
<svg xmlns="http://www.w3.org/2000/svg" version="1.1" viewBox="0 0 62.3622 62.3622">
  <defs>
    <style>
      .cls-1 {
        fill: #fff;
      }

      .cls-2 {
        fill: #da291c;
      }
    </style>
  </defs>
  <!-- Generator: Adobe Illustrator 28.6.0, SVG Export Plug-In . SVG Version: 1.2.0 Build 709)  -->
  <g>
    <g id="Ebene_4">
      <path class="cls-2" d="M31.3149,62.3622C13.4828,62.3622,0,47.5905,0,31.3148,0,12.6329,15.5571,0,31.0807,0c18.6016,0,31.2815,15.3399,31.2815,30.9472,0,19.0495-15.6575,31.415-31.0473,31.415h0Z"/>
      <path class="cls-1" d="M43.29,43.4863h-23.5317c-.5522,0-1-.4473-1-1,0-5.166,3.1855-9.8047,7.8315-11.7656-1.709-1.4312-2.7363-3.562-2.7363-5.8755,0-2.0698.812-4.0098,2.2861-5.4629,1.4736-1.4531,3.4199-2.248,5.4976-2.207,4.0903.0596,7.48,3.4355,7.5562,7.5259.043,2.3745-.9854,4.5605-2.7334,6.0205,4.6455,1.9619,7.8301,6.5996,7.8301,11.7646,0,.5527-.4473,1-1,1ZM21.137,41.4863h20.7748c.1756,0,.3168-.156.2947-.3302-.5631-4.4397-3.8994-8.1883-8.3452-9.1727-.4268-.0947-.7422-.4541-.7803-.8892-.0381-.4343.2096-.8431.6124-1.0108.7258-.3021,1.3995-.736,1.9173-1.3275,3.7125-4.2407.2874-9.5186-4.0029-9.5806-1.5435-.0205-2.9751.5566-4.0645,1.6313-1.8365,1.8102-2.2823,4.6423-.8093,7.2346.5674.9985,1.5825,1.5896,2.6353,2.0486.3935.1715.6345.5756.5969,1.0045-.0381.4351-.354.7944-.7798.8892-4.4459.9845-7.7817,4.7331-8.3443,9.1728-.0221.1742.1192.3302.2947.3302Z"/>
      <g>
        <path class="cls-1" d="M18.2324,35.1113h-4.3882c-1.6128,0-2.9253-1.3125-2.9253-2.9258v-7.4346c0-1.6133,1.3125-2.9258,2.9253-2.9258h7.2524c.3452,0,.625.2798.625.625s-.2798.625-.625.625h-7.2524c-.9238,0-1.6753.752-1.6753,1.6758v7.4346c0,.9238.7515,1.6758,1.6753,1.6758h4.3882c.3452,0,.625.2803.625.625s-.2798.625-.625.625Z"/>
        <path class="cls-1" d="M16.9736,38.5459h-1.6289c-.3452,0-.625-.2803-.625-.625s.2798-.625.625-.625h1.6289c.3452,0,.625.2803.625.625s-.2798.625-.625.625Z"/>
      </g>
      <path class="cls-1" d="M50.8184,38.5293h-3.5693c-.3447,0-.625-.2803-.625-.625s.2803-.625.625-.625h2.6051c.1637,0,.2967-.1466.274-.3088-.3903-2.7875-2.4985-5.1305-5.299-5.7508-.2666-.0591-.4639-.2842-.4883-.5557-.0234-.2715.1318-.5273.3838-.6318,1.3545-.5625,2.2305-1.8726,2.2305-3.3389,0-1.9927-1.6211-3.6138-3.6133-3.6138-.2129,0-.7129,0-1.2842.2808-.3057.1519-.6846.0249-.8359-.2852-.1523-.3101-.0254-.6846.2852-.8369.8311-.4087,1.5605-.4087,1.835-.4087,2.6816,0,4.8633,2.1816,4.8633,4.8638,0,1.4731-.6562,2.8296-1.748,3.7373,2.9644,1.2438,4.9964,4.2042,4.9863,7.4982-.001.3352-.2898.6004-.625.6004Z"/>
    </g>
  </g>
</svg>