<?xml version="1.0" encoding="UTF-8"?>
<svg xmlns="http://www.w3.org/2000/svg" version="1.1" viewBox="0 0 62.3622 62.3622">
  <defs>
    <style>
      .cls-1 {
        fill: #fff;
      }

      .cls-2 {
        fill: #da291c;
      }
    </style>
  </defs>
  <!-- Generator: Adobe Illustrator 28.6.0, SVG Export Plug-In . SVG Version: 1.2.0 Build 709)  -->
  <g>
    <g id="Ebene_3">
      <path class="cls-2" d="M31.3775,62.3609C13.5454,62.3609.0626,47.5892.0626,31.3135.0626,12.6316,15.6197-.0013,31.1433-.0013,49.7449-.0013,62.4248,15.3386,62.4248,30.9459c0,19.0495-15.6575,31.415-31.0473,31.415h0Z"/>
    </g>
    <g id="Ebene_2">
      <path class="cls-1" d="M44.9571,19.7382l-11.9307-4.6772c-1.1484-.4561-2.418-.4556-3.5684-.0015l-11.9326,4.6787c-.0098.0039-.0195.0078-.0293.0122-1.25.5366-2.0371,1.7617-2.0049,3.0981v15.2261c-.0303,1.3633.7588,2.5879,2.0391,3.1318l11.9326,4.6807c.5752.2256,1.1787.3389,1.7832.3389s1.208-.1133,1.7832-.3389l11.9609-4.6924c1.251-.5361,2.0381-1.7607,2.0059-3.0977v-15.2256c.0303-1.3623-.7588-2.5879-2.0391-3.1333ZM30.1914,16.9203c.6768-.2681,1.4229-.2676,2.1016.0015l11.3745,4.459-12.4242,4.8135-12.426-4.8141,11.3742-4.4598ZM18.2871,39.3559c-.4961-.2109-.8086-.6963-.7959-1.2588v-14.6724l12.5592,4.8657v15.6793l-11.7633-4.6138ZM44.2315,39.3451l-11.7955,4.6269v-15.6816l12.5602-4.8661v14.6962c.0127.5391-.2988,1.0244-.7646,1.2246Z"/>
    </g>
  </g>
</svg>