<?xml version="1.0" encoding="UTF-8"?>
<svg xmlns="http://www.w3.org/2000/svg" version="1.1" viewBox="0 0 62.3622 62.3622">
  <defs>
    <style>
      .cls-1 {
        fill: #fff;
      }

      .cls-2 {
        fill: #fefefe;
      }

      .cls-3 {
        fill: #da291c;
      }
    </style>
  </defs>
  <!-- Generator: Adobe Illustrator 28.6.0, SVG Export Plug-In . SVG Version: 1.2.0 Build 709)  -->
  <g>
    <g id="Hintergrund">
      <path class="cls-3" d="M31.3149,62.3639C13.4828,62.3639,0,47.5921,0,31.3164,0,12.6345,15.5571.0017,31.0807.0017,49.6823.0017,62.3622,15.3416,62.3622,30.9488c0,19.0495-15.6575,31.415-31.0473,31.415h0Z"/>
    </g>
    <g id="ICON">
      <g>
        <circle class="cls-3" cx="31.1811" cy="31.1811" r="19.3465"/>
        <path class="cls-2" d="M31.1811,11.8346c10.6848,0,19.3465,8.6617,19.3465,19.3465s-8.6617,19.3465-19.3465,19.3465-19.3465-8.6617-19.3465-19.3465S20.4964,11.8346,31.1811,11.8346M31.1811,10.5846c-11.3569,0-20.5965,9.2395-20.5965,20.5965s9.2395,20.5965,20.5965,20.5965,20.5965-9.2395,20.5965-20.5965-9.2395-20.5965-20.5965-20.5965h0Z"/>
      </g>
      <g id="Group-copy">
        <path class="cls-1" d="M31.418,44.6777c-.6318,0-1.2603-.165-1.8018-.4912-.9165-.5527-1.4629-1.5088-1.4629-2.5586l-.0444-5.877c-.0151-.2607-.374-1.1299-.6362-1.7656-.5957-1.4443-1.2124-2.9385-1.0962-4.0571.1753-1.6934,2.1196-5.2217,2.5732-5.6587.3232-.312.8652-.8345,1.7017-.8345h1.4238c.835,0,1.377.5225,1.7012.8345.4531.436,2.3965,3.9639,2.5732,5.6577.1602,1.5366-.7129,3.3726-1.1328,4.2544-.0586.124-.1064.2236-.1357.293-.2168.5098-.8037.7432-1.3115.5303-.5078-.2158-.7461-.8027-.5303-1.3115.0371-.0869.0967-.2139.1719-.3701.3145-.6621,1.0508-2.2114.9492-3.189-.1201-1.1587-1.6914-4.0591-2.0205-4.4775-.0488-.042-.2148-.2012-.2832-.2246l-1.4053.0029c-.0508.021-.2153.1797-.3135.2744-.2808.3662-1.8521,3.2661-1.9722,4.4248-.064.6167.5498,2.104.9561,3.0884.4702,1.1406.7598,1.8682.7852,2.4395l.0454,1.0303.001,4.9355c0,.3428.1851.6592.4951.8457.4331.2607,1.0415.2754,1.4805.0361l7.8994-4.5801c1.5537-.9932,1.5459-1.4492,1.5215-2.96-.0039-.1924-.0068-.3945-.0068-.6074v-7.6714c0-1.8179-.1455-2.3574-1.2334-2.9741l-6.7549-3.5791c-1.2744-.7227-2.8335-.73-4.0938-.0356l-6.3354,3.6133c-1.8672,1.0312-2.375,1.6694-2.375,2.9756v7.6714c0,1.5488.7832,3.0156,2.0942,3.9229.1777.1172,2.5093,1.5605,2.5098,1.5615.4692.29.6143.9072.3232,1.376-.2915.4697-.9067.6172-1.377.3232-1.126-.6973-2.4902-1.5439-2.5952-1.6172-1.8501-1.2803-2.9551-3.3613-2.9551-5.5664v-7.6714c0-2.6245,1.6777-3.7705,3.396-4.7197l6.3354-3.6133c1.876-1.0356,4.1851-1.0239,6.0347.0259l6.7549,3.5791c2.1104,1.1963,2.2715,2.7134,2.2715,4.728l.0059,8.2456c.0273,1.6553.0508,3.084-2.4805,4.7012l-7.96,4.6162c-.5234.2842-1.1084.4238-1.6904.4238Z"/>
      </g>
    </g>
    <g id="Tonne_Outline">
      <path class="cls-3" d="M45.2305,53.165c-3.8174,0-7.9258-1.3691-7.9258-4.375v-10.1797c0-.0566,0-.1572.0186-.2832.2598-2.8115,4.2646-4.0928,7.9072-4.0928,3.6475,0,7.6562,1.2812,7.916,4.0928.0186.126.0186.2266.0186.2832v10.1797c0,3.0059-4.1133,4.375-7.9346,4.375Z"/>
    </g>
    <g id="Tonne">
      <path class="cls-1" d="M51.88,38.49c-.13-1.93-3.48-2.98-6.65-2.98-3.16,0-6.51,1.05-6.64,2.98-.01.04-.01.08-.01.12v10.18c0,2.01,3.43,3.1,6.65,3.1,3.23,0,6.66-1.09,6.66-3.1v-10.18c0-.04,0-.08-.01-.12ZM50.64,48.79c0,.75-2.11,1.85-5.41,1.85s-5.4-1.1-5.4-1.85v-1.43c.97.54,2.66,1.13,5.4,1.13,2.77,0,4.45-.58,5.41-1.12v1.42ZM50.64,45.85c-.42.36-1.9,1.39-5.41,1.39-3.48,0-4.97-1.01-5.4-1.38v-1.89c.97.54,2.66,1.13,5.4,1.13,2.77,0,4.45-.58,5.41-1.12v1.87ZM50.64,42.46c-.42.36-1.9,1.39-5.41,1.39-3.48,0-4.97-1.01-5.4-1.38v-2c1.28.82,3.38,1.25,5.4,1.25s4.13-.43,5.41-1.25v1.99ZM45.23,40.47c-3.3,0-5.4-1.1-5.4-1.86,0-.75,2.1-1.85,5.4-1.85s5.41,1.1,5.41,1.85c0,.76-2.11,1.86-5.41,1.86Z"/>
    </g>
  </g>
</svg>