<?xml version="1.0" encoding="UTF-8"?>
<svg xmlns="http://www.w3.org/2000/svg" version="1.1" viewBox="0 0 62.3622 62.3622">
  <defs>
    <style>
      .cls-1 {
        fill: #fff;
      }

      .cls-2 {
        fill: #da291c;
      }
    </style>
  </defs>
  <!-- Generator: Adobe Illustrator 28.6.0, SVG Export Plug-In . SVG Version: 1.2.0 Build 709)  -->
  <g>
    <g id="Ebene_2">
      <path class="cls-2" d="M31.2428,62.3622C13.4107,62.3622-.0721,47.5905-.0721,31.3148-.0721,12.6329,15.485,0,31.0086,0c18.6016,0,31.2815,15.3399,31.2815,30.9472,0,19.0495-15.6575,31.415-31.0473,31.415h0Z"/>
      <path class="cls-1" d="M42.2676,44.1315h-22.1729c-2.7935,0-5.0654-2.2725-5.0654-5.0654v-15.7705c0-2.793,2.272-5.0649,5.0654-5.0649h22.1729c2.793,0,5.0654,2.272,5.0654,5.0649v15.7705c0,2.793-2.2725,5.0654-5.0654,5.0654ZM20.0947,20.2092c-1.7021,0-3.0869,1.3848-3.0869,3.0864v15.7705c0,1.7021,1.3848,3.0869,3.0869,3.0869h22.1729c1.7021,0,3.0869-1.3848,3.0869-3.0869v-15.7705c0-1.7017-1.3848-3.0864-3.0869-3.0864h-22.1729Z"/>
      <path class="cls-1" d="M21.0908,29.0938c.0835.0825.2163.0811.2993,0l2.6909-2.6909c.1743-.1743.1738-.458,0-.6323l-2.6909-2.6904c-.083-.0825-.2158-.084-.2993,0l-.5767.5762c-.04.04-.0625.0933-.0625.1499,0,.0562.022.1094.062.1494l1.8662,1.8662c.1465.1465.1465.3838,0,.5303l-1.8662,1.8662c-.04.04-.062.0933-.062.1494,0,.0566.0225.1099.062.1494l.5771.5767Z"/>
    </g>
  </g>
</svg>