<?xml version="1.0" encoding="UTF-8"?>
<svg xmlns="http://www.w3.org/2000/svg" version="1.1" viewBox="0 0 62.3622 62.3622">
  <defs>
    <style>
      .cls-1 {
        fill: #fff;
      }

      .cls-2 {
        fill: #da291c;
      }
    </style>
  </defs>
  <!-- Generator: Adobe Illustrator 28.6.0, SVG Export Plug-In . SVG Version: 1.2.0 Build 709)  -->
  <g>
    <g id="Ebene_2">
      <path class="cls-2" d="M31.3149,62.3622C13.4828,62.3622,0,47.5905,0,31.3148,0,12.6329,15.5571,0,31.0807,0c18.6016,0,31.2815,15.3399,31.2815,30.9472,0,19.0495-15.6575,31.415-31.0473,31.415h0Z"/>
      <path class="cls-1" d="M19.1333,41.1475c-.3594,0-3.4253-.0635-5.5059-2.1123-1.2417-1.2236-1.8716-2.874-1.8716-4.9053,0-.2598.0142-.5195.0435-.7783.0283-.2568.0713-.5127.1284-.7666.0576-.2549.1289-.5049.2134-.75.085-.2461.1836-.4863.2954-.7212.1113-.2349.2358-.4629.373-.6846.1362-.2197.2856-.4336.4473-.6387.1597-.2031.3311-.3984.5137-.584.1812-.1846.373-.3589.5752-.5234.2017-.1641.4116-.3164.6304-.457.2173-.1406.4438-.2686.6768-.3843.2334-.1157.4722-.2183.7163-.3071.2432-.0884.4912-.1636.7441-.2251.252-.0615.5073-.1084.7656-.1411.2573-.0332.5171-.0518.7773-.0557.1494-.001.3013.0005.4517.0073.0459-.314.1045-.626.1743-.9341.147-.6504.3511-1.2969.606-1.9209.2544-.6221.562-1.2266.9146-1.7964.3506-.5688.7529-1.1143,1.1958-1.6206.4409-.5044.9272-.9756,1.4458-1.4019.5205-.4268,1.0781-.812,1.6577-1.145.582-.335,1.1953-.623,1.8228-.856.6289-.2344,1.2812-.4175,1.9375-.5444.6587-.127,1.3315-.2007,2.0005-.2178.6655-.021,1.3452.021,2.0093.1147.6621.0928,1.3232.2422,1.9639.4443.6387.2012,1.2666.457,1.8633.7612.5947.3018,1.1719.6577,1.7139,1.0576.5381.3979,1.0479.8438,1.5156,1.3252.4648.4795.8945,1.0029,1.2783,1.5566.2588.3755.498.7681.7158,1.1724.083.0029.166.0068.249.0122.3037.019.6025.0527.9014.1021.2969.0488.5918.1133.8828.1919.293.0796.5811.1729.8633.2812.2793.1064.5557.228.8252.3638.2705.1362.5332.2847.7871.4468.2559.1621.502.3364.7393.5239.2363.186.4639.3843.6816.5942s.4238.4292.6191.6602c.1953.2319.3779.4712.5488.7188.1729.251.3311.5078.4766.7734.1436.2632.2754.5342.3936.812.1182.2793.2217.5625.3105.8496.0898.292.165.5835.2246.8789.0605.2964.1064.5962.1357.8979.0293.2998.0449.6006.0449.9019,0,6.2334-4.5527,9.0234-9.0654,9.0234h-22.4077ZM18.771,29.1118c-.0273,0-.0547.0005-.082.001-.1875.0029-.3721.0156-.5557.0391-.1846.0239-.3667.0571-.5469.1011-.1812.0439-.3589.0977-.5332.1611-.1753.064-.3457.1372-.5117.2192-.1655.082-.3267.1738-.4824.2739-.1572.1011-.3076.2104-.4517.3276-.1436.1167-.2808.2412-.4106.374-.1313.1333-.2539.2725-.3682.4185-.1162.147-.2217.2983-.3188.4556-.0991.1592-.1875.3218-.2671.4893-.0801.1685-.1504.3403-.2109.5161-.061.1758-.1118.3555-.1533.5371-.04.1787-.0713.3623-.0913.5469-.021.1865-.0312.3721-.0312.5576,0,1.4707.4258,2.6387,1.2661,3.4717,1.5649,1.5508,4.1401,1.5488,4.1304,1.5459h22.3887c1.1797,0,7.0654-.3389,7.0654-7.0234,0-.2358-.0117-.4712-.0352-.7056-.0234-.2334-.0576-.4648-.1045-.6943-.0479-.2324-.1055-.4604-.1758-.686-.0693-.2217-.1494-.4434-.2412-.6606-.0918-.2148-.1943-.4272-.3076-.6338-.1133-.207-.2363-.4062-.3691-.5996-.1328-.1938-.2764-.3813-.4287-.5615-.1504-.1772-.3115-.3486-.4805-.5117s-.3457-.3174-.5303-.4629c-.1855-.146-.377-.2812-.5742-.4072-.1992-.126-.4033-.2422-.6133-.3477-.209-.105-.4229-.1992-.6426-.2827-.2207-.0854-.4443-.1572-.6699-.2188-.2256-.0605-.4541-.1104-.6855-.1484-.2334-.0386-.4658-.0649-.7012-.0796-.2314-.0151-.4648-.0181-.7021-.0083-.4062.0161-.7715-.2109-.9424-.5737-.2402-.5098-.5234-1.0015-.8408-1.4614-.3203-.4624-.6807-.9009-1.0684-1.3018-.3906-.4023-.8174-.7759-1.2676-1.1084-.4531-.334-.9355-.6313-1.4326-.8838-.499-.2544-1.0234-.4683-1.5576-.6362-.5361-.1689-1.0879-.2939-1.6406-.3716-.5557-.0776-1.1221-.1104-1.6807-.0962-.5586.0146-1.1216.0762-1.6729.1826-.5479.1055-1.0923.2588-1.6191.4551-.5244.1948-1.0366.4355-1.5234.7153-.4844.2783-.9502.6006-1.3853.957-.4336.356-.8403.7505-1.209,1.1724-.3706.4233-.7065.8794-1,1.3545-.2949.4775-.5522.9829-.7651,1.5029-.2129.5215-.3833,1.0625-.5068,1.6064-.124.5474-.2036,1.1089-.2363,1.6699-.0171.2905-.1602.5591-.3916.7358-.231.1777-.5278.2456-.813.1841-.1816-.0381-.3652-.0659-.5503-.084-.1553-.0146-.3125-.0225-.4702-.0225Z"/>
    </g>
  </g>
</svg>