<?xml version="1.0" encoding="UTF-8"?>
<svg xmlns="http://www.w3.org/2000/svg" version="1.1" viewBox="0 0 62.3622 62.3622">
  <defs>
    <style>
      .cls-1 {
        fill: #fff;
      }

      .cls-2 {
        fill: #da291c;
      }
    </style>
  </defs>
  <!-- Generator: Adobe Illustrator 28.6.0, SVG Export Plug-In . SVG Version: 1.2.0 Build 709)  -->
  <g>
    <g id="ICON">
      <path class="cls-2" d="M31.3149,62.3622C13.4828,62.3622,0,47.5904,0,31.3148,0,12.6329,15.5571,0,31.0807,0,49.6823,0,62.3622,15.3399,62.3622,30.9472c0,19.0495-15.6575,31.415-31.0473,31.415h0Z"/>
      <path class="cls-1" d="M44.2328,19.8621c-.0067-3.3901-5.6161-5.9456-13.0541-5.9456s-13.0479,2.5556-13.0546,5.9457c0,.0011-.0006.002-.0006.0031v20.3457c0,3.8662,6.7266,5.9521,13.0552,5.9521s13.0547-2.0859,13.0547-5.9521v-20.3457c0-.0011-.0006-.002-.0006-.0031ZM20.1235,29.7192c1.7115,1.0934,5.0747,2.4995,11.0552,2.4995,5.9903,0,9.3498-1.4111,11.0547-2.5056v5.2372c-1.1105.9033-4.2514,2.8026-11.0547,2.8026-6.7791,0-9.9298-1.8858-11.0552-2.7935v-5.2402ZM42.2334,28.166c-1.1105.903-4.2514,2.8022-11.0547,2.8022-6.7795,0-9.9299-1.8859-11.0552-2.7932v-5.0616c2.2697,1.6506,6.2809,2.7068,11.0552,2.7068s8.785-1.0562,11.0547-2.7068v5.0525ZM31.1787,15.9165c6.8486,0,11.0547,2.3018,11.0547,3.9517s-4.2061,3.9521-11.0547,3.9521-11.0552-2.3018-11.0552-3.9521,4.2056-3.9517,11.0552-3.9517ZM31.1787,44.1631c-6.8496,0-11.0552-2.3018-11.0552-3.9521v-3.7075c1.7115,1.0934,5.0747,2.4995,11.0552,2.4995,5.9903,0,9.3498-1.4108,11.0547-2.5054v3.7134c0,1.6504-4.2061,3.9521-11.0547,3.9521Z"/>
    </g>
  </g>
</svg>