<?xml version="1.0" encoding="UTF-8"?>
<svg xmlns="http://www.w3.org/2000/svg" version="1.1" viewBox="0 0 62.3622 62.3622">
  <defs>
    <style>
      .cls-1 {
        fill: #fff;
      }

      .cls-2 {
        fill: #da291c;
      }
    </style>
  </defs>
  <!-- Generator: Adobe Illustrator 28.6.0, SVG Export Plug-In . SVG Version: 1.2.0 Build 709)  -->
  <g>
    <g id="Ebene_2">
      <path class="cls-2" d="M31.3149,62.3622C13.4828,62.3622,0,47.5905,0,31.3148,0,12.6329,15.5571,0,31.0807,0c18.6016,0,31.2815,15.3399,31.2815,30.9472,0,19.0495-15.6575,31.415-31.0473,31.415h0Z"/>
      <g>
        <path class="cls-1" d="M31.2133,47.6792c-.0057-.0704-.0092-.1384-.03-.207-.0208-.0686-.0557-.1273-.0901-.189-.0223-.0404-.0303-.0854-.0588-.1234-1.8123-2.4164-3.226-4.8484-4.2869-7.2695.5141-.0414.9226-.4591.9226-.9844,0-.5518-.4478-1-1-1h-.7123c-.8222-2.3197-1.2916-4.6193-1.4185-6.8781h1.7331c.5522.0001,1-.4476,1-.9999s-.4478-1-1-1h-1.7544c.0842-2.359.5441-4.6627,1.4061-6.8794h10.4428c.5342,1.3981.9457,2.8485,1.1996,4.3462.083.4878.5059.8325.9854.8325.0557,0,.1113-.0044.168-.0142.5449-.0923.9111-.6089.8193-1.1533-.2335-1.3745-.5899-2.7119-1.0413-4.0112h6.1718c.8588,1.3472,1.5309,2.8356,1.9642,4.4395.1455.5342.7012.8496,1.2266.7046.5332-.144.8486-.6929.7051-1.2261-2.0322-7.5176-8.6221-12.8569-16.3984-13.2871-9.9062-.542-18.4346,7.0757-18.9829,16.9951-.2656,4.8052,1.356,9.4263,4.5659,13.0112,3.21,3.5859,7.624,5.707,12.4292,5.9717.019.001.0376.002.0562.002.1161,0,.2312-.0254.343-.0667.0416-.0153.0764-.0396.1152-.0601.0471-.0247.097-.0406.141-.0735.0148-.0111.0215-.0281.0355-.0399.0572-.0478.1013-.105.1467-.1644.0334-.044.0706-.0836.0959-.1318.0301-.0568.0444-.1195.0632-.1823.0183-.0615.0401-.1198.0464-.1835.0015-.015.0099-.0272.0107-.0424.0026-.0477-.0159-.0897-.0198-.136ZM22.577,29.0277l-7.3062-.001c.2687-2.479,1.0917-4.8189,2.4119-6.8781h6.1648c-.7711,2.2239-1.1957,4.5259-1.2706,6.879ZM26.8166,20.1487c.9516-1.8718,2.1985-3.6709,3.7338-5.3813.4068-.0154.8165-.0079,1.227.0076,1.5033,1.6194,2.7568,3.4245,3.725,5.3738h-8.6857ZM43.1628,20.1487h-5.4631c-.7958-1.7752-1.7988-3.4507-2.9958-5.0004,3.3141.7452,6.2592,2.5153,8.4589,5.0004ZM20.4904,18.8357c2.0593-1.8433,4.5095-3.0862,7.1327-3.6794-1.2191,1.5948-2.1979,3.2677-2.9779,4.9924h-5.45c.4065-.4567.8328-.8991,1.2952-1.313ZM15.1738,31.0267l7.4243.001c.1156,2.2668.5474,4.5671,1.2952,6.8781l-7.0492-.0007c-1.0626-2.1252-1.6348-4.4618-1.6703-6.8784ZM19.2404,41.4519c-.4407-.4923-.8354-1.0132-1.2079-1.5467l6.5842.0006c.8838,2.1981,2.0445,4.3949,3.4988,6.5696-3.4163-.6584-6.5147-2.3868-8.8751-5.0235Z"/>
        <path class="cls-1" d="M34.3562,35.463l.0811.4395,1.4297,3.7256-.2363.251c-.1631.1094-.3281.2197-.4756.3535-.7803.7119-1.2363,1.6846-1.2842,2.7402-.0498,1.0547.3154,2.0654,1.0273,2.8457.7119.7812,1.6846,1.2373,2.7402,1.2852.0654.0039.125.0049.1865.0049.9844,0,1.9297-.3662,2.6592-1.0322.7812-.7119,1.2373-1.6846,1.2852-2.7393.0498-1.0557-.3154-2.0664-1.0273-2.8467-.7119-.7812-1.6846-1.2373-2.7393-1.2852-.2129-.0137-.4414-.0039-.7031.0303l-.3262.041-.1016-.4287-1.2686-3.3926h-.001c-.0088,0-.0283-.0293-.0449-.0615l-.1543-.3008.2842-.1846c.1807-.1172.3555-.2432.5176-.3916.2773-.252.5225-.5684.749-.9668l.165-.2891.4043.1807,3.7754,1.126.0176.3066c-.0693,1.0859.291,2.1221,1.0156,2.916.7471.8193,1.8135,1.2891,2.9248,1.2891.9883-.001,1.9336-.3672,2.6611-1.0303,1.6113-1.4688,1.7266-3.9746.2588-5.5859-.7119-.7808-1.6855-1.2373-2.7402-1.2861-1.0469-.0508-2.0625.3135-2.8457,1.0273-.2734.249-.5068.5479-.7354.9424l-.1602.2754-.3936-.1631-3.4502-1.0254c.0068.0088-.0293.0088-.0693-.001l-.3232-.0625.0205-.3286c.0684-1.084-.292-2.1177-1.0156-2.9111-1.4678-1.6089-3.9736-1.7251-5.5869-.2573-.7803.7109-1.2368,1.6841-1.2856,2.7393-.0488,1.0547.3159,2.0654,1.0278,2.8457.7114.7803,1.6846,1.2373,2.7402,1.2861l.1865.0049c.125,0,.2471-.0166.3691-.0322l.4414-.0537ZM37.7635,45.8566h-.0576c-.7324-.0342-1.3975-.3467-1.8848-.8799-.4863-.5342-.7354-1.2256-.7031-1.9463.0342-.7227.3467-1.3877.8799-1.874.5-.4551,1.1465-.7061,1.8203-.7061l.127.002c.7217.0342,1.3867.3467,1.873.8799s.7363,1.2246.7041,1.9463c-.0342.7227-.3467,1.3877-.8799,1.875-.5.4551-1.165.7031-1.8789.7031ZM45.2576,37.8292c-.043,0-.0859-.001-.1289-.0029-.7227-.0332-1.3877-.3447-1.873-.8779-1.0039-1.1025-.9248-2.8154.1768-3.8203.5-.4551,1.1455-.7061,1.8193-.7061l.1299.0039c.7188.0322,1.3838.3447,1.8711.8789.4854.5332.7354,1.2246.7012,1.9473-.0332.7217-.3447,1.3867-.8779,1.873-.502.457-1.1436.7041-1.8184.7041ZM33.5486,34.299c-.0439,0-.0879-.001-.1318-.0029h0c-.7217-.0332-1.3867-.3457-1.874-.8799-.4863-.5342-.7358-1.2246-.7031-1.9458.0332-.7217.3457-1.3872.8799-1.874,1.0586-.9658,2.8555-.8809,3.8203.1758,1.0039,1.1025.9248,2.8159-.1768,3.8208-.502.458-1.1416.7061-1.8145.7061Z"/>
      </g>
    </g>
  </g>
</svg>