<?xml version="1.0" encoding="UTF-8"?>
<svg xmlns="http://www.w3.org/2000/svg" version="1.1" viewBox="0 0 62.3622 62.3622">
  <defs>
    <style>
      .cls-1 {
        fill: #fff;
      }

      .cls-2 {
        fill: #da291c;
      }
    </style>
  </defs>
  <!-- Generator: Adobe Illustrator 28.6.0, SVG Export Plug-In . SVG Version: 1.2.0 Build 709)  -->
  <g>
    <g id="Ebene_2">
      <path class="cls-2" d="M31.3149,62.3622C13.4828,62.3622,0,47.5905,0,31.3148,0,12.6329,15.5571,0,31.0807,0c18.6016,0,31.2815,15.3399,31.2815,30.9472,0,19.0495-15.6575,31.415-31.0473,31.415h0Z"/>
      <path class="cls-1" d="M48.7104,42.5964l.0256,4.6606-4.8149-4.8155c2.6079-3.0297,4.1961-6.9608,4.1961-11.2623,0-4.3146-1.5983-8.2556-4.2201-11.2889l4.785-4.7856-.0256,4.6601,1.9678-1.9676-.0209-6.0314-6.0262-.0149-1.9669,1.9675,4.659-.0262-4.7673,4.7672c-3.0818-2.8333-7.178-4.5795-11.6843-4.5795-9.5391,0-17.2993,7.7603-17.2993,17.2993s7.7603,17.2993,17.2993,17.2993c4.5193,0,8.6265-1.7563,11.7112-4.6042l4.7943,4.7943-4.6591-.0253,1.9668,1.968,6.0317-.0213.0154-6.0255-1.9678-1.9681ZM15.5186,31.1792c0-8.436,6.8633-15.2993,15.2993-15.2993s15.2993,6.8633,15.2993,15.2993-6.8633,15.2993-15.2993,15.2993-15.2993-6.8633-15.2993-15.2993Z"/>
      <g>
        <path class="cls-1" d="M20.9076,29.0449l-1.4556.333-.4565-1.8501,2.5288-.7158h1.7397v8.6973h-2.3564v-6.4644Z"/>
        <path class="cls-1" d="M28.0258,35.6821c-.6416,0-1.2051-.0928-1.6899-.2793-.4854-.1865-.9253-.4365-1.3203-.751l1.1226-1.6592c.2964.2383.5923.4131.8882.5244.2964.1113.6172.166.9624.166.4937,0,.874-.1592,1.1411-.4775s.4297-.7549.4873-1.311c-.2227.2144-.4868.3843-.7915.5122-.3052.1279-.6519.1914-1.0391.1914-.4204,0-.8081-.0635-1.1626-.1914-.355-.1279-.6616-.3086-.9214-.543s-.4619-.52-.606-.8574c-.1445-.3369-.2168-.7153-.2168-1.1348v-.0244c0-.4771.0864-.9087.2593-1.2954s.4131-.7178.7217-.9932.6724-.4873,1.0918-.6353.876-.2222,1.3691-.2222c.625,0,1.1411.0864,1.5483.2593.4072.1724.7749.4233,1.104.7524.3125.3125.5635.7236.7524,1.2334.1899.5103.2837,1.1641.2837,1.9614v.0249c0,.7075-.0859,1.353-.2573,1.937-.1724.584-.4258,1.083-.7612,1.499-.3354.415-.751.7373-1.2471.9678-.4966.2305-1.0693.3457-1.7188.3457ZM28.4389,30.8833c.3804,0,.6777-.1094.8926-.3286.2153-.2192.3228-.4858.3228-.8003v-.0244c0-.3389-.1118-.6201-.335-.8438-.2231-.2231-.5249-.3345-.9048-.3345-.3804,0-.6782.1094-.8931.3286s-.3223.498-.3223.8369v.0249c0,.3311.1113.6035.3345.8184.2236.2153.5249.3228.9053.3228Z"/>
        <path class="cls-1" d="M32.8002,33.7085l3.2324-2.4678c.4023-.312.6885-.5835.8564-.814.1689-.23.2529-.4771.2529-.7402,0-.2715-.0879-.4854-.2646-.6416-.1768-.1558-.4092-.2344-.6973-.2344s-.5615.0884-.8203.2651c-.2588.1772-.5576.459-.8945.8452l-1.6162-1.3447c.2305-.2959.4648-.5591.7031-.7896.2393-.23.4961-.4233.7715-.5796s.5801-.2754.9131-.3579c.333-.082.709-.123,1.1289-.123.4688,0,.8984.0679,1.2891.2031.3906.1357.7256.3232,1.0049.5615.2793.2388.498.5283.6543.8696s.2344.7139.2344,1.1167v.0244c0,.3457-.043.6538-.1299.9253-.0859.2715-.2158.5244-.3887.7588s-.3818.4585-.6289.6724-.5303.4365-.8516.666l-1.4805,1.0361h3.5654v1.9492h-6.834v-1.8008Z"/>
        <path class="cls-1" d="M40.8676,33.104h2.4424v2.4053h-2.4424v-2.4053Z"/>
      </g>
    </g>
  </g>
</svg>