<?xml version="1.0" encoding="UTF-8"?>
<svg xmlns="http://www.w3.org/2000/svg" version="1.1" viewBox="0 0 62.3622 62.3622">
  <defs>
    <style>
      .cls-1 {
        fill: #fff;
      }

      .cls-2 {
        fill: #fefefe;
      }

      .cls-3 {
        fill: #da291c;
      }
    </style>
  </defs>
  <!-- Generator: Adobe Illustrator 28.6.0, SVG Export Plug-In . SVG Version: 1.2.0 Build 709)  -->
  <g>
    <g id="Hintergrund">
      <path class="cls-3" d="M31.3149,62.3639C13.4828,62.3639,0,47.5921,0,31.3164,0,12.6345,15.5571.0017,31.0807.0017,49.6823.0017,62.3622,15.3416,62.3622,30.9488c0,19.0495-15.6575,31.415-31.0473,31.415h0Z"/>
    </g>
    <g id="ICON">
      <g>
        <circle class="cls-3" cx="31.1811" cy="31.1811" r="19.3465"/>
        <path class="cls-2" d="M31.1811,11.8346c10.6848,0,19.3465,8.6617,19.3465,19.3465s-8.6617,19.3465-19.3465,19.3465-19.3465-8.6617-19.3465-19.3465S20.4964,11.8346,31.1811,11.8346M31.1811,10.5846c-11.3569,0-20.5965,9.2395-20.5965,20.5965s9.2395,20.5965,20.5965,20.5965,20.5965-9.2395,20.5965-20.5965-9.2395-20.5965-20.5965-20.5965h0Z"/>
      </g>
      <g>
        <path class="cls-1" d="M44.2295,31.6123c-.1436-.7207-.8662-1.5049-2.0342-2.7241-.333-.3481-.6572-.686-.9092-.9771-.21-.2422-.4375-1.2632-.5879-1.939-.3477-1.5659-.708-3.1855-1.8779-3.75-1.1514-.5537-2.1113-.4746-2.8867-.4097-.3382.0285-.633.0472-.925.0251l-1.1033-3.7112c-.1582-.5283-.707-.832-1.2441-.6733-.5293.1572-.8306.7139-.6733,1.2437l.5838,1.9646-2.4803-2.9978c-.3525-.4253-.9829-.4844-1.4082-.1328-.4253.3521-.4849.9824-.1328,1.4082l1.7667,2.1353c-.335.1837-.6619.4446-.989.7607-.4442-.3635-1.0835-.798-2.0209-1.3384-1.0264-.5923-1.6836-.3462-2.0542-.0361-1.0249.8569-.5864,2.7583.647,6.1948.0742.2065.1353.3765.1753.4961.028.0834.0724.1555.1183.2258-3.1522,6.9022-7.836,12.9709-7.8849,13.033-.3389.4365-.2603,1.0645.1758,1.4033.1826.1426.3984.2109.6133.2109.2979,0,.5928-.1328.79-.3857.079-.1019.8228-1.0646,1.8895-2.6097.1114.5272.1959,1.1668.1921,1.9349-.0024.5527.4429,1.002.9951,1.0049h.0049c.5503,0,.9971-.4443,1-.9951.0102-2.0869-.5202-3.4864-.7636-4.0873.5848-.9061,1.2065-1.905,1.8388-2.9865.0113,0,.0201.0005.0317.0005,1.0605,0,3.3228-.2695,4.2329-2.4541.2129-.5098-.0283-1.0952-.5381-1.3076-.5107-.2148-1.0957.0288-1.3076.5381-.2411.5779-.7142.8809-1.1984,1.0446.7584-1.4083,1.4982-2.8961,2.1603-4.4274l.0742-.2729c.002-.0132.2017-1.373,1.4648-2.9233,1.3555-1.6626,1.603-1.6636,2.9194-.8911,1.2969.7603,2.3633.6704,3.2168.5991.665-.0562,1.1895-.0996,1.8428.2139.3203.2168.6348,1.6284.8027,2.3867.2617,1.1753.4873,2.1904,1.0283,2.8149.2705.3125.6182.6758.9766,1.0503.5254.5483,1.4043,1.4663,1.5127,1.6865-.0039.0557-.084.2432-.2539.3789-.042.0322-.1533.1104-.2246.0977-.1436-.0371-.5137-.3525-.7588-.5615-.6689-.5698-1.584-1.3496-2.835-1.4502-.6963-.0552-1.2949-.4365-1.9297-.8403-.9746-.6196-2.4453-1.5576-4.0146-.1572-.4116.3672-.4478.9995-.0801,1.4116.3682.4126,1,.4482,1.4121.0806.3633-.3247.4814-.3652,1.6094.3525.7363.4688,1.6523,1.0513,2.8428,1.147.6064.0479,1.1611.5215,1.6982.9785.5303.4521,1.0791.9189,1.7646,1.0176.7363.1074,1.4834-.1777,2.0479-.7754.5566-.5889.8203-1.3652.6875-2.0254ZM28.0252,23.3499c-.2986.4183-.5407.8214-.7341,1.1968-.3175-.9776-.4876-1.6375-.5635-2.0706.6531.3933,1.0516.6778,1.2977.8738Z"/>
        <path class="cls-1" d="M30.6299,32.3027c-.5649.5342-1.2534,2.877-2.0503,6.9678-.4414-.3164-.8687-.7227-1.0293-1.167-.0708-.1953-.1367-.5088.1064-.9717.2573-.4893.0698-1.0938-.4189-1.3506-.4912-.2578-1.0938-.0693-1.3506.4189-.4487.8525-.5229,1.748-.2148,2.5918.6812,1.8662,2.9932,2.8535,3.2544,2.959l1.1387.4639.2217-1.209c.5645-3.0742,1.4067-6.749,1.7178-7.252.4014-.3799.418-1.0127.0381-1.4131-.3789-.4014-1.0132-.418-1.4131-.0381Z"/>
      </g>
    </g>
    <g id="Tonne_Outline">
      <path class="cls-3" d="M45.2305,53.165c-3.8174,0-7.9258-1.3691-7.9258-4.375v-10.1797c0-.0566,0-.1572.0186-.2832.2598-2.8115,4.2646-4.0928,7.9072-4.0928,3.6475,0,7.6562,1.2812,7.916,4.0928.0186.126.0186.2266.0186.2832v10.1797c0,3.0059-4.1133,4.375-7.9346,4.375Z"/>
    </g>
    <g id="Tonne">
      <path class="cls-1" d="M51.88,38.49c-.13-1.93-3.48-2.98-6.65-2.98-3.16,0-6.51,1.05-6.64,2.98-.01.04-.01.08-.01.12v10.18c0,2.01,3.43,3.1,6.65,3.1,3.23,0,6.66-1.09,6.66-3.1v-10.18c0-.04,0-.08-.01-.12ZM50.64,48.79c0,.75-2.11,1.85-5.41,1.85s-5.4-1.1-5.4-1.85v-1.43c.97.54,2.66,1.13,5.4,1.13,2.77,0,4.45-.58,5.41-1.12v1.42ZM50.64,45.85c-.42.36-1.9,1.39-5.41,1.39-3.48,0-4.97-1.01-5.4-1.38v-1.89c.97.54,2.66,1.13,5.4,1.13,2.77,0,4.45-.58,5.41-1.12v1.87ZM50.64,42.46c-.42.36-1.9,1.39-5.41,1.39-3.48,0-4.97-1.01-5.4-1.38v-2c1.28.82,3.38,1.25,5.4,1.25s4.13-.43,5.41-1.25v1.99ZM45.23,40.47c-3.3,0-5.4-1.1-5.4-1.86,0-.75,2.1-1.85,5.4-1.85s5.41,1.1,5.41,1.85c0,.76-2.11,1.86-5.41,1.86Z"/>
    </g>
  </g>
</svg>