<?xml version="1.0" encoding="UTF-8"?>
<svg xmlns="http://www.w3.org/2000/svg" version="1.1" viewBox="0 0 62.3622 62.3622">
  <defs>
    <style>
      .cls-1 {
        fill: #f6fbff;
      }

      .cls-2 {
        fill: #fff;
      }

      .cls-3 {
        fill: #da291c;
      }
    </style>
  </defs>
  <!-- Generator: Adobe Illustrator 28.6.0, SVG Export Plug-In . SVG Version: 1.2.0 Build 709)  -->
  <g>
    <g id="Ebene_2">
      <path class="cls-3" d="M31.3149,62.3622C13.4828,62.3622,0,47.5905,0,31.3148,0,12.6329,15.5571,0,31.0807,0c18.6016,0,31.2815,15.3399,31.2815,30.9472,0,19.0495-15.6575,31.415-31.0473,31.415h0Z"/>
      <g>
        <g>
          <path class="cls-1" d="M42.9034,36.0195h-9.9014c-.5527,0-1-.4473-1-1s.4473-1,1-1h8.4591c.1819,0,.3259-.168.2938-.3471-.7018-3.9153-3.7009-6.7802-8.2596-7.7901-.4268-.0947-.7422-.4546-.7803-.8892-.0378-.4309.2057-.8368.603-1.0069,1.0346-.443,2.0259-1.023,2.5907-1.9965,2.7618-4.7604-1.1426-9.6687-5.8086-8.8202-2.1362.3885-3.9129,2.0371-4.436,4.1444-.7057,2.8426.7637,5.6063,3.3238,6.668.4028.1675.6509.5767.6128,1.0112s-.3535.7944-.7798.8892c-3.938.8721-6.5215,2.7856-7.6797,5.6875-.2046.5122-.7852.7651-1.2993.5581-.5132-.2046-.7627-.7866-.5581-1.2993,1.1763-2.9478,3.4849-5.0479,6.877-6.2627-2.04-1.7461-3.0827-4.4997-2.5236-7.3543.5943-3.0344,3.0655-5.4655,6.1089-6.0116,4.8472-.8697,9.0821,2.8517,9.0821,7.5436,0,2.2959-1.0117,4.4121-2.6973,5.8428,4.6631,1.7798,7.5811,5.6069,7.7715,10.3931.0107.2725-.0898.5371-.2783.7334-.1885.1953-.4482.3066-.7207.3066Z"/>
          <path class="cls-2" d="M23.4908,48.7822c-1.1177,0-2.2256-.2715-3.2441-.8076-1.667-.877-2.8857-2.3545-3.4321-4.1592-.5474-1.8076-.3013-3.8115.6748-5.4971.9785-1.6904,2.5981-2.9043,4.4448-3.3311,3.3691-.7744,6.811,1.0479,8.0669,4.2549h11.3916c.6351,0,1.2442.2519,1.6937.7005l.4753.4743c.761.7595.7617,1.9922.0014,2.7525l-.521.521c-.4196.4196-.9886.6553-1.582.6553h-.3585l-1.1134,1.1134c-.0604.0604-.1582.0604-.2186,0l-1.1134-1.1134h-.125l-1.1215,1.1224c-.0553.0553-.145.0554-.2003,0l-1.1225-1.1225h-.125l-1.117,1.1187c-.0573.0574-.1503.0575-.2077.0002l-1.0797-1.0779-.0992-.041-3.458.001c-.772,1.9688-2.3628,3.46-4.3848,4.1035-.6982.2217-1.4136.332-2.125.332ZM23.4986,36.0586c-.4248,0-.8545.0479-1.2832.1475-1.5103.3486-2.8389,1.3467-3.6445,2.7383-.8032,1.3877-1.0073,3.0312-.5601,4.5098.4487,1.4814,1.4492,2.6943,2.8179,3.4141,1.3687.7207,2.9341.8594,4.4082.3906,1.6963-.5391,3.0229-1.8057,3.6401-3.4736.1514-.4111.5444-.6885.9775-.6885l3.6064-.001c.3711,0,.7197.1445.9814.4082l.2969.2969.7051-.7051h1.1602l.7051.7051.7041-.7051h1.1602l.7051.7051.7051-.7051h.875c.2637,0,.5117-.1025.6982-.29l.5205-.5205c.2715-.2705.2715-.7119,0-.9844l-.4727-.4717c-.2168-.2178-.5049-.3369-.8125-.3369h-11.5376c-.4331,0-.8267-.2773-.9785-.6904-.8442-2.2842-3.0278-3.7432-5.3779-3.7432Z"/>
        </g>
        <path class="cls-2" d="M22.5562,42.8084c-.5603.5603-1.4688.5603-2.029,0s-.5603-1.4688,0-2.0291,1.4687-.5603,2.029,0c.5603.5603.5603,1.4688,0,2.0291Z"/>
      </g>
    </g>
  </g>
</svg>