<?xml version="1.0" encoding="UTF-8"?>
<svg xmlns="http://www.w3.org/2000/svg" version="1.1" viewBox="0 0 62.3622 62.3622">
  <defs>
    <style>
      .cls-1 {
        fill: #fff;
      }

      .cls-2 {
        fill: #fefefe;
      }

      .cls-3 {
        fill: #da291c;
      }
    </style>
  </defs>
  <!-- Generator: Adobe Illustrator 28.6.0, SVG Export Plug-In . SVG Version: 1.2.0 Build 709)  -->
  <g>
    <g id="Hintergrund">
      <path class="cls-3" d="M31.3149,62.3639C13.4828,62.3639,0,47.5921,0,31.3164,0,12.6345,15.5571.0017,31.0807.0017,49.6823.0017,62.3622,15.3416,62.3622,30.9488c0,19.0495-15.6575,31.415-31.0473,31.415h0Z"/>
    </g>
    <g id="ICON">
      <g>
        <circle class="cls-3" cx="31.1811" cy="31.1811" r="19.3465"/>
        <path class="cls-2" d="M31.1811,11.8346c10.6848,0,19.3465,8.6617,19.3465,19.3465s-8.6617,19.3465-19.3465,19.3465-19.3465-8.6617-19.3465-19.3465S20.4964,11.8346,31.1811,11.8346M31.1811,10.5846c-11.3569,0-20.5965,9.2395-20.5965,20.5965s9.2395,20.5965,20.5965,20.5965,20.5965-9.2395,20.5965-20.5965-9.2395-20.5965-20.5965-20.5965h0Z"/>
      </g>
      <path class="cls-1" d="M29.3922,43.2774c-.3687,0-.6743-.2139-.854-.6133-.9893-2.2002-2.0122-4.4756-2.9683-6.7354-.145-.3428-.1367-.9355.0923-1.2148.2139-.2607.7866-.3633,1.166-.292,1.2979.2412,2.5747-.1621,3.5078-1.1074s1.334-2.2905,1.0723-3.5972l-.0078-.0396c-.0557-.2744-.125-.6157.0142-.832.1787-.2773.5312-.5186.8384-.5742.2324-.0439.4648.0073.6455.1426.1904.1431.3105.3643.3379.6235.0723.6826.1084,1.3647.1455,2.0864.0127.2554.0264.5146.042.7793.001.0249.0195.0464.042.0503,1.3027.2168,2.4307-.0933,3.3613-.9194.1064-.0942.21-.207.3164-.3442.3203-.4121.709-.5566,1.1504-.438.5039.1396.9092.7217.9707,1.1777.2227,1.6611-.1895,3.1865-1.2998,4.8008-.3906.5713-.9307.7344-1.4355.4395-.3457-.2012-.665-.6191-.2275-1.4688.2324-.4502.4424-.9248.6455-1.3828.0918-.2051.1826-.4111.2764-.6152,0-.001,0-.002.001-.0029-.0039.002-.0088.0039-.0127.0059-1.3125.7148-2.7891.9141-4.5059.6143-.0879-.0068-.249.0479-.2979.1123-1.104,1.4619-2.5371,2.2803-4.3809,2.502-.0234.0029-.0352.0176-.0405.0254-.0049.0078-.0122.0244-.0044.0459l.0317.0869c.0679.1885.1304.3604.2041.5273.3887.8779.7793,1.7559,1.1699,2.6328l.8311,1.8672c.0625.1396.127.2832.1558.4395.105.5645-.1079.9717-.5996,1.1475-.1328.0469-.2617.0703-.3833.0703ZM18.6524,34.4112c-1.0977,0-2.2593-.4062-3.459-1.2197-.4858-.3301-.606-.8193-.3203-1.3105.2754-.4731.7607-.6104,1.2979-.3652.1865.085.3618.1929.5312.2969.1128.0698.2256.1392.3418.2021,1.3467.7246,2.4497.5898,3.5757-.439,1.3955-1.2734,2.2842-2.897,3.2207-4.7329.1099-.2153.2144-.4326.3193-.6504.4038-.8384.8218-1.7056,1.522-2.4146,1.189-1.2051,2.9912-1.8804,4.8022-1.8262,1.7612.0596,3.3501.8105,4.4731,2.1143.4463.5181,1.0771.9102,1.6846,1.2666.5.2949,1.373.0454,1.791-.3657.4727-.4639,1.5781-1.5508,2.0186-2.6396.1143-.2534.2139-.4863.3086-.707.207-.4819.3857-.8979.6094-1.2979.3154-.5654.8389-.8003,1.333-.6001.2256.104.3916.2939.4717.5366.0947.2822.0654.6094-.0771.875-.1025.1519-.3203.5903-.3936.7651-.1348.3213-.1299.522.2715.7285.8447.4351,1.7148.9507,2.5859,1.5327.7197.4805,1.0752,1.3252.9053,2.1514-.1572.7695-.6396,1.2812-1.3955,1.481l-.4854.1294c-.5742.1543-1.168.314-1.7607.4351-.3613.0737-.5771.2437-.7441.5864-.1562.3193-.3662.6538-.6406,1.0239-.3721.4966-.8691.5942-1.3721.2612-.4561-.3022-.5625-.7847-.2891-1.3228.2842-.5581.6221-1.2026,1.04-1.7905.1426-.2007.4219-.3569.8545-.4771.7188-.1997,1.4561-.3809,2.1689-.5562l.1396-.0347c.4521-.0889.4863-.1899.4863-.1909.0049-.0278.0156-.1035-.4004-.3218l-.1729-.1055c-.5684-.3477-1.1572-.7065-1.7559-1.0151-.4326-.2251-.7725.0591-1.1689.4512-.1602.1592-.2949.3433-.4365.5386-.0557.0776-.1123.1548-.1699.231-.8467,1.1074-1.8438,1.7051-2.9619,1.7759-1.1602.0718-2.4473-.4761-3.4287-1.4692-.1221-.1235-.2412-.25-.3594-.3765-.1523-.1611-.3037-.3228-.4619-.4775-1.0186-1.0034-2.4888-1.4102-3.9292-1.0859-1.4277.3203-2.5708,1.3037-3.0581,2.6309-.377,1.0264-.2681,2.0854.3228,3.1475.3828.687.3086,1.2466-.2036,1.5356-.252.1416-.5171.1772-.7632.1035-.3057-.0908-.5723-.3413-.771-.7241-.1045-.2007-.1992-.4062-.2852-.5933-.0098-.0215-.0225-.0234-.0386-.0249-.0093,0-.022.0029-.0322.0156-.1914.2383-.3799.4795-.5684.7207-.5278.6768-1.0737,1.376-1.6851,1.9966-1.0518,1.0664-2.2275,1.6016-3.4873,1.6016Z"/>
    </g>
    <g id="Tonne_Outline">
      <path class="cls-3" d="M45.2305,53.165c-3.8174,0-7.9258-1.3691-7.9258-4.375v-10.1797c0-.0566,0-.1572.0186-.2832.2598-2.8115,4.2646-4.0928,7.9072-4.0928,3.6475,0,7.6562,1.2812,7.916,4.0928.0186.126.0186.2266.0186.2832v10.1797c0,3.0059-4.1133,4.375-7.9346,4.375Z"/>
    </g>
    <g id="Tonne">
      <path class="cls-1" d="M51.88,38.49c-.13-1.93-3.48-2.98-6.65-2.98-3.16,0-6.51,1.05-6.64,2.98-.01.04-.01.08-.01.12v10.18c0,2.01,3.43,3.1,6.65,3.1,3.23,0,6.66-1.09,6.66-3.1v-10.18c0-.04,0-.08-.01-.12ZM50.64,48.79c0,.75-2.11,1.85-5.41,1.85s-5.4-1.1-5.4-1.85v-1.43c.97.54,2.66,1.13,5.4,1.13,2.77,0,4.45-.58,5.41-1.12v1.42ZM50.64,45.85c-.42.36-1.9,1.39-5.41,1.39-3.48,0-4.97-1.01-5.4-1.38v-1.89c.97.54,2.66,1.13,5.4,1.13,2.77,0,4.45-.58,5.41-1.12v1.87ZM50.64,42.46c-.42.36-1.9,1.39-5.41,1.39-3.48,0-4.97-1.01-5.4-1.38v-2c1.28.82,3.38,1.25,5.4,1.25s4.13-.43,5.41-1.25v1.99ZM45.23,40.47c-3.3,0-5.4-1.1-5.4-1.86,0-.75,2.1-1.85,5.4-1.85s5.41,1.1,5.41,1.85c0,.76-2.11,1.86-5.41,1.86Z"/>
    </g>
  </g>
</svg>