<?xml version="1.0" encoding="UTF-8"?>
<svg xmlns="http://www.w3.org/2000/svg" version="1.1" viewBox="0 0 62.3622 62.3622">
  <defs>
    <style>
      .cls-1 {
        fill: #fff;
      }

      .cls-2 {
        fill: #da291c;
      }
    </style>
  </defs>
  <!-- Generator: Adobe Illustrator 28.6.0, SVG Export Plug-In . SVG Version: 1.2.0 Build 709)  -->
  <g>
    <g id="Ebene_2">
      <path class="cls-2" d="M31.3149,62.3622C13.4828,62.3622,0,47.5905,0,31.3148,0,12.6329,15.5571,0,31.0807,0c18.6016,0,31.2815,15.3399,31.2815,30.9472,0,19.0495-15.6575,31.415-31.0473,31.415h0Z"/>
      <polygon class="cls-1" points="31.1825 42.5197 28.796 42.5197 31.1825 38.4241 31.1825 34.3931 26.4741 42.4874 24.1843 42.4874 31.1825 30.2975 31.1825 26.2342 21.7979 42.4874 19.4436 42.4874 31.1825 22.2676 31.1825 18.172 17.1217 42.4874 14.7675 42.4874 31.1825 14.1732 47.5331 42.5197 31.1825 42.5197"/>
    </g>
  </g>
</svg>