<?xml version="1.0" encoding="UTF-8"?>
<svg xmlns="http://www.w3.org/2000/svg" version="1.1" viewBox="0 0 62.3622 62.3622">
  <defs>
    <style>
      .cls-1 {
        fill: #fff;
      }

      .cls-2 {
        fill: #fefefe;
      }

      .cls-3 {
        fill: #da291c;
      }
    </style>
  </defs>
  <!-- Generator: Adobe Illustrator 28.6.0, SVG Export Plug-In . SVG Version: 1.2.0 Build 709)  -->
  <g>
    <g id="Hintergrund">
      <path class="cls-3" d="M31.3149,62.3639C13.4828,62.3639,0,47.5921,0,31.3164,0,12.6345,15.5571.0017,31.0807.0017,49.6823.0017,62.3622,15.3416,62.3622,30.9488c0,19.0495-15.6575,31.415-31.0473,31.415h0Z"/>
    </g>
    <g id="ICON">
      <g>
        <circle class="cls-3" cx="31.1811" cy="31.1811" r="19.3465"/>
        <path class="cls-2" d="M31.1811,11.8346c10.6848,0,19.3465,8.6617,19.3465,19.3465s-8.6617,19.3465-19.3465,19.3465-19.3465-8.6617-19.3465-19.3465S20.4964,11.8346,31.1811,11.8346M31.1811,10.5846c-11.3569,0-20.5965,9.2395-20.5965,20.5965s9.2395,20.5965,20.5965,20.5965,20.5965-9.2395,20.5965-20.5965-9.2395-20.5965-20.5965-20.5965h0Z"/>
      </g>
      <g>
        <path class="cls-1" d="M21.2959,42.9521c-.2847,0-.5674-.1211-.7651-.3555-.356-.4219-.3022-1.0527.1201-1.4092,1.1943-1.0068,3.1606-4.8672,3.5723-6.3877-1.917-.4229-2.6318-.4365-3.168-.4463-.2876-.0059-.5293-.0127-.8203-.0557-.3677-.0547-.6743-.3086-.7969-.6602-.1221-.3506-.04-.7402.2139-1.0117.0947-.1104.1895-.2148.2954-.3047,1.3154-1.1055,3.9722-2.3257,6.7363-2.4268.145-.0391.1978-.1045.251-.2236l.1919-.4482c.7334-1.7383,2.4512-5.8086,5.311-7.3799.958-.5269,1.9795-.7954,3.2129-.8447.3027-.0122,1.1064-.0444,1.3154-.1089.334-.1392.668-.3862,1.0205-.6475.4756-.3525,1.0156-.752,1.6895-.9434.8291-.1646,1.2109-.1973,1.7295.1006.7754.3896.9111,1.1211.9561,1.3613.1777.9614-.127,1.8154-.4854,2.2017-.2041.2192-.4199.4424-.6416.6729-.7637.79-1.5537,1.6074-2.1875,2.5801-.5459,1.001-.7969,1.3848-1.4893,2.0991.0078.0454.0273.1226.0703.2466.084.2417.1885.4771.293.7129.3174.7207.6777,1.5371.5723,2.5034-.082.7437-1.5605,3.9019-1.9775,4.2251-.3008.2334-.709.2764-1.0527.1074-.3428-.168-.5605-.5166-.5605-.8975.001-1.4092-.4365-2.1152-.7549-2.6309-.1113-.1797-.2051-.3359-.2705-.4746-.2354-.4995-.0225-1.0957.4775-1.3315.499-.2354,1.0947-.0215,1.3311.4771.0381.082.0967.1714.1621.2769.1201.1943.2646.4277.4082.7153.1328-.312.2285-.5669.25-.6953.0469-.4224-.167-.9067-.415-1.4683-.126-.2861-.252-.5732-.3525-.8647-.1201-.3462-.4883-1.4048.3291-2.2388.5732-.585.7148-.7856,1.2646-1.7891.7773-1.1978,1.6729-2.125,2.4639-2.9429.1943-.2012.3828-.3965.5615-.5874.0744-.1079.1231-.1652.1077-.395-.3077-.0564-.2079-.0518-.3255-.0211-.2014.0723-.5752.3203-.9629.6074-.4141.3066-.8838.6538-1.4658.8955-.3906.1621-.9502.2104-1.9805.2515-.9248.0371-1.6436.2217-2.3291.5991-2.2515,1.2373-3.7798,4.8584-4.4321,6.4053-.0825.1943-.1519.3589-.2085.4858-.3354.751-.9458,1.231-1.7656,1.3872-.0527.0098-.1064.0156-.1602.0171-1.1675.0317-2.3521.3164-3.373.7139.5132.0938,1.1333.2227,1.895.4023.4492.1064.7852.4531.8984.9277.4175,1.748-2.7261,7.4424-4.3154,8.7822-.1875.1582-.4165.2354-.644.2354ZM40.3457,21.6855h0Z"/>
        <path class="cls-1" d="M25.7607,43.7578c-.3188,0-.6318-.1514-.8257-.4346-.3125-.4551-.1963-1.0771.2588-1.3896,3.2578-2.2354,6.4683-7.3926,6.5005-7.4443.2905-.4707.9082-.6162,1.376-.3252.4697.29.6152.9062.3252,1.376-.1396.2266-3.4619,5.5664-7.0698,8.042-.1729.1191-.3701.1758-.5649.1758Z"/>
      </g>
    </g>
    <g id="Tonne_Outline">
      <path class="cls-3" d="M45.2305,53.165c-3.8174,0-7.9258-1.3691-7.9258-4.375v-10.1797c0-.0566,0-.1572.0186-.2832.2598-2.8115,4.2646-4.0928,7.9072-4.0928,3.6475,0,7.6562,1.2812,7.916,4.0928.0186.126.0186.2266.0186.2832v10.1797c0,3.0059-4.1133,4.375-7.9346,4.375Z"/>
    </g>
    <g id="Tonne">
      <path class="cls-1" d="M51.88,38.49c-.13-1.93-3.48-2.98-6.65-2.98-3.16,0-6.51,1.05-6.64,2.98-.01.04-.01.08-.01.12v10.18c0,2.01,3.43,3.1,6.65,3.1,3.23,0,6.66-1.09,6.66-3.1v-10.18c0-.04,0-.08-.01-.12ZM50.64,48.79c0,.75-2.11,1.85-5.41,1.85s-5.4-1.1-5.4-1.85v-1.43c.97.54,2.66,1.13,5.4,1.13,2.77,0,4.45-.58,5.41-1.12v1.42ZM50.64,45.85c-.42.36-1.9,1.39-5.41,1.39-3.48,0-4.97-1.01-5.4-1.38v-1.89c.97.54,2.66,1.13,5.4,1.13,2.77,0,4.45-.58,5.41-1.12v1.87ZM50.64,42.46c-.42.36-1.9,1.39-5.41,1.39-3.48,0-4.97-1.01-5.4-1.38v-2c1.28.82,3.38,1.25,5.4,1.25s4.13-.43,5.41-1.25v1.99ZM45.23,40.47c-3.3,0-5.4-1.1-5.4-1.86,0-.75,2.1-1.85,5.4-1.85s5.41,1.1,5.41,1.85c0,.76-2.11,1.86-5.41,1.86Z"/>
    </g>
  </g>
</svg>