<?xml version="1.0" encoding="UTF-8"?>
<svg xmlns="http://www.w3.org/2000/svg" version="1.1" viewBox="0 0 62.3622 62.3622">
  <defs>
    <style>
      .cls-1 {
        fill: #fff;
      }

      .cls-2 {
        fill: #da291c;
      }

      .cls-3 {
        display: none;
      }
    </style>
  </defs>
  <!-- Generator: Adobe Illustrator 28.6.0, SVG Export Plug-In . SVG Version: 1.2.0 Build 709)  -->
  <g>
    <g id="Ebene_2">
      <path class="cls-2" d="M31.3149,62.3622C13.4828,62.3622,0,47.5905,0,31.3148,0,12.6329,15.5571,0,31.0807,0c18.6016,0,31.2815,15.3399,31.2815,30.9472,0,19.0495-15.6575,31.415-31.0473,31.415h0Z"/>
      <path class="cls-1" d="M52.3618,26.9006l-2.782.0066,3.3203,3.2685-6.817.0178c-.223-3.9271-1.7505-7.5038-4.1702-10.3032l4.785-4.7856-.0256,4.6601,1.9678-1.9676-.0209-6.0314-6.0261-.0149-1.9669,1.9675,4.659-.0262-4.7673,4.7672c-3.0818-2.8333-7.178-4.5795-11.6843-4.5795-9.5391,0-17.2993,7.7603-17.2993,17.2993s7.7603,17.2993,17.2993,17.2993c4.5193,0,8.6265-1.7563,11.7112-4.6042l4.7943,4.7943-4.6591-.0253,1.9668,1.968,6.0317-.0213.0154-6.0255-1.9678-1.9681.0256,4.6606-4.8149-4.8155c2.4007-2.789,3.9172-6.346,4.1448-10.2498l6.8229-.0184-3.306,3.2844,2.7827-.0059,4.2406-4.289-4.2601-4.2623ZM28.8336,46.4785c-8.436,0-15.2993-6.8633-15.2993-15.2993s6.8633-15.2993,15.2993-15.2993,15.2993,6.8633,15.2993,15.2993-6.8633,15.2993-15.2993,15.2993Z"/>
    </g>
    <g id="Ebene_3" class="cls-3">
      <path class="cls-2" d="M31.3149,62.3622C13.4828,62.3622,0,47.5905,0,31.3148,0,12.6329,15.5571,0,31.0807,0c18.6016,0,31.2815,15.3399,31.2815,30.9472,0,19.0495-15.6575,31.415-31.0473,31.415h0Z"/>
      <path class="cls-1" d="M30.8179,48.4785c-9.5391,0-17.2993-7.7607-17.2993-17.2993s7.7603-17.2993,17.2993-17.2993,17.2993,7.7603,17.2993,17.2993-7.7607,17.2993-17.2993,17.2993ZM30.8179,15.8799c-8.436,0-15.2993,6.8633-15.2993,15.2993s6.8633,15.2993,15.2993,15.2993,15.2993-6.8633,15.2993-15.2993-6.8633-15.2993-15.2993-15.2993Z"/>
      <path class="cls-1" d="M50.6035,11.7658l.0209,6.0314-1.9678,1.9676.0256-4.6601-6.1332,6.1341-1.4136-1.4124,6.1342-6.1342-4.659.0263,1.9669-1.9675,6.0262.0149Z"/>
      <path class="cls-1" d="M50.6628,50.59l-6.0316.0213-1.9668-1.968,4.6591.0253-6.1342-6.1341,1.4136-1.4115,6.1333,6.1341-.0255-4.6606,1.9678,1.9681-.0154,6.0255Z"/>
    </g>
  </g>
</svg>