<?xml version="1.0" encoding="UTF-8"?>
<svg id="Ebene_2" xmlns="http://www.w3.org/2000/svg" version="1.1" viewBox="0 0 62.3622 62.3622">
  <!-- Generator: Adobe Illustrator 29.0.1, SVG Export Plug-In . SVG Version: 2.1.0 Build 192)  -->
  <defs>
    <style>
      .st0 {
        fill: #fff;
      }

      .st1 {
        fill: #da291c;
      }
    </style>
  </defs>
  <path class="st1" d="M31.3149,62.3622C13.4828,62.3622,0,47.5905,0,31.3148,0,12.6329,15.5571,0,31.0807,0c18.6016,0,31.2815,15.3399,31.2815,30.9472,0,19.0495-15.6575,31.415-31.0473,31.415h0Z"/>
  <g>
    <path class="st0" d="M41.0116,22.667c-.196-.14-.3921-.196-.6162-.196-.3361,0-.6442.168-.8402.4201l-10.1105,13.7234-6.8337-5.4614c-.196-.14-.4201-.2241-.6442-.2241-.3081,0-.6162.14-.8122.3921-.3641.4481-.2801,1.1203.168,1.4844l7.6739,6.1335c.196.14.4201.2241.6442.2241h.14c.2801-.028.5321-.196.7002-.4201l10.7547-14.5916c.168-.2241.2241-.5041.196-.7842-.056-.3081-.1961-.5321-.4201-.7002Z"/>
    <path class="st0" d="M31.1811,12.4724c-10.3066,0-18.7087,8.4021-18.7087,18.7087s8.4021,18.7087,18.7087,18.7087,18.7087-8.4021,18.7087-18.7087-8.4021-18.7087-18.7087-18.7087ZM31.1811,47.7892c-9.1583,0-16.6081-7.4499-16.6081-16.6081s7.4499-16.6081,16.6081-16.6081,16.6081,7.4499,16.6081,16.6081-7.4499,16.6081-16.6081,16.6081Z"/>
  </g>
</svg>