<?xml version="1.0" encoding="UTF-8"?>
<svg xmlns="http://www.w3.org/2000/svg" version="1.1" viewBox="0 0 62.3622 62.3622">
  <defs>
    <style>
      .cls-1 {
        fill: #fff;
      }

      .cls-2 {
        fill: #fefefe;
      }

      .cls-3 {
        fill: #da291c;
      }
    </style>
  </defs>
  <!-- Generator: Adobe Illustrator 28.6.0, SVG Export Plug-In . SVG Version: 1.2.0 Build 709)  -->
  <g>
    <g id="Hintergrund">
      <path class="cls-3" d="M31.3149,62.3639C13.4828,62.3639,0,47.5921,0,31.3164,0,12.6345,15.5571.0017,31.0807.0017,49.6823.0017,62.3622,15.3416,62.3622,30.9488c0,19.0495-15.6575,31.415-31.0473,31.415h0Z"/>
    </g>
    <g id="ICON">
      <g>
        <circle class="cls-3" cx="31.1811" cy="31.1811" r="19.3465"/>
        <path class="cls-2" d="M31.1811,11.8346c10.6848,0,19.3465,8.6617,19.3465,19.3465s-8.6617,19.3465-19.3465,19.3465-19.3465-8.6617-19.3465-19.3465S20.4964,11.8346,31.1811,11.8346M31.1811,10.5846c-11.3569,0-20.5965,9.2395-20.5965,20.5965s9.2395,20.5965,20.5965,20.5965,20.5965-9.2395,20.5965-20.5965-9.2395-20.5965-20.5965-20.5965h0Z"/>
      </g>
      <g>
        <path class="cls-1" d="M28.1472,42.4286h-.0117c-1.0581-.0078-1.9839-.4727-2.5396-1.2754-.5635-.8135-.6821-1.8916-.3174-2.8818.2295-.6221.6104-1.1719,1.1611-1.6748-.125-.1279-.2441-.2451-.3643-.3145-.6128-.3516-1.3496-.4199-2.1914-.1982-.7031.1836-1.3667.4805-2.1611.8496-1.0029.4668-1.2769.9316-1.126,1.9141.0312.208.1182.3604.2812.4932.0327.0273.1782.0713.4238.04.3271-.043.5864-.1836.6484-.2686.0908-.125.1597-.2969.2329-.4785.2236-.5479.6504-.793,1.1367-.707.5151.0918.854.5635.7695,1.0752-.0576.3467-.1372.71-.3301,1.0225-.3926.6338-1.0283,1.0635-1.8911,1.2783-1.2847.3184-2.4683-.248-3.0107-1.4492-.2515-.5537-.3257-1.1758-.2329-1.9551.0796-.6719.3491-1.2607.8008-1.748.5581-.6035,1.2539-.9111,1.9268-1.209l.3062-.1367c.3872-.1758.7759-.3486,1.1641-.5215.5962-.2646,1.1924-.5303,1.7832-.8066.3047-.1416.5308-.3936.6914-.7686.0732-.1719.2002-.5908-.2046-.7842-.1704-.0811-.3652-.1489-.5967-.2075-.9253-.2334-2.0029-.5527-2.9775-1.1538-1.4541-.896-2.3442-1.9946-2.7212-3.3579-.3931-1.4194-.3042-2.7271.2646-3.8857.9365-1.9116,2.7212-3.1318,4.9908-3.3579.9805-.0977,2.4294.078,3.3605.3661,1.186.3672,2.1942,1.0394,3.0409,1.8914.4541.4575,1.418,1.5908,2.0557,2.3408l.3291.3862c.2871.335.3154.7817.0752,1.1665-.2456.3931-.6782.5513-1.1006.4019-.1914-.0674-.3735-.1997-.5576-.4043-.1455-.1611-.4165-.4775-.7168-.8281-.4595-.5361-.9878-1.1548-1.2202-1.3931-.73-.7485-1.3832-1.3622-2.1054-1.6322-1.2798-.4795-3.0544-.6211-4.2429-.1607-1.4014.543-2.2598,1.7663-2.3912,3.1759-.1201,1.2866.3164,2.3208,1.335,3.1616.7783.6426,1.7358,1.0732,2.9282,1.3169.6533.1328,1.1519.3486,1.5684.6792.9805.7788,1.229,2.0288.6343,3.1841-.1274.2461-.2837.4717-.4424.6875.5552.2236,1.0229.5615,1.3984,1.0088.1812-.25.3037-.5264.3774-.8447.1353-.5879.1157-1.2041-.061-1.8828-.0752-.29-.0371-.5825.1084-.8228.1382-.228.3599-.3872.6245-.4487.5161-.1187,1.0327.2202,1.1802.7725.0645.2441.1274.4883.1641.7363.1284.8809.0527,1.7412-.2251,2.5557-.3301.9678-1.0063,1.7627-2.0684,2.4307-.5483.3447-.8779.7695-1.0083,1.2988-.1489.6064.0312,1.0176.5356,1.2236.125.0498.2871.0752.459.1016l.2314.0381c.5938.1094.9448.5332.894,1.0801-.0479.5195-.4854.8809-1.0659.8809Z"/>
        <path class="cls-1" d="M33.9613,41.4553c-.6239-.1117-1.2191-.389-1.6935-.8698-.6497-.66-.8913-1.4157-.717-2.2446.1851-.8836.76-1.5068,1.663-1.8014.3096-.1003.649-.0455.9086.1558.2582.198.4016.5105.3842.8347-.032.5995-.5308.8196-.7442.9144-.169.0739-.2741.19-.2955.3261s.0436.2826.1796.4042c.3728.3337.8172.4391,1.3545.325.7582-.1618,1.1997-.5332,1.35-1.1342.2948-1.1863-.0035-2.1019-.9119-2.7964-.3848-.2941-.7796-.5772-1.1744-.8602-.3631-.2605-.7263-.52-1.0819-.7891-.7507-.567-1.3046-1.1603-1.6938-1.8124-.282-.4751-.1825-1.0417.2369-1.3475.4515-.3303,1.006-.238,1.378.2275.0591.0746.1139.1504.1697.2268.0629.0867.1247.1736.1946.2541.0116.0125.0223.0253.0339.0378.2811-.6942.6996-1.2969,1.2647-1.8207-.5193-.3574-.9545-.8248-1.3257-1.422-.2819-.4533-.1686-1.003.2697-1.3064.43-.296.9512-.2314,1.3023.1569.058.064.1104.1368.1618.21l.0628.0871c.5441.7121,1.2208,1.0828,2.0158,1.1032.2981.0083.6534-.064,1.0564-.2151,1.3538-.507,2.5004-.5666,3.6155-.1897,1.112.3773,1.8588,1.0879,2.2191,2.1118.3332.9481.3007,1.9215-.0936,2.8931-.4339,1.0711-1.1326,1.8091-2.0744,2.193-1.0635.4316-2.1699.3276-3.286-.3039-.5377-.3047-.9475-.8473-1.1215-1.4876-.1729-.6352-.0985-1.2999.2045-1.8231.2479-.4313.7502-.6266,1.199-.4514.4505.171.7056.6468.606,1.1309-.0126.0647-.034.1288-.0554.193-.1252.4994.0442.6171.1175.6679.4943.3475,1.0006.4401,1.5039.2724.6695-.2204,1.1745-.9682,1.2286-1.8187.0628-.9878-.3481-1.3357-.6628-1.5116-.6799-.3807-1.4235-.444-2.21-.1905l-.1485.0478c-.6202.2004-1.2626.4078-1.9298.4991-1.1351.1558-2.1445,1.2216-2.2511,2.3762.1857.1265.3763.2589.5543.4059.1471.1206.2966.2386.4468.3578.4094.3233.8335.6583,1.2124,1.0466.6709.6857,1.0081,1.6112,1.029,2.8293.0264,1.4919-.5533,2.6292-1.7239,3.3818-.7453.4776-1.769.6981-2.7283.5262Z"/>
      </g>
    </g>
    <g id="Tonne_Outline">
      <path class="cls-3" d="M45.2305,53.165c-3.8174,0-7.9258-1.3691-7.9258-4.375v-10.1797c0-.0566,0-.1572.0186-.2832.2598-2.8115,4.2646-4.0928,7.9072-4.0928,3.6475,0,7.6562,1.2812,7.916,4.0928.0186.126.0186.2266.0186.2832v10.1797c0,3.0059-4.1133,4.375-7.9346,4.375Z"/>
    </g>
    <g id="Tonne">
      <path class="cls-1" d="M51.88,38.49c-.13-1.93-3.48-2.98-6.65-2.98-3.16,0-6.51,1.05-6.64,2.98-.01.04-.01.08-.01.12v10.18c0,2.01,3.43,3.1,6.65,3.1,3.23,0,6.66-1.09,6.66-3.1v-10.18c0-.04,0-.08-.01-.12ZM50.64,48.79c0,.75-2.11,1.85-5.41,1.85s-5.4-1.1-5.4-1.85v-1.43c.97.54,2.66,1.13,5.4,1.13,2.77,0,4.45-.58,5.41-1.12v1.42ZM50.64,45.85c-.42.36-1.9,1.39-5.41,1.39-3.48,0-4.97-1.01-5.4-1.38v-1.89c.97.54,2.66,1.13,5.4,1.13,2.77,0,4.45-.58,5.41-1.12v1.87ZM50.64,42.46c-.42.36-1.9,1.39-5.41,1.39-3.48,0-4.97-1.01-5.4-1.38v-2c1.28.82,3.38,1.25,5.4,1.25s4.13-.43,5.41-1.25v1.99ZM45.23,40.47c-3.3,0-5.4-1.1-5.4-1.86,0-.75,2.1-1.85,5.4-1.85s5.41,1.1,5.41,1.85c0,.76-2.11,1.86-5.41,1.86Z"/>
    </g>
  </g>
</svg>