<?xml version="1.0" encoding="UTF-8"?>
<svg xmlns="http://www.w3.org/2000/svg" version="1.1" viewBox="0 0 62.3622 62.3622">
  <defs>
    <style>
      .cls-1 {
        fill: #fff;
      }

      .cls-2 {
        fill: #fefefe;
      }

      .cls-3 {
        fill: #da291c;
      }
    </style>
  </defs>
  <!-- Generator: Adobe Illustrator 28.6.0, SVG Export Plug-In . SVG Version: 1.2.0 Build 709)  -->
  <g>
    <g id="Hintergrund">
      <path class="cls-3" d="M31.3149,62.3639C13.4828,62.3639,0,47.5921,0,31.3164,0,12.6345,15.5571.0017,31.0807.0017,49.6823.0017,62.3622,15.3416,62.3622,30.9488c0,19.0495-15.6575,31.415-31.0473,31.415h0Z"/>
    </g>
    <g id="ICON">
      <g>
        <circle class="cls-3" cx="31.1811" cy="31.1811" r="19.3465"/>
        <path class="cls-2" d="M31.1811,11.8346c10.6848,0,19.3465,8.6617,19.3465,19.3465s-8.6617,19.3465-19.3465,19.3465-19.3465-8.6617-19.3465-19.3465S20.4964,11.8346,31.1811,11.8346M31.1811,10.5846c-11.3569,0-20.5965,9.2395-20.5965,20.5965s9.2395,20.5965,20.5965,20.5965,20.5965-9.2395,20.5965-20.5965-9.2395-20.5965-20.5965-20.5965h0Z"/>
      </g>
      <g>
        <path class="cls-1" d="M38.0293,33.6699c-.3408,0-.6738-.1748-.8604-.4893-.2822-.4746-.126-1.0889.3486-1.3706,2.248-1.3354,3.7686-3.1475,4.5176-5.3857.1924-.5747.083-1.1597-.333-1.7876-.7314-1.1035-1.502-2.1929-2.291-3.2383-.4209-.5586-.9033-.6812-1.6035-.4131l-.2051.0757c-.1367.0493-.2754.0962-.4023.1631-1.499.793-2.9258.6416-4.0029.4199-1.7246-.3564-3.3408-.3218-4.8027.1001-.521.1514-1.144.1343-1.853-.0498-.4463-.1157-.8848-.2607-1.3232-.4062-.4966-.1646-.9658-.3208-1.436-.4272-.0781-.0161-.3169-.0728-.6523.3755l-.6641.8779c-.6138.8081-1.228,1.6167-1.8066,2.4502-.4629.667-.5459,1.3828-.2529,2.188.6777,1.8652,1.9546,3.4312,4.0176,4.9282.4468.3242.5464.9502.2222,1.3965-.3242.4473-.9497.5479-1.397.2227-2.3682-1.7188-3.9131-3.6367-4.7227-5.8638-.5161-1.4194-.3467-2.8071.4902-4.0122.5942-.8564,1.2251-1.688,1.8564-2.519l.6572-.8696c.7075-.9419,1.6904-1.3516,2.6934-1.125.5659.1284,1.1045.3071,1.625.48.396.1313.7925.2637,1.1953.3687.498.1289.7334.0815.7944.0645,1.7778-.5142,3.7163-.561,5.7632-.1382,1.1416.2363,1.9131.1685,2.6641-.229.209-.1108.4326-.1948.6572-.2759l.1729-.0635c1.5273-.583,2.9541-.1914,3.9111,1.0771.8135,1.0776,1.6084,2.2007,2.3623,3.3379.7568,1.1426.9521,2.3623.5625,3.5269-.9062,2.7065-2.7207,4.8833-5.3926,6.4707-.1602.0957-.3359.1406-.5098.1406Z"/>
        <path class="cls-1" d="M29.8203,43.5127h-.0566c-1.2822-.0205-2.4888-.7061-3.2271-1.834-.3555-.5439-.4785-.8779-.5229-1.0781-.1255-.3555-.3252-1.0781.2178-1.6416.541-.5615,1.3955-.5156,2.5059-.2041.1177-.5996.1465-1.623.0698-1.9678-.2314-.6699-.4009-.8662-.8105-1.3408-.1387-.1611-.2939-.3408-.4717-.5625-.7061-.8613-.7412-1.8193-.7666-2.5195-.0098-.2656-.0186-.5171-.063-.6792l-.0322-.1714c-.0439-.3384-.1675-.8599-.5083-1.4233-.9272-1.5342-.9819-2.6729-.9019-3.2905-.1924-.2539-.2603-.5952-.1519-.9204.1743-.5234.7397-.8086,1.2651-.6323.7261.2422,1.1201,1.0298.8779,1.7563h0c.001,0-.1768.731.6226,2.0527.4912.813.689,1.5811.7671,2.1089l.0161.0938c.0825.3511.0947.6973.1069,1.0332.0225.6104.0498,1.001.3213,1.332.1665.208.3071.3701.4326.5146.4648.5391.832.9639,1.2002,2.0391.187.5479.3281,3.3447-.6294,4.3135-.3726.377-.8906.5039-1.3853.3428-.1465-.0488-.2783-.0889-.3965-.123.3755.4961.9243.793,1.4951.8018.3853-.0029.9741-.1289,1.4492-.8076.2764-.459.6675-2.877.8145-3.7871.0664-.4121.1221-.751.1621-.958.1562-.7881.6348-1.3389.9834-1.7402.0801-.0928.1582-.1797.2217-.2646.1357-.2676.3086-.6572.3926-1.1221.0283-.1514.0205-.3086.0195-.4844-.001-.1729-.002-.3564.0088-.5547l-.0029-.0171.0127-.1543c.0176-.209.2549-1.519.8867-2.5664.8037-1.3291.6211-2.061.6191-2.0684-.2363-.7119.1572-1.4985.8809-1.7402.5293-.1768,1.0908.1084,1.2656.6313.1084.3252.041.6665-.1514.9209.0801.6172.0264,1.7559-.9023,3.2905-.3623.6016-.5596,1.437-.6035,1.6821l-.0039.0586c-.0127.1826-.0107.3506-.0098.5059.002.2725.0029.5557-.0518.8535-.1035.5762-.3057,1.1484-.6172,1.749l-.0674.1123c-.1064.1533-.2422.3115-.3867.4795-.2354.2705-.4795.5508-.5322.8164-.0371.1904-.0879.5068-.1494.8887-.4141,2.5635-.7061,3.9805-1.1504,4.6152-.7402,1.0586-1.854,1.6611-3.0625,1.6611ZM35.8477,31.7935c0,.002-.001.0044-.001.0068,0-.0005.001-.0029.001-.0068ZM25.3457,26.373c-.0005.0015-.001.0029-.001.0044,0-.0015.0005-.0029.001-.0044Z"/>
      </g>
    </g>
    <g id="Tonne_Outline">
      <path class="cls-3" d="M45.2305,53.165c-3.8174,0-7.9258-1.3691-7.9258-4.375v-10.1797c0-.0566,0-.1572.0186-.2832.2598-2.8115,4.2646-4.0928,7.9072-4.0928,3.6475,0,7.6562,1.2812,7.916,4.0928.0186.126.0186.2266.0186.2832v10.1797c0,3.0059-4.1133,4.375-7.9346,4.375Z"/>
    </g>
    <g id="Tonne">
      <path class="cls-1" d="M51.88,38.49c-.13-1.93-3.48-2.98-6.65-2.98-3.16,0-6.51,1.05-6.64,2.98-.01.04-.01.08-.01.12v10.18c0,2.01,3.43,3.1,6.65,3.1,3.23,0,6.66-1.09,6.66-3.1v-10.18c0-.04,0-.08-.01-.12ZM50.64,48.79c0,.75-2.11,1.85-5.41,1.85s-5.4-1.1-5.4-1.85v-1.43c.97.54,2.66,1.13,5.4,1.13,2.77,0,4.45-.58,5.41-1.12v1.42ZM50.64,45.85c-.42.36-1.9,1.39-5.41,1.39-3.48,0-4.97-1.01-5.4-1.38v-1.89c.97.54,2.66,1.13,5.4,1.13,2.77,0,4.45-.58,5.41-1.12v1.87ZM50.64,42.46c-.42.36-1.9,1.39-5.41,1.39-3.48,0-4.97-1.01-5.4-1.38v-2c1.28.82,3.38,1.25,5.4,1.25s4.13-.43,5.41-1.25v1.99ZM45.23,40.47c-3.3,0-5.4-1.1-5.4-1.86,0-.75,2.1-1.85,5.4-1.85s5.41,1.1,5.41,1.85c0,.76-2.11,1.86-5.41,1.86Z"/>
    </g>
  </g>
</svg>