<?xml version="1.0" encoding="UTF-8"?>
<svg xmlns="http://www.w3.org/2000/svg" version="1.1" viewBox="0 0 62.3622 62.3622">
  <defs>
    <style>
      .cls-1 {
        fill: #fff;
      }

      .cls-2 {
        fill: #da291c;
      }
    </style>
  </defs>
  <!-- Generator: Adobe Illustrator 28.6.0, SVG Export Plug-In . SVG Version: 1.2.0 Build 709)  -->
  <g>
    <g id="Ebene_2">
      <path class="cls-2" d="M31.3149,62.3622C13.4828,62.3622,0,47.5904,0,31.3148,0,12.6329,15.5571,0,31.0807,0,49.6823,0,62.3622,15.3399,62.3622,30.9472c0,19.0495-15.6575,31.415-31.0473,31.415h0Z"/>
      <path class="cls-1" d="M38.7812,50.5999h-15.2002c-1.1426,0-2.2139-.5117-2.9399-1.4023l-9.4824-11.8887c-.7236-.9219-.9844-2.0889-.7212-3.21l3.3901-14.8096c.2266-1.1016.9912-2.0659,2.0415-2.5581l13.6753-6.5854c1.0073-.4883,2.2266-.4907,3.2642-.0044l13.6934,6.5942c1.0127.4902,1.7705,1.4424,2.0312,2.5479l3.3916,14.8203c.2617,1.1182.001,2.2842-.7158,3.1982l-9.4814,11.8877c-.7334.8994-1.8047,1.4102-2.9463,1.4102ZM31.1748,11.7761c-.2637,0-.5254.0566-.7607.1704l-13.6865,6.5908c-.4912.2305-.8413.6685-.9458,1.1768l-3.396,14.8359c-.125.5322,0,1.083.3413,1.5166l9.4712,11.875c.3384.416.8442.6582,1.3828.6582h15.2002c.5381,0,1.0439-.2432,1.3887-.666l9.4697-11.873c.3359-.4277.4609-.9785.3369-1.5049l-.001-.0059-3.3906-14.8145c-.1221-.5195-.4785-.9697-.9521-1.1992l-13.6831-6.5889c-.2432-.1138-.5103-.1714-.7749-.1714Z"/>
      <path class="cls-1" d="M36.333,43.2366h-.0107l-1.2891-.0137c-.4688-.0039-.9131-.2568-1.1572-.6602l-1.8164-3.0166c-.375-.6797-1.395-.6582-1.7427-.0225l-1.8511,3.0244c-.2471.4043-.6782.6484-1.1528.6543l-1.291.0127c-.4248.0107-.8359-.1934-1.0977-.5322l-.7988-1.0342c-.2905-.376-.3652-.8662-.2002-1.3115l1.2173-3.2979c.1553-.3643.106-.7324-.1206-1.0166-.2271-.2842-.5796-.4111-.9385-.3496l-3.5161.4551c-.4727.0596-.9346-.1221-1.2358-.4912l-.8208-1.0039c-.2715-.332-.3721-.7783-.2695-1.1943l.3145-1.2715c.1143-.459.4497-.8218.8984-.9707l3.3359-1.1055c.3804-.1118.6426-.3916.7217-.7539.0767-.3506-.0352-.687-.3071-.9233l-2.5503-2.4546c-.3447-.333-.4893-.8096-.3882-1.2764l.2734-1.2637c.0898-.415.3735-.7705.7583-.9507l1.1733-.5474c.4268-.1987.938-.1621,1.3325.0977l2.9185,1.9272c.3115.2212.6812.2534,1.0083.0972.3369-.1597.5527-.478.5776-.8516l.3384-3.521c.0444-.4678.3345-.8877.7559-1.0962l1.1621-.5742c.3804-.1875.8325-.188,1.2129-.0005l1.1631.5752c.4209.2075.71.6279.7549,1.0967l.3379,3.501c.0205.3984.2197.7031.5508.8647.333.1646.7148.1338,1.0215-.0815l2.958-1.9224c.4004-.2588.8955-.292,1.3252-.0933l1.1758.5488c.3848.1802.668.5352.7588.9497l.2744,1.2651c.1006.4668-.0439.9438-.3877,1.2759l-2.5283,2.4336c-.2949.2573-.4092.6089-.3281.9619.0811.3589.3389.6309.6885.7271l3.3662,1.1152c.4492.1484.7852.5117.8984.9707l.3135,1.2661c.1035.4199.001.8701-.2734,1.2031l-.8398,1.0088c-.3027.3643-.7666.5439-1.2295.4834l-3.4863-.4502c-.3906-.0654-.75.0713-.9785.3623-.2217.2832-.2676.6367-.125.9697l1.2295,3.3262c.165.4463.0898.9365-.2012,1.3125l-.7988,1.0332c-.2578.335-.6621.5332-1.084.5332ZM31.1812,37.7669c.8315,0,1.5649.4326,1.9614,1.1572l1.8027,2.9922c.0205.0342.0596.0566.0996.0566l1.2891.0137c-.0029-.0107.0703-.0166.0947-.0469l.7988-1.0342c.0254-.0332.0312-.0762.0166-.1152l-1.2168-3.2959c-.3115-.7256-.2031-1.5605.3018-2.2041.5078-.6455,1.3281-.9668,2.1445-.8271l3.4648.4463c.0391.0088.0811-.0107.1074-.042l.8379-1.0068c.0234-.0283.0322-.0684.0225-.1064l-.3125-1.2656c-.0098-.04-.0391-.0718-.0781-.0845l-3.3359-1.106c-.7588-.208-1.3633-.8423-1.5459-1.646-.1836-.8096.0791-1.6172.7041-2.1606l2.5039-2.4116c.0293-.0288.043-.0703.0342-.1113l-.2744-1.2637c-.0078-.0361-.0322-.0669-.0664-.0835l-1.1748-.5479c-.0371-.0166-.082-.0127-.1162.0088l-2.9395,1.9092c-.668.4678-1.5225.5361-2.2705.1685-.7402-.3628-1.207-1.0718-1.2471-1.8965l-.3359-3.4727c-.0039-.0415-.0283-.0776-.0645-.0952l-1.1626-.5752c-.0332-.0156-.0723-.0161-.1064.0005l-1.1616.5742c-.0366.0181-.0615.0547-.0654.0947l-.3369,3.5029c-.0532.8135-.5352,1.5234-1.2881,1.8804-.7432.353-1.5854.2783-2.251-.1968l-2.8989-1.9141c-.0332-.022-.0776-.0249-.1162-.0083l-1.1724.5469c-.0337.0156-.0581.0464-.0659.083l-.2734,1.2642c-.0088.0405.0039.082.0342.1113l2.5264,2.4326c.5947.5161.8594,1.3135.6846,2.1123-.1758.8037-.7773,1.4473-1.5703,1.6797l-3.3149,1.0991c-.0391.0127-.0684.0449-.0786.085l-.314,1.2705c-.0093.0361-.0005.0742.0234.1035l.8213,1.0039c.0264.0312.0664.0498.1069.042l3.4839-.4492c.7808-.1426,1.5967.1641,2.1084.8047.5107.6396.6274,1.5059.3042,2.2588l-1.2056,3.2686c-.0142.0381-.0078.082.0171.1143l.7988,1.0342c.0229.0283.0566.0488.0942.0459l1.2915-.0127c.041,0,.0786-.0215.1001-.0566l1.8359-2.998c.3813-.6982,1.1143-1.1309,1.9458-1.1309Z"/>
    </g>
  </g>
</svg>