<?xml version="1.0" encoding="UTF-8"?>
<svg xmlns="http://www.w3.org/2000/svg" version="1.1" viewBox="0 0 62.3622 62.3622">
  <defs>
    <style>
      .cls-1 {
        fill: #fff;
      }

      .cls-2 {
        fill: #da291c;
      }
    </style>
  </defs>
  <!-- Generator: Adobe Illustrator 28.6.0, SVG Export Plug-In . SVG Version: 1.2.0 Build 709)  -->
  <g>
    <g id="Ebene_3">
      <path class="cls-2" d="M31.3149,62.3622C13.4828,62.3622,0,47.5905,0,31.3148,0,12.6329,15.5571,0,31.0807,0c18.6016,0,31.2815,15.3399,31.2815,30.9472,0,19.0495-15.6575,31.415-31.0473,31.415h0Z"/>
    </g>
    <g id="Ebene_2">
      <path class="cls-1" d="M45.7558,19.312c0-4.8496-11.1562-5.2266-14.5752-5.2266s-14.5742.377-14.5742,5.2266c0,.1805.0201.3528.05.5211l3.5828,23.2128s.0469.3115.1084.4854c.0459.1338.0957.2344.1318.3018,1.3848,2.7305,7.9395,3.0264,10.7012,3.0264s9.3174-.2959,10.7021-3.0264c.0361-.0674.1669-.392.244-.8158.0746-.4092,3.3589-21.7441,3.5841-23.2069.0273-.1611.0449-.3261.0449-.4983ZM31.1806,16.0855c7.8711,0,12.5752,1.6406,12.5752,3.2266,0,.53-.5367,1.0646-1.5305,1.5435-1.7153-1.0215-5.6677-2.0205-11.0408-2.0205-5.5203,0-9.217,1.0837-10.8983,2.0902-1.09-.4963-1.6798-1.0574-1.6798-1.6132,0-1.5859,4.7031-3.2266,12.5742-3.2266ZM40.598,21.4641c-2.1637.6376-5.3671,1.0735-9.4174,1.0735-3.9544,0-7.1075-.4143-9.2681-1.0273,1.7041-.6902,4.7668-1.4252,9.272-1.4252,4.4199,0,7.6467.6974,9.4135,1.3791ZM40.1734,42.7353c-.0247.0993-.0348.1114-.0719.1876-.3799.7783-3.0703,1.9365-8.9209,1.9365s-8.8166-1.3251-8.9434-1.9805c0,0-.0112-.075-.0222-.1436-.0085-.0529-2.1333-13.8199-3.1124-20.1635,3.4933,1.7784,9.6824,1.9658,12.0779,1.9658,2.3967,0,8.5916-.1876,12.0842-1.9686l-3.0914,20.1663Z"/>
    </g>
  </g>
</svg>