<?xml version="1.0" encoding="UTF-8"?>
<svg xmlns="http://www.w3.org/2000/svg" version="1.1" viewBox="0 0 62.3622 62.3622">
  <defs>
    <style>
      .cls-1 {
        fill: #fff;
      }

      .cls-2 {
        fill: #da291c;
      }
    </style>
  </defs>
  <!-- Generator: Adobe Illustrator 28.6.0, SVG Export Plug-In . SVG Version: 1.2.0 Build 709)  -->
  <g>
    <g id="Ebene_2">
      <path class="cls-2" d="M31.3149,62.3622C13.4828,62.3622,0,47.5905,0,31.3148,0,12.6329,15.5571,0,31.0807,0c18.6016,0,31.2815,15.3399,31.2815,30.9472,0,19.0495-15.6575,31.415-31.0473,31.415h0Z"/>
      <path class="cls-1" d="M31.1357,12.3931c-10.3203,0-18.7163,8.396-18.7163,18.7163s8.396,18.7168,18.7163,18.7168,18.7168-8.3965,18.7168-18.7168-8.3965-18.7163-18.7168-18.7163ZM31.1357,14.3931c4.2794,0,8.1756,1.6301,11.1357,4.2842l-23.5679,23.5679c-2.6541-2.9601-4.2842-6.8564-4.2842-11.1357,0-9.2173,7.499-16.7163,16.7163-16.7163ZM31.1357,47.8262c-4.2196,0-8.0677-1.584-11.0125-4.1725l23.5568-23.5568c2.5886,2.9448,4.1725,6.7929,4.1725,11.0125,0,9.2178-7.499,16.7168-16.7168,16.7168Z"/>
    </g>
  </g>
</svg>