<?xml version="1.0" encoding="UTF-8"?>
<svg xmlns="http://www.w3.org/2000/svg" version="1.1" viewBox="0 0 62.3622 62.3622">
  <defs>
    <style>
      .cls-1 {
        fill: #fff;
      }

      .cls-2 {
        fill: #da291c;
      }
    </style>
  </defs>
  <!-- Generator: Adobe Illustrator 28.6.0, SVG Export Plug-In . SVG Version: 1.2.0 Build 709)  -->
  <g>
    <g id="Ebene_2">
      <path class="cls-2" d="M31.3149,62.3622C13.4828,62.3622,0,47.5905,0,31.3148,0,12.6329,15.5571,0,31.0807,0c18.6016,0,31.2815,15.3399,31.2815,30.9472,0,19.0495-15.6575,31.415-31.0473,31.415h0Z"/>
      <g>
        <path class="cls-1" d="M19.1816,39.1436c-.5522,0-1-.4473-1-1v-13.6553c0-.5522.4478-1,1-1s1,.4478,1,1v13.6553c0,.5527-.4478,1-1,1Z"/>
        <path class="cls-1" d="M23.1816,39.1436c-.5522,0-1-.4473-1-1v-15.1943c0-.5522.4478-1,1-1s1,.4478,1,1v15.1943c0,.5527-.4478,1-1,1Z"/>
        <path class="cls-1" d="M27.1816,39.1436c-.5522,0-1-.4473-1-1v-16.7598c0-.5522.4478-1,1-1s1,.4478,1,1v16.7598c0,.5527-.4478,1-1,1Z"/>
        <path class="cls-1" d="M31.1816,39.1436c-.5522,0-1-.4473-1-1v-15.1895c0-.5522.4478-1,1-1s1,.4478,1,1v15.1895c0,.5527-.4478,1-1,1Z"/>
        <path class="cls-1" d="M35.1816,39.1436c-.5527,0-1-.4473-1-1v-13.6553c0-.5522.4473-1,1-1s1,.4478,1,1v13.6553c0,.5527-.4473,1-1,1Z"/>
        <path class="cls-1" d="M39.1816,39.1436c-.5527,0-1-.4473-1-1v-12.2163c0-.5522.4473-1,1-1s1,.4478,1,1v12.2163c0,.5527-.4473,1-1,1Z"/>
        <path class="cls-1" d="M43.1816,39.1436c-.5527,0-1-.4473-1-1v-13.6553c0-.5522.4473-1,1-1s1,.4478,1,1v13.6553c0,.5527-.4473,1-1,1Z"/>
        <path class="cls-1" d="M47.1816,39.1436c-.5527,0-1-.4473-1-1v-15.1895c0-.5522.4473-1,1-1s1,.4478,1,1v15.1895c0,.5527-.4473,1-1,1Z"/>
        <path class="cls-1" d="M15.1807,39.1436c-.5522,0-1-.4473-1-1v-12.2202c0-.5522.4478-1,1-1s1,.4478,1,1v12.2202c0,.5527-.4478,1-1,1Z"/>
      </g>
    </g>
  </g>
</svg>