<?xml version="1.0" encoding="UTF-8"?>
<svg xmlns="http://www.w3.org/2000/svg" version="1.1" viewBox="0 0 62.3622 62.3622">
  <defs>
    <style>
      .cls-1 {
        fill: #f6fbff;
      }

      .cls-2 {
        fill: #fff;
      }

      .cls-3 {
        fill: #da291c;
      }

      .cls-4 {
        display: none;
        fill: none;
        stroke: #fff;
        stroke-linejoin: round;
        stroke-width: 2px;
      }
    </style>
  </defs>
  <!-- Generator: Adobe Illustrator 28.6.0, SVG Export Plug-In . SVG Version: 1.2.0 Build 709)  -->
  <g>
    <g id="Ebene_2">
      <path class="cls-4" d="M22.4823,21.0253c-.748-.663-.9739-.555-2.052-.555-2.3411,0-4.2388,1.8978-4.2388,4.2389,0,1.7661,1.0806,3.2786,2.6161,3.9158-3.3481.7417-5.8542,3.7236-5.8542,7.2951h4.0817"/>
      <path class="cls-3" d="M31.3149,62.3622C13.4828,62.3622,0,47.5905,0,31.3148,0,12.6329,15.5571,0,31.0807,0c18.6016,0,31.2815,15.3399,31.2815,30.9472,0,19.0495-15.6575,31.415-31.0473,31.415h0Z"/>
      <g>
        <path class="cls-1" d="M43.0114,43.6287h-23.5317c-.5522,0-1-.4473-1-1,0-5.166,3.1855-9.8047,7.8315-11.7656-1.709-1.4312-2.7363-3.562-2.7363-5.8755,0-2.0698.812-4.0098,2.2861-5.4629,1.4736-1.4531,3.418-2.248,5.4976-2.207,4.0903.0596,7.48,3.4355,7.5562,7.5259.043,2.3745-.9854,4.5605-2.7334,6.0205,4.6455,1.9619,7.8301,6.5996,7.8301,11.7646,0,.5527-.4473,1-1,1ZM20.8438,41.6287h20.8039c.1678,0,.3029-.1492.282-.3157-.5576-4.446-3.8964-8.2016-8.347-9.1872-.4268-.0947-.7422-.4546-.7803-.8892-.0381-.4343.2096-.8431.6124-1.0108.7258-.3021,1.3995-.736,1.9173-1.3275,3.7125-4.2407.2874-9.5186-4.0029-9.5806-1.5225-.0205-2.9746.5566-4.0645,1.6313-1.8365,1.8102-2.2823,4.6423-.8093,7.2346.5674.9985,1.5825,1.5896,2.6353,2.0486.3935.1715.6345.5756.5969,1.0045-.0381.4346-.354.7944-.7798.8892-4.4507.9855-7.789,4.7412-8.3461,9.1872-.0209.1665.1142.3157.282.3157Z"/>
        <path class="cls-2" d="M49.9724,38.6717h-2.7188c-.3447,0-.625-.2803-.625-.625s.2803-.625.625-.625h1.7414c.1707,0,.3093-.1528.2853-.3218-.3951-2.7818-2.501-5.1185-5.2962-5.7378-.2666-.0591-.4639-.2842-.4883-.5557-.0234-.2715.1318-.5273.3838-.6318,1.3545-.5625,2.2305-1.873,2.2305-3.3389,0-1.9927-1.6211-3.6138-3.6143-3.6138-.2051,0-.4062.0176-.6006.0518-.335.0591-.6631-.1675-.7227-.5083-.0596-.3398.168-.6636.5078-.7231.2676-.0469.542-.0703.8154-.0703,2.6826,0,4.8643,2.1816,4.8643,4.8638,0,1.4731-.6572,2.8291-1.749,3.7373,2.9644,1.2433,4.9964,4.2042,4.9863,7.4982-.001.3352-.2898.6004-.625.6004Z"/>
        <path class="cls-2" d="M15.1091,38.6717h-2.7192c-.3352,0-.6239-.2652-.625-.6004-.0102-3.294,2.0219-6.2549,4.9868-7.4982-1.0918-.9077-1.7485-2.2642-1.7485-3.7373,0-2.6821,2.1816-4.8638,4.8638-4.8638.2734,0,.5479.0234.8159.0703.3398.0591.5674.3828.5083.7231-.0591.3394-.3804.5649-.7231.5083-.395-.0693-.814-.0704-1.249.005-1.3327.2307-2.4653,1.24-2.8263,2.5435-.5116,1.847.4288,3.6625,2.0915,4.3524.2515.1045.4067.3604.3828.6318s-.2212.4966-.4873.5557c-2.7918.6184-4.8964,2.9487-5.2958,5.7247-.0253.1758.119.3349.2966.3349h1.7287c.3452,0,.625.2803.625.625s-.2798.625-.625.625Z"/>
      </g>
    </g>
  </g>
</svg>