<?xml version="1.0" encoding="UTF-8"?>
<svg xmlns="http://www.w3.org/2000/svg" version="1.1" viewBox="0 0 62.3622 62.3622">
  <defs>
    <style>
      .cls-1 {
        fill: #fff;
      }

      .cls-2 {
        fill: #da291c;
      }
    </style>
  </defs>
  <!-- Generator: Adobe Illustrator 28.6.0, SVG Export Plug-In . SVG Version: 1.2.0 Build 709)  -->
  <g>
    <g id="Ebene_2">
      <path class="cls-2" d="M31.3149,62.3622C13.4828,62.3622,0,47.5905,0,31.3148,0,12.6329,15.5571,0,31.0807,0c18.6016,0,31.2815,15.3399,31.2815,30.9472,0,19.0495-15.6575,31.415-31.0473,31.415h0Z"/>
      <g>
        <path class="cls-1" d="M42.3242,42.8505h-22.2861c-2.7407,0-4.9702-2.2295-4.9702-4.9707v-15.9746c0-2.7407,2.2295-4.9702,4.9702-4.9702h22.2861c2.7402,0,4.9697,2.2295,4.9697,4.9702v15.9746c0,2.7412-2.2295,4.9707-4.9697,4.9707ZM20.0381,18.9349c-1.6377,0-2.9702,1.3325-2.9702,2.9702v15.9746c0,1.6377,1.3325,2.9707,2.9702,2.9707h22.2861c1.6377,0,2.9697-1.333,2.9697-2.9707v-15.9746c0-1.6377-1.332-2.9702-2.9697-2.9702h-22.2861Z"/>
        <path class="cls-1" d="M36.2861,46.8446h-10.21c-.5522,0-1-.4473-1-1s.4478-1,1-1h10.21c.5527,0,1,.4473,1,1s-.4473,1-1,1Z"/>
      </g>
    </g>
  </g>
</svg>