<?xml version="1.0" encoding="UTF-8"?>
<svg xmlns="http://www.w3.org/2000/svg" version="1.1" viewBox="0 0 62.3622 62.3622">
  <defs>
    <style>
      .cls-1 {
        fill: #fff;
      }

      .cls-2 {
        fill: #da291c;
      }

      .cls-3 {
        display: none;
      }
    </style>
  </defs>
  <!-- Generator: Adobe Illustrator 28.6.0, SVG Export Plug-In . SVG Version: 1.2.0 Build 709)  -->
  <g>
    <g id="Ebene_2">
      <path class="cls-2" d="M31.3149,62.3622C13.4828,62.3622,0,47.5905,0,31.3148,0,12.6329,15.5571,0,31.0807,0c18.6016,0,31.2815,15.3399,31.2815,30.9472,0,19.0495-15.6575,31.415-31.0473,31.415h0Z"/>
      <g>
        <g>
          <g>
            <path class="cls-1" d="M24.0059,46.7383c-.2031,0-.499-.0254-.7554-.1455l-5.4775-2.5547c-.3306-.1543-.5249-.4385-.5195-.7598.0039-.2178.1055-.623.7393-.8906.3013-.127.6597-.1963,1.0103-.1963.2021,0,.4966.0254.7529.1436l5.4785,2.5557c.3315.1553.5254.4395.5195.7617-.0039.2168-.1055.6221-.7393.8896-.3008.127-.6587.1963-1.0088.1963Z"/>
            <path class="cls-2" d="M19.0023,42.7866c.1951,0,.3742.0291.5024.0889l5.4784,2.5546c.2981.139.2084.3914-.2003.5637-.2329.0982-.5192.1492-.7775.1492-.1951,0-.3742-.0291-.5024-.0889l-5.4784-2.5546c-.2981-.139-.2084-.3914.2003-.5637.2329-.0982.5192-.1492.7775-.1492M19.0024,41.5966h0c-.4284,0-.8687.0862-1.2398.2426-.9799.4131-1.0983,1.1356-1.1038,1.4271-.0104.5561.3202,1.0587.8628,1.3117l5.4784,2.5546c.2851.1329.6233.2004,1.0053.2004.4283,0,.8686-.0862,1.2398-.2426.9799-.4131,1.0983-1.1356,1.1038-1.4271.0104-.5561-.3202-1.0587-.8628-1.3117l-5.4784-2.5546c-.2851-.1329-.6233-.2004-1.0052-.2004h0Z"/>
          </g>
          <g>
            <path class="cls-2" d="M31.7837,47.4824c-.4653,0-.9146-.1006-1.3359-.2969l-14.0337-6.5439c-.394-.1836-.624-.5527-.6162-.9863.0083-.4346.252-.7949.6523-.9639l14.3579-6.0537c.3398-.1426.6987-.2148,1.0674-.2148.3989,0,.8003.0889,1.1606.2568l14.2002,6.6221c.3936.1836.624.5518.6162.9863s-.252.7949-.6523.9639l-14.1885,5.9824c-.3906.1641-.8037.248-1.228.248Z"/>
            <path class="cls-2" d="M31.8759,33.0176h0c.3165,0,.6226.0679.9096.2017l14.1998,6.6215c.242.1129.2746.322.2724.4366-.0021.1146-.0425.3223-.2885.4261l-14.1888,5.9819c-.3173.1338-.6528.2016-.9971.2016-.3776,0-.7426-.0809-1.0848-.2405l-14.0332-6.5438c-.242-.1129-.2746-.322-.2724-.4366.0021-.1146.0425-.3223.2885-.4261l14.3581-6.0533c.2661-.1122.5475-.1691.8364-.1691M31.8757,31.8276c-.4412,0-.883.0874-1.2985.2625l-14.3581,6.0533c-1.3278.5598-1.3627,2.4287-.0567,3.0377l14.0332,6.5438c.5027.2344,1.0449.352,1.5877.352.4959,0,.9924-.0982,1.4594-.2951l14.1888-5.9819c1.3278-.5598,1.3627-2.4287.0567-3.0377l-14.1998-6.6215c-.4473-.2086-.9297-.3132-1.4127-.3132h0Z"/>
          </g>
          <path class="cls-1" d="M31.8759,31.8868c.3077,0,.6052.066.8842.1961l14.1998,6.6215c.2113.0985.2397.281.2378.3811-.0019.1-.0371.2814-.2519.3719l-14.1887,5.9819c-.3099.1306-.6375.1969-.9738.1969-.3688,0-.7252-.079-1.0594-.2349l-14.0332-6.5438c-.2112-.0985-.2397-.2811-.2378-.3811.0019-.1.0371-.2814.2519-.3719l14.3581-6.0533c.2586-.109.5322-.1643.8131-.1644M31.8757,30.6368c-.4412,0-.883.0874-1.2985.2625l-14.3581,6.0533c-1.3278.5598-1.3627,2.4287-.0567,3.0377l14.0332,6.5438c.5027.2344,1.0449.352,1.5877.352.4959,0,.9924-.0982,1.4594-.2951l14.1888-5.9819c1.3278-.5598,1.3627-2.4287.0567-3.0377l-14.1998-6.6215c-.4473-.2086-.9297-.3132-1.4127-.3132h0Z"/>
          <g class="cls-3">
            <path class="cls-1" d="M30.9416,44.3755l-12.1879-5.6833c-.2653-.1237-.2582-.5033.0115-.617l12.4566-5.2516c.4026-.1697.8581-.1612,1.2541.0234l12.3077,5.7392c.2653.1237.2582.5033-.0115.617l-12.3348,5.2003c-.4801.2024-1.0234.1923-1.4956-.0279Z"/>
          </g>
        </g>
        <g>
          <g>
            <path class="cls-1" d="M23.6685,37.96c-.2026,0-.4976-.0244-.7539-.1445l-5.479-2.5547c-.3311-.1543-.5254-.4385-.519-.7607.0039-.2178.1055-.623.7407-.8906.2979-.126.6562-.1953,1.0073-.1953.2021,0,.4971.0244.7539.1436l5.479,2.5557c.3311.1543.5254.4385.519.7607-.0039.2178-.1055.623-.7407.8906-.2979.126-.6562.1953-1.0073.1953Z"/>
            <path class="cls-2" d="M18.665,34.009c.1951,0,.3742.0291.5024.0889l5.4784,2.5546c.2981.139.2084.3914-.2003.5637-.2329.0982-.5192.1492-.7775.1492-.1951,0-.3742-.0291-.5024-.0889l-5.4784-2.5546c-.2981-.139-.2084-.3914.2003-.5637.2329-.0982.5192-.1492.7775-.1492M18.6651,32.819h0c-.4284,0-.8687.0862-1.2398.2426-.9799.4131-1.0983,1.1356-1.1038,1.4271-.0104.5561.3202,1.0587.8628,1.3117l5.4784,2.5546c.2851.1329.6233.2004,1.0053.2004.4283,0,.8686-.0862,1.2398-.2426.9799-.4132,1.0983-1.1356,1.1038-1.4271.0104-.5561-.3202-1.0587-.8628-1.3117l-5.4784-2.5546c-.2851-.1329-.6233-.2004-1.0052-.2004h0Z"/>
          </g>
          <g>
            <path class="cls-2" d="M31.4463,38.7041c-.4648,0-.9146-.0996-1.3364-.2959l-14.0332-6.5439c-.3936-.1836-.624-.5527-.6157-.9868.0078-.4346.252-.7944.6523-.9634l14.3574-6.0532c.3398-.1431.6992-.2158,1.0679-.2158.4038,0,.7944.0864,1.1606.2573l14.2002,6.6211c.3936.1841.624.5532.6162.9878-.0088.4341-.2529.7944-.6533.9634l-14.1885,5.9814c-.3906.165-.8032.248-1.2275.248Z"/>
            <path class="cls-2" d="M31.5386,24.2399h0c.3166,0,.6226.0679.9096.2017l14.1998,6.6215c.242.1129.2746.322.2724.4366-.0021.1146-.0425.3224-.2885.4261l-14.1888,5.9819c-.3173.1338-.6528.2016-.9971.2016-.3776,0-.7426-.0809-1.0848-.2405l-14.0332-6.5438c-.242-.1129-.2746-.322-.2724-.4366.0021-.1146.0425-.3224.2885-.4261l14.3581-6.0533c.2661-.1122.5475-.1691.8364-.1691M31.5384,23.0499c-.4412,0-.883.0874-1.2985.2625l-14.3581,6.0533c-1.3278.5598-1.3627,2.4287-.0567,3.0377l14.0332,6.5438c.5027.2344,1.0449.352,1.5877.352.4959,0,.9924-.0982,1.4594-.2951l14.1888-5.9819c1.3278-.5598,1.3627-2.4287.0567-3.0377l-14.1998-6.6215c-.4473-.2086-.9297-.3132-1.4127-.3132h0Z"/>
          </g>
          <path class="cls-1" d="M31.5386,23.1092c.3077,0,.6052.066.8842.1961l14.1998,6.6215c.2113.0985.2397.281.2378.3811-.0019.1-.0371.2814-.2519.3719l-14.1888,5.9819c-.3099.1306-.6375.1969-.9738.1969-.3688,0-.7252-.079-1.0594-.2349l-14.0332-6.5438c-.2112-.0985-.2397-.281-.2378-.3811.0019-.1.0371-.2814.2519-.3719l14.3581-6.0533c.2586-.109.5322-.1643.8131-.1644M31.5384,21.8592c-.4412,0-.883.0874-1.2985.2625l-14.3581,6.0533c-1.3278.5598-1.3627,2.4287-.0567,3.0377l14.0332,6.5438c.5027.2344,1.0449.352,1.5877.352.4959,0,.9924-.0982,1.4594-.2951l14.1888-5.9819c1.3278-.5598,1.3627-2.4287.0567-3.0377l-14.1998-6.6215c-.4473-.2086-.9297-.3132-1.4127-.3132h0Z"/>
          <g class="cls-3">
            <path class="cls-1" d="M30.5476,35.6545l-12.1879-5.6833c-.2653-.1237-.2582-.5033.0115-.617l12.4566-5.2516c.4026-.1697.8581-.1612,1.2541.0234l12.3077,5.7392c.2653.1237.2582.5033-.0115.617l-12.3348,5.2003c-.4801.2024-1.0234.1923-1.4956-.0279Z"/>
          </g>
        </g>
        <g>
          <g>
            <path class="cls-1" d="M23.3306,29.1826c-.2021,0-.4971-.0249-.7534-.144l-5.479-2.5552c-.3315-.1548-.5254-.4395-.519-.7612.0039-.2178.1055-.6226.7397-.8901.2998-.126.6577-.1958,1.0083-.1958.2026,0,.4985.0254.7549.145l5.478,2.5547c.3311.1538.5249.4385.519.7607-.0039.2173-.1055.6226-.7397.8901-.2998.1265-.6582.1958-1.0088.1958Z"/>
            <path class="cls-2" d="M18.3277,25.2313c.1951,0,.3742.0291.5024.0889l5.4784,2.5546c.2981.139.2084.3914-.2003.5637-.2329.0982-.5192.1492-.7775.1492-.1951,0-.3742-.0291-.5024-.0889l-5.4784-2.5546c-.2981-.139-.2084-.3914.2003-.5637.2329-.0982.5192-.1492.7775-.1492M18.3278,24.0413h0c-.4284,0-.8687.0862-1.2398.2426-.9799.4131-1.0983,1.1356-1.1038,1.4271-.0104.5561.3202,1.0587.8628,1.3117l5.4784,2.5546c.2851.1329.6233.2004,1.0053.2004.4283,0,.8686-.0862,1.2398-.2427.9799-.4131,1.0983-1.1356,1.1038-1.4271.0104-.5561-.3202-1.0587-.8628-1.3117l-5.4784-2.5546c-.2851-.1329-.6233-.2004-1.0052-.2004h0Z"/>
          </g>
          <g>
            <path class="cls-2" d="M31.1089,29.9263c-.4653,0-.915-.0996-1.3364-.2959l-14.0332-6.5435c-.394-.1836-.624-.5527-.6157-.9868.0078-.4346.252-.7949.6519-.9634l14.3579-6.0537c.3398-.1431.6987-.2158,1.0674-.2158.3984,0,.8003.0894,1.1606.2573l14.2012,6.6216c.3936.1841.624.5527.6152.9878-.0078.4341-.252.7939-.6523.9624l-14.1885,5.9819c-.3906.1646-.8042.248-1.228.248Z"/>
            <path class="cls-2" d="M31.2013,15.4623h0c.3165,0,.6226.0679.9096.2017l14.1998,6.6215c.242.1129.2746.322.2724.4366-.0021.1146-.0425.3224-.2885.4261l-14.1888,5.9819c-.3173.1338-.6528.2016-.9971.2016-.3776,0-.7426-.0809-1.0848-.2405l-14.0332-6.5438c-.242-.1129-.2746-.322-.2724-.4366.0021-.1146.0425-.3224.2885-.4261l14.3581-6.0533c.2661-.1122.5475-.1691.8364-.1691M31.2011,14.2723c-.4412,0-.883.0874-1.2985.2625l-14.3581,6.0533c-1.3278.5598-1.3627,2.4287-.0567,3.0377l14.0332,6.5438c.5027.2344,1.0449.352,1.5877.352.4959,0,.9924-.0982,1.4594-.2951l14.1888-5.9819c1.3278-.5598,1.3627-2.4287.0567-3.0377l-14.1998-6.6215c-.4473-.2086-.9297-.3132-1.4127-.3132h0Z"/>
          </g>
          <path class="cls-1" d="M31.2013,14.3316c.3077,0,.6052.066.8842.1961l14.1998,6.6215c.2113.0985.2397.281.2378.3811-.0019.1-.0371.2814-.2519.3719l-14.1888,5.9819c-.3099.1306-.6375.1969-.9738.1969-.3688,0-.7252-.079-1.0594-.2349l-14.0332-6.5438c-.2112-.0985-.2397-.281-.2378-.3811.0019-.1.0371-.2814.2519-.3719l14.3581-6.0533c.2586-.109.5322-.1643.8131-.1644M31.2011,13.0816c-.4412,0-.883.0874-1.2985.2625l-14.3581,6.0533c-1.3278.5598-1.3627,2.4287-.0567,3.0377l14.0332,6.5438c.5027.2344,1.0449.352,1.5877.352.4959,0,.9924-.0982,1.4594-.2951l14.1888-5.9819c1.3278-.5598,1.3627-2.4287.0567-3.0377l-14.1998-6.6215c-.4473-.2086-.9297-.3132-1.4127-.3132h0Z"/>
          <g class="cls-3">
            <path class="cls-1" d="M30.2669,26.8769l-12.1879-5.6833c-.2653-.1237-.2582-.5033.0115-.617l12.4566-5.2516c.4026-.1697.8581-.1612,1.2541.0234l12.3077,5.7392c.2653.1237.2582.5033-.0115.617l-12.3348,5.2003c-.4801.2024-1.0234.1923-1.4956-.0279Z"/>
          </g>
        </g>
      </g>
    </g>
  </g>
</svg>