<svg xmlns="http://www.w3.org/2000/svg" viewBox="0 0 62.362 62.362"><path d="M31.315 62.362C13.483 62.362 0 47.59 0 31.315 0 12.633 15.557 0 31.08 0c18.602 0 31.282 15.34 31.282 30.947 0 19.05-15.657 31.415-31.047 31.415" style="fill:none"/><path d="m47.488 37.571-5.367-2.448-1.497.627 6.336 2.954c.211.099.24.281.238.382a.39.39 0 0 1-.252.371L32.757 45.44a2.5 2.5 0 0 1-2.033-.038L16.69 38.858c-.212-.099-.24-.282-.238-.382s.037-.281.252-.371l5.7-2.498-1.467-.615-4.719 1.96c-1.328.56-1.363 2.43-.057 3.038l14.034 6.544a3.76 3.76 0 0 0 3.047.057l14.189-5.982c1.327-.56 1.362-2.429.056-3.038M31.201 14.332q.464 0 .884.196l14.2 6.621c.212.099.24.281.238.381a.39.39 0 0 1-.252.372l-14.189 5.982a2.5 2.5 0 0 1-2.033-.038l-14.033-6.544a.39.39 0 0 1-.238-.38.39.39 0 0 1 .252-.373l14.358-6.053q.39-.164.813-.164m0-1.25c-.441 0-.883.087-1.298.262l-14.358 6.053c-1.328.56-1.363 2.43-.057 3.038L29.52 28.98a3.76 3.76 0 0 0 3.047.057l14.189-5.982c1.328-.56 1.363-2.429.057-3.038l-14.2-6.621a3.3 3.3 0 0 0-1.413-.314Z" style="fill:#fff"/><path d="m47.15 28.794-5.366-2.448-1.497.626 6.336 2.955c.21.098.24.28.237.38a.39.39 0 0 1-.252.373L32.42 36.662a2.5 2.5 0 0 1-2.034-.038L16.353 30.08a.39.39 0 0 1-.238-.381.39.39 0 0 1 .252-.372l5.942-2.385-1.45-.608-4.977 1.84c-1.328.56-1.363 2.43-.057 3.039l14.033 6.543a3.76 3.76 0 0 0 3.047.057l14.19-5.982c1.327-.56 1.362-2.428.056-3.037Zm-17.635-5.571c-.267 0-.533-.048-.735-.134-.194-.082-.312-.192-.344-.32a.28.28 0 0 1 .063-.246l.701-.859-3.625-1.544c-.002 0-.016-.006-.057.001l-2.222.316c-.341.05-.736.005-1.006-.11-.17-.074-.283-.169-.326-.277a.26.26 0 0 1 .004-.207c.07-.16.295-.277.618-.321l9.392-1.304c.412-.058.892-.004 1.22.136.227.096.366.224.402.37a.31.31 0 0 1-.066.278l-3.148 3.946c-.115.145-.374.244-.71.269a2 2 0 0 1-.161.006m-1.777-3.411 2.202.936 1.15-1.41zm4.494 4.592c-.23 0-.44-.033-.593-.098l-.056-.023c-.235-.1-.27-.247-.27-.325.001-.186.181-.364.506-.5l5.826-2.442c.505-.213 1.222-.256 1.598-.095l.056.024c.234.1.27.246.269.324 0 .186-.18.364-.505.5l-5.827 2.442a2.7 2.7 0 0 1-1.003.193Z" style="fill:#fff"/></svg>