<svg xmlns="http://www.w3.org/2000/svg" viewBox="0 0 62.362 62.362"><path d="M31.315 62.362C13.483 62.362 0 47.59 0 31.315 0 12.633 15.557 0 31.08 0c18.602 0 31.282 15.34 31.282 30.947 0 19.05-15.657 31.415-31.047 31.415" style="fill:none"/><path d="M43.287 14.702c-.426-.024-1.524 0-3.356 1.283-.49.343-1.261.755-1.766.965-.269.085-.815.133-1.918.178-1.658.066-3.008.42-4.273 1.116-3.818 2.097-6.144 7.61-7.138 9.964l-.265.619c-.097.217-.234.425-.593.522-3.796.148-7.37 1.792-9.118 3.261-.13.11-.246.24-.363.376a1 1 0 0 0-.224 1.024 1 1 0 0 0 .797.66c.372.055.682.065 1.08.073.74.013 1.755.032 4.43.622l.383.085-.103.379c-.594 2.197-3.359 7.562-5.032 8.972a1 1 0 0 0-.12 1.409 1.03 1.03 0 0 0 1.409.12c2.078-1.75 6.349-9.45 5.81-11.701-.121-.512-.48-.885-.956-.998a53 53 0 0 0-2.587-.55l-1.302-.237 1.234-.48c1.104-.43 2.827-.955 4.764-1.008a1 1 0 0 0 .16-.017c1-.19 1.746-.775 2.156-1.691l.283-.663c.912-2.16 3.047-7.223 6.26-8.989.994-.548 2.033-.816 3.367-.87 1.342-.053 2.113-.117 2.595-.317.762-.316 1.386-.779 1.936-1.186.655-.486 1.132-.784 1.42-.887.213-.068.298-.07.454-.048.444.06.75.657.293 1.168-.294.325-.554.595-.824.874-1.074 1.111-2.29 2.37-3.343 3.99-.755 1.382-.974 1.69-1.785 2.517-.86.879-.62 1.957-.367 2.692.136.393.306.778.475 1.162.362.82.675 1.53.6 2.212-.023.143-.084.385-.372 1.061l-.317.748-.364-.727c-.185-.373-.374-.677-.53-.933l-.057-.09a4 4 0 0 1-.2-.35 1 1 0 0 0-1.33-.476 1.004 1.004 0 0 0-.48 1.332c.087.18.209.382.353.616.463.749 1.096 1.772 1.094 3.814 0 .378.22.73.56.897.347.17.75.127 1.054-.106.45-.355 2.467-4.562 2.576-5.555.134-1.226-.338-2.297-.754-3.243a14 14 0 0 1-.417-1.015c-.07-.2-.1-.326-.112-.4l-.033-.187.133-.137c.916-.945 1.247-1.447 1.988-2.805.907-1.395 2.005-2.53 3.068-3.628l.114-.119q.396-.41.763-.801c.444-.48.977-1.476.765-2.617-.058-.316-.215-1.73-1.975-1.88" style="fill:#fff"/><path d="M31.943 35.026a1 1 0 0 0-.852.476c-.186.296-4.56 7.27-9.045 10.348a1 1 0 0 0-.418.64 1 1 0 0 0 .158.748c.3.441.951.562 1.39.26 4.9-3.362 9.425-10.637 9.616-10.946a1.002 1.002 0 0 0-.85-1.526Z" style="fill:#fff"/></svg>