<svg xmlns="http://www.w3.org/2000/svg" viewBox="0 0 62.362 62.362"><path d="M31.315 62.364C13.483 62.364 0 47.592 0 31.316 0 12.635 15.557.002 31.08.002c18.602 0 31.282 15.34 31.282 30.947 0 19.05-15.657 31.415-31.047 31.415" style="fill:none"/><path d="M41.174 16.6c.637 0 1.166.298 1.624.905a90 90 0 0 1 3.163 4.47c.64.967.804 1.878.5 2.785-1.059 3.164-3.203 5.724-6.375 7.609a1 1 0 0 0-.458.613 1 1 0 0 0 .11.758c.27.455.908.622 1.37.348 3.594-2.136 6.034-5.061 7.25-8.694.497-1.487.244-3.05-.73-4.523a92 92 0 0 0-3.236-4.57c-1.207-1.601-3.007-2.096-4.944-1.358l-.243.09a7 7 0 0 0-.856.358c-1.122.593-2.255.694-3.915.35-2.75-.568-5.357-.507-7.745.184-.174.049-.568.101-1.29-.086a26 26 0 0 1-1.623-.5c-.764-.253-1.49-.493-2.244-.664-1.23-.28-2.44.235-3.32 1.406l-.904 1.197c-.846 1.112-1.72 2.262-2.544 3.451-1.079 1.553-1.297 3.342-.63 5.175 1.086 2.989 3.167 5.569 6.361 7.888a.98.98 0 0 0 .745.177 1 1 0 0 0 .652-.4 1 1 0 0 0 .178-.744 1 1 0 0 0-.4-.653c-2.9-2.105-4.697-4.313-5.656-6.952-.448-1.229-.32-2.325.392-3.35.798-1.15 1.656-2.28 2.486-3.371l.92-1.218c.4-.535.815-.753 1.267-.658.664.15 1.304.362 1.981.587.623.206 1.224.405 1.836.564.91.236 1.702.26 2.349.072 2.073-.6 4.355-.648 6.785-.145 1.417.292 3.295.495 5.252-.542a4 4 0 0 1 .534-.221l.347-.127q.547-.21 1.01-.21z" style="fill:#fff"/><path d="M25.967 41.658c-.59 0-1.012.158-1.321.478-.432.45-.503 1.06-.216 1.872.065.277.222.703.68 1.402.946 1.447 2.49 2.326 4.129 2.352h.072c1.537 0 2.96-.774 3.903-2.124.567-.81.972-2.8 1.52-6.19.084-.53.155-.97.206-1.234.092-.465.461-.889.818-1.298.188-.219.366-.426.506-.627l.08-.134c.399-.769.665-1.521.8-2.277.072-.388.069-.768.066-1.104a9 9 0 0 1 .014-.725l.01-.121c.003-.014.259-1.412.878-2.44 1.251-2.068 1.282-3.57 1.19-4.283l-.02-.152.093-.123a1 1 0 0 0 .151-.92 1.007 1.007 0 0 0-1.265-.632 1.526 1.526 0 0 0-.975 1.92c.019.06.315 1.17-.886 3.155-.834 1.383-1.147 3.148-1.166 3.367l-.017.211c-.01.277-.009.523-.007.753l.001.119a3 3 0 0 1-.035.619 6 6 0 0 1-.573 1.643c-.109.155-.197.256-.289.362l-.067.078c-.455.524-1.073 1.236-1.268 2.22-.054.28-.13.743-.22 1.304-.527 3.258-.877 4.855-1.17 5.34-.742 1.063-1.665 1.288-2.31 1.293-.91-.014-1.767-.47-2.358-1.251l-.687-.907 1.092.321q.249.072.558.174a1.47 1.47 0 0 0 1.52-.38c1.14-1.154 1.03-4.807.776-5.546-.482-1.407-.94-1.94-1.576-2.676a23 23 0 0 1-.607-.723c-.469-.572-.494-1.257-.523-2.051-.016-.449-.033-.905-.138-1.349l-.026-.152a7.5 7.5 0 0 0-1.006-2.769c-1.093-1.806-.944-2.89-.903-3.09.28-.847-.156-1.717-.959-1.985a.98.98 0 0 0-.762.052 1 1 0 0 0-.351 1.5l.093.123-.02.152c-.092.712-.06 2.215 1.19 4.282.502.83.685 1.602.75 2.103l.04.215c.065.231.079.592.093.974.035.975.078 2.168.97 3.256.236.294.44.531.624.745.598.692.861.998 1.203 1.987.132.583.084 2.053-.082 2.9l-.079.398-.39-.11c-.71-.198-1.285-.298-1.754-.298" style="fill:#fff"/></svg>