<svg xmlns="http://www.w3.org/2000/svg" viewBox="0 0 62.362 62.362"><path d="M31.315 62.362C13.483 62.362 0 47.59 0 31.315 0 12.633 15.557 0 31.08 0c18.602 0 31.282 15.34 31.282 30.947 0 19.05-15.657 31.415-31.047 31.415" style="fill:none"/><path d="m33.862 15.21-2.055 2.081V11.76h-1.252v5.532l-2.054-2.081-.005 1.744 2.69 2.672 2.68-2.672zm0 31.07-2.055 2.08v-5.53h-1.252v5.532l-2.054-2.082-.005 1.744 2.69 2.672 2.68-2.672zm13.789-18.177a3.08 3.08 0 0 0-3.014 2.453h-2.468v1.25h2.468a3.08 3.08 0 0 0 3.014 2.454c1.698 0 3.078-1.381 3.078-3.079s-1.38-3.078-3.078-3.078m0 4.907a1.83 1.83 0 0 1-1.829-1.829 1.83 1.83 0 0 1 3.658 0c0 1.008-.82 1.829-1.829 1.829m0-13.411a3.08 3.08 0 0 0-3.014 2.453h-.084a2.7 2.7 0 0 0-1.925.798l-.969.968.883.884.97-.968a1.46 1.46 0 0 1 1.04-.432h.085a3.08 3.08 0 0 0 3.014 2.454 3.079 3.079 0 0 0 0-6.156m0 4.907a1.83 1.83 0 0 1-1.829-1.829 1.83 1.83 0 0 1 3.658 0c0 1.008-.82 1.829-1.829 1.829M19.74 22.856a2.72 2.72 0 0 0-1.939-.804h-.076a3.08 3.08 0 0 0-3.014-2.453c-1.698 0-3.079 1.38-3.079 3.078s1.381 3.079 3.079 3.079a3.08 3.08 0 0 0 3.014-2.454h.076c.399 0 .774.156 1.055.437l.871.871.884-.883zm-5.03 1.65a1.83 1.83 0 1 1 1.83-1.829c0 1.008-.82 1.829-1.83 1.829m5.483 6.05h-2.468a3.08 3.08 0 0 0-3.014-2.453c-1.698 0-3.079 1.38-3.079 3.078s1.381 3.079 3.079 3.079a3.08 3.08 0 0 0 3.014-2.454h2.468zm-5.482 2.454a1.83 1.83 0 1 1 1.829-1.829c0 1.008-.82 1.829-1.83 1.829m32.941 3.596a3.084 3.084 0 0 0-3.014 2.453h-.078c-.398 0-.77-.154-1.051-.435l-.873-.873-.885.885.873.873a2.72 2.72 0 0 0 1.936.8h.077a3.08 3.08 0 0 0 3.015 2.455 3.08 3.08 0 0 0 3.078-3.08 3.08 3.08 0 0 0-3.078-3.077Zm0 4.908a1.83 1.83 0 0 1-1.829-1.83 1.83 1.83 0 0 1 1.83-1.827 1.83 1.83 0 0 1 1.828 1.828 1.83 1.83 0 0 1-1.829 1.829M18.86 38.62c-.283.283-.662.44-1.065.44h-.07a3.08 3.08 0 0 0-3.014-2.454 3.08 3.08 0 0 0-3.079 3.078 3.08 3.08 0 0 0 3.079 3.08 3.08 3.08 0 0 0 3.014-2.455h.07c.738 0 1.43-.287 1.95-.807l.958-.96-.884-.882zm-4.15 2.894a1.83 1.83 0 0 1-1.828-1.83 1.83 1.83 0 0 1 3.658.001 1.83 1.83 0 0 1-1.83 1.829m22.654-19.231h-12.37a2.69 2.69 0 0 0-2.69 2.689v12.37a2.69 2.69 0 0 0 2.69 2.69h12.37a2.69 2.69 0 0 0 2.69-2.69v-12.37a2.69 2.69 0 0 0-2.69-2.69m-12.37 16.5a1.44 1.44 0 0 1-1.441-1.44v-12.37c0-.795.646-1.44 1.44-1.44h12.371c.794 0 1.44.645 1.44 1.44v12.37c0 .795-.646 1.441-1.44 1.441z" style="fill:#000"/><path d="M29.234 27.09a.76.76 0 0 0-.688.439l-2.928 6.332a.61.61 0 0 0 .558.871c.24 0 .46-.141.559-.36l.683-1.505q.02-.05.058-.051h3.486c.025 0 .044.018.05.035l.687 1.513a.629.629 0 0 0 1.1.079.63.63 0 0 0 .04-.601l-2.919-6.313a.76.76 0 0 0-.687-.44Zm-1.236 4.517 1.224-2.681 1.219 2.68z" style="fill:#000"/><rect width="1.257" height="7.65" x="34.3" y="27.082" rx=".629" ry=".629" style="fill:#000"/></svg>