<svg xmlns="http://www.w3.org/2000/svg" viewBox="0 0 62.362 62.362"><path d="M31.315 62.364C13.483 62.364 0 47.592 0 31.316 0 12.635 15.557.002 31.08.002c18.602 0 31.282 15.34 31.282 30.947 0 19.05-15.657 31.415-31.047 31.415" style="fill:none"/><path d="M29.706 19.68a1 1 0 0 0-.844-1.739c-2.526.488-4.517 1.183-6.638 3.141a1 1 0 0 0 1.356 1.47c.959-.885 1.857-1.454 2.837-1.86a13 13 0 0 0-1.012 2.167 1 1 0 0 0 1.883.675c.893-2.493 2.406-3.844 2.418-3.854m-14.748 8.609c.526-2.718 1.889-4.345 2.45-4.918a1 1 0 1 0-1.429-1.4c-.687.703-2.355 2.688-2.985 5.937-.782 4.038.284 6.92.33 7.04a1 1 0 0 0 1.286.58c.515-.193.777-.77.585-1.286-.009-.024-.906-2.504-.237-5.954Zm3.337 4.507c-.146-.916-.157-1.716-.034-2.376a1 1 0 1 0-1.966-.366c-.165.885-.157 1.913.024 3.055.334 2.105 1.335 3.26 2.116 3.859a1 1 0 0 0 1.403-.186 1 1 0 0 0-.186-1.402c-.492-.377-1.127-1.13-1.357-2.584m5.525 3.076a1 1 0 1 0 .64-1.895c-1.848-.623-2.89-1.893-3.185-3.88a1.005 1.005 0 0 0-1.136-.843 1 1 0 0 0-.843 1.137c.411 2.762 1.933 4.607 4.523 5.48Zm2.393-3.341q.204.091.415.09a1 1 0 0 0 .91-.585c.67-1.468 1.269-4.352-.732-5.852-2.274-1.705-5.956-.293-6.369-.127a1 1 0 0 0 .748 1.855c.145-.058.363-.13.607-.201l.009.032c.25.973.486 1.892 1.483 2.634a1 1 0 0 0 1.399-.206 1 1 0 0 0-.205-1.399c-.39-.29-.51-.643-.707-1.404.693-.026 1.37.068 1.836.417 1.2.9.122 3.398.111 3.42a1 1 0 0 0 .495 1.326M13.525 18.942a1 1 0 0 0 .758-1.194c-.752-3.356.378-5.472 1.746-6.017 1.605-.64 3.662.65 5.24 3.287a1 1 0 0 0 1.717-1.026c-2.561-4.28-5.654-4.934-7.699-4.119-2.2.878-3.969 3.79-2.957 8.311a1 1 0 0 0 1.195.758" style="fill:#000"/><path d="M15.51 19.027a1 1 0 0 0 1.805.86c.662-1.391 2.572-2.121 2.588-2.127a1.002 1.002 0 0 0 .474-1.512c-1.678-2.396-3.88-1.896-3.973-1.872a.99.99 0 0 0-.73 1.179c.115.53.648.871 1.177.77.068-.013.495-.075 1.023.234-.823.511-1.82 1.322-2.365 2.468m29.999-2.703a1 1 0 0 0 .45-1.949c-.852-.202-2.633-.038-3.973 1.873a1.005 1.005 0 0 0 .471 1.51c.02.008 1.93.738 2.59 2.128a1 1 0 0 0 1.807-.86c-.546-1.145-1.543-1.956-2.365-2.466.523-.307.943-.25 1.02-.236M33.5 17.941a.994.994 0 0 0-1.086.543c-.198.406-.1.895.24 1.193.014.014 1.528 1.364 2.42 3.857a1.001 1.001 0 0 0 1.883-.675 13 13 0 0 0-1.01-2.167c.979.406 1.876.975 2.834 1.86a1 1 0 0 0 1.358-1.47c-2.121-1.958-4.112-2.653-6.639-3.14Zm7.587 12.156c-.295 1.987-1.337 3.256-3.185 3.88a1 1 0 0 0 .64 1.895c2.555-.862 4.118-2.758 4.523-5.481a1 1 0 1 0-1.978-.294m-5.53-3.912c-2.001 1.499-1.402 4.383-.733 5.851a1 1 0 0 0 1.822-.828c-.012-.024-1.091-2.523.11-3.423.467-.349 1.142-.443 1.835-.417-.198.761-.316 1.114-.706 1.405a1 1 0 1 0 1.193 1.604c.997-.742 1.233-1.66 1.483-2.634l.01-.032c.244.072.462.144.607.202a.999.999 0 0 0 .748-1.855c-.413-.166-4.095-1.577-6.37.127" style="fill:#000"/><path d="M47.075 9.873c-2.044-.814-5.137-.163-7.698 4.119a1 1 0 0 0 1.717 1.026c1.577-2.636 3.633-3.928 5.24-3.288 1.367.546 2.497 2.662 1.746 6.018a1 1 0 1 0 1.951.436c1.013-4.522-.755-7.433-2.956-8.31M31.18 13.676c-2.915 0-5.96.885-8.144 2.369a1 1 0 1 0 1.123 1.654c1.839-1.248 4.529-2.023 7.021-2.023s5.183.775 7.021 2.023a1 1 0 0 0 1.389-.266 1 1 0 0 0-.266-1.389c-2.184-1.483-5.228-2.368-8.144-2.368m6.125 29.117a5 5 0 0 1-.936.067 1 1 0 0 0-.047 2l.16.002c.135 0 .27-.013.407-.02-.534.454-1.106.692-1.71.68-1.203-.12-2.21-.46-2.997-1.013v-.983c1.43-.62 2.576-1.641 3.414-3.043a1 1 0 1 0-1.717-1.026c-.663 1.109-1.556 1.853-2.698 2.297-1.14-.445-2.034-1.188-2.698-2.298a1 1 0 0 0-1.716 1.027c.839 1.403 1.985 2.423 3.413 3.043v.983c-.786.553-1.782.893-2.908 1.009-.644-.003-1.23-.238-1.769-.675.127.007.253.02.379.02l.159-.002a1 1 0 0 0 .976-1.024c-.013-.552-.486-.998-1.023-.976a5.2 5.2 0 0 1-2.141-.407c-.005-.002-.01 0-.015-.003a14 14 0 0 1-.436-1.122c.343.104.693.191 1.046.243q.074.01.144.01a1 1 0 0 0 .142-1.99 5 5 0 0 1-1.839-.653q.046-.509.292-.988a1 1 0 0 0-1.78-.914c-.56 1.091-.672 2.27-.335 3.497 1.242 4.63 3.312 6.98 6.242 6.979h.068c1.488-.15 2.753-.592 3.8-1.29 1.05.698 2.327 1.142 3.887 1.295h.057a4.55 4.55 0 0 0 2.179-.557zm10.1-14.503c.668 3.448-.228 5.928-.236 5.95-.014.037-.01.075-.019.114.674.084 1.334.213 1.958.39.234-.731.935-3.35.26-6.836-.629-3.246-2.297-5.233-2.984-5.936a1.001 1.001 0 0 0-1.43 1.399c.562.574 1.925 2.203 2.451 4.918m-3.829 6.035c.55-.059 1.106-.091 1.654-.091q.267.001.536.011a7.4 7.4 0 0 0 .277-1.135c.18-1.143.189-2.171.024-3.055a.994.994 0 0 0-1.167-.8 1 1 0 0 0-.8 1.166c.124.66.113 1.46-.032 2.376a4.8 4.8 0 0 1-.493 1.528m8.305 4.164c-.13-1.93-3.48-2.98-6.65-2.98-3.16 0-6.51 1.05-6.64 2.98-.01.04-.01.08-.01.12v10.18c0 2.01 3.43 3.1 6.65 3.1 3.23 0 6.66-1.09 6.66-3.1v-10.18c0-.04 0-.08-.01-.12m-1.24 10.3c0 .75-2.11 1.85-5.41 1.85s-5.4-1.1-5.4-1.85v-1.43c.97.54 2.66 1.13 5.4 1.13 2.77 0 4.45-.58 5.41-1.12zm0-2.94c-.42.36-1.9 1.39-5.41 1.39-3.48 0-4.97-1.01-5.4-1.38v-1.89c.97.54 2.66 1.13 5.4 1.13 2.77 0 4.45-.58 5.41-1.12zm0-3.39c-.42.36-1.9 1.39-5.41 1.39-3.48 0-4.97-1.01-5.4-1.38v-2c1.28.82 3.38 1.25 5.4 1.25s4.13-.43 5.41-1.25zm-5.41-1.99c-3.3 0-5.4-1.1-5.4-1.86 0-.75 2.1-1.85 5.4-1.85s5.41 1.1 5.41 1.85c0 .76-2.11 1.86-5.41 1.86" style="fill:#000"/></svg>