<svg xmlns="http://www.w3.org/2000/svg" viewBox="0 0 62.362 62.362"><path d="M31.315 62.364C13.483 62.364 0 47.592 0 31.316 0 12.635 15.557.002 31.08.002c18.602 0 31.282 15.34 31.282 30.947 0 19.05-15.657 31.415-31.047 31.415" style="fill:none"/><path d="M23.246 36.6c-.166.272-.237.895-.072 1.286 1.317 3.111 2.72 6.234 4.078 9.254.163.361.576.78 1.234.547.502-.18.692-.558.581-1.156a2.4 2.4 0 0 0-.187-.518l-1.144-2.57q-.806-1.807-1.609-3.621a12 12 0 0 1-.29-.75l-.043-.116a.52.52 0 0 1 .042-.394.45.45 0 0 1 .327-.206c2.429-.292 4.316-1.37 5.77-3.293.165-.222.527-.321.735-.304 2.317.404 4.264.14 5.989-.8l.012-.004.017-.01.002.004c.183-.06.4.015.48.189a.4.4 0 0 1 .04.147h.02a.4.4 0 0 1-.035.156l-.379.844a35 35 0 0 1-.896 1.92c-.505.982-.146 1.34.168 1.523.71.414 1.228-.131 1.476-.492 1.47-2.14 2.019-4.153 1.725-6.34-.067-.496-.536-1.161-1.063-1.307-.464-.123-.839.025-1.185.47a4 4 0 0 1-.484.525c-1.367 1.214-3.025 1.667-4.93 1.353-.173-.03-.362-.243-.372-.418q-.031-.547-.058-1.075c-.045-.883-.096-1.886-.198-2.847A.84.84 0 0 0 32.68 28a.74.74 0 0 0-.592-.127q-.632.113-.864.468c-.177.27-.11.566-.041.88l.03.142c.395 1.974-.193 3.95-1.564 5.338-1.371 1.39-3.252 1.983-5.158 1.628-.089-.016-.916-.27-1.245.27zM9.215 32.176c-.32 0-.585.162-.77.48-.372.64-.027 1.062.327 1.303 3.374 2.287 6.505 2.127 9.073-.478.83-.843 1.572-1.794 2.288-2.713q.39-.501.786-.995a.5.5 0 0 1 .337-.162c.265.022.363.186.394.256.115.25.242.526.383.796.225.435.514.714.834.81.24.07.503.033.759-.11.647-.366.431-1.073.136-1.602-.868-1.561-1.026-3.123-.468-4.64.714-1.944 2.387-3.385 4.475-3.854 2.105-.474 4.255.121 5.748 1.592.196.192.386.393.576.594l.068.072q.241.26.488.511c1.273 1.289 2.91 2.005 4.425 1.91 1.425-.09 2.702-.863 3.798-2.295q.114-.151.226-.308c.197-.27.399-.548.642-.788.462-.458 1.156-1.147 2.044-.687.852.439 1.694.954 2.436 1.408l.238.145c.41.215.793.45.724.829.006.327-.549.482-.966.564l-.173.044c-1 .245-1.998.491-2.972.762-.502.14-.828.311-.97.511-.56.789-1.017 1.66-1.402 2.415-.2.395-.317.947.27 1.337.523.345.986.254 1.38-.272.364-.49.64-.931.844-1.348.28-.573.676-.884 1.285-1.009.805-.164 1.615-.382 2.399-.593l.668-.178c.906-.24 1.46-.827 1.648-1.748.202-.988-.223-1.997-1.085-2.572a37 37 0 0 0-3.52-2.086c-.85-.438-.74-1.02-.547-1.48.104-.249.413-.876.577-1.118a1.16 1.16 0 0 0 .06-.873.84.84 0 0 0-.45-.516c-.48-.195-1.007.056-1.349.667-.292.524-.53 1.078-.806 1.718-.16.372-.291.678-.44 1.01-.63 1.558-2.189 3.09-2.855 3.743-.684.672-2.073 1.055-2.916.559-.861-.506-1.758-1.064-2.41-1.82-1.475-1.713-3.563-2.7-5.88-2.778-2.406-.083-4.77.826-6.322 2.4-.92.931-1.48 2.095-2.022 3.22-.168.347-.302.625-.443.901-1.305 2.558-2.545 4.822-4.51 6.614-1.66 1.518-3.359 1.728-5.347.657a9 9 0 0 1-.49-.29c-.221-.135-.447-.276-.687-.385q-.288-.13-.536-.13" style="fill:#000"/></svg>