<svg xmlns="http://www.w3.org/2000/svg" viewBox="0 0 62.362 62.362"><path d="M31.315 62.362C13.483 62.362 0 47.59 0 31.315 0 12.633 15.557 0 31.08 0c18.602 0 31.282 15.34 31.282 30.947 0 19.05-15.657 31.415-31.047 31.415" style="fill:none"/><path d="M41.77 32.585H31.287a.625.625 0 0 0-.625.625v8.723c0 .345.28.625.625.625h10.484c.344 0 .624-.28.624-.625V33.21a.626.626 0 0 0-.625-.625m-.625 8.723h-9.233v-7.473h9.234z" style="fill:#000"/><path d="m49.51 22.987-2.523-6.01a3.13 3.13 0 0 0-2.893-1.923H18.26a3.12 3.12 0 0 0-2.884 1.916l-2.525 6.017a4.1 4.1 0 0 0-.317 1.576v1.336a3.97 3.97 0 0 0 1.155 2.787 3.6 3.6 0 0 0 1.91 1.003v14.33a2.755 2.755 0 0 0 2.752 2.753h2.099c.345 0 .625-.28.625-.625V33.835h5.827v12.312c0 .344.28.625.625.625h16.487a2.75 2.75 0 0 0 2.748-2.748V29.689a3.6 3.6 0 0 0 1.91-1.004 3.96 3.96 0 0 0 1.153-2.786l.001-1.337c0-.545-.106-1.075-.317-1.575Zm-32.29-5.244c.176-.42.585-.69 1.04-.69h25.833c.46 0 .872.274 1.05.698L47.345 23h-32.33zm26.794 27.778H28.153V33.21a.625.625 0 0 0-.625-.625h-7.077a.625.625 0 0 0-.625.625v12.312h-1.474a1.504 1.504 0 0 1-1.502-1.502V29.689c1.017-.14 1.913-.59 2.548-1.274a3.932 3.932 0 0 0 5.901.022 3.932 3.932 0 0 0 5.882 0 3.932 3.932 0 0 0 5.881 0 3.934 3.934 0 0 0 5.903-.022c.634.685 1.53 1.135 2.548 1.274v14.335a1.5 1.5 0 0 1-1.498 1.498Zm3.811-19.624c0 .513-.206 1.012-.566 1.371a1.6 1.6 0 0 1-1.125.483h-.004c-1.247-.003-2.187-.835-2.187-1.936a1 1 0 1 0-2 0c0 1.07-.87 1.941-1.94 1.941s-1.941-.87-1.941-1.94a1 1 0 1 0-2 0c0 1.07-.87 1.94-1.94 1.94s-1.941-.87-1.941-1.94a1 1 0 0 0-2 0 1.943 1.943 0 0 1-3.882 0 1 1 0 0 0-2 0c0 1.07-.871 1.94-1.941 1.94s-1.941-.87-1.941-1.94a1 1 0 0 0-2 0c0 1.1-.94 1.932-2.186 1.935h-.004c-.414 0-.814-.172-1.126-.483a1.95 1.95 0 0 1-.566-1.371v-1.336c0-.105.015-.209.03-.312h33.23c.016.103.031.206.031.312z" style="fill:#000"/></svg>