<svg xmlns="http://www.w3.org/2000/svg" viewBox="0 0 62.362 62.362"><path d="M31.315 62.364C13.483 62.364 0 47.592 0 31.316 0 12.635 15.557.002 31.08.002c18.602 0 31.282 15.34 31.282 30.947 0 19.05-15.657 31.415-31.047 31.415" style="fill:none"/><path d="M24.863 36.663q1.059 0 1.93.498c.208.121.394.304.582.496l.271.278-.286.261c-.713.65-1.203 1.356-1.498 2.156-.46 1.247-.313 2.6.393 3.619.694 1.002 1.855 1.582 3.186 1.592h.013c.606 0 1.045-.35 1.093-.87.051-.554-.303-.968-.924-1.082l-.31-.051c-.241-.037-.494-.075-.71-.161-.87-.356-1.211-1.109-.962-2.121.204-.828.711-1.487 1.55-2.014 1.385-.87 2.264-1.899 2.69-3.146a7.1 7.1 0 0 0 .293-3.339 9 9 0 0 0-.217-.97c-.15-.561-.665-.912-1.176-.793a.98.98 0 0 0-.622.446 1.1 1.1 0 0 0-.107.842c.258.992.286 1.897.086 2.767a3.5 3.5 0 0 1-.58 1.298l-.283.39-.308-.368a4.5 4.5 0 0 0-1.776-1.281l-.448-.181.286-.389c.2-.272.408-.57.577-.896.732-1.422.43-2.957-.772-3.912-.525-.416-1.16-.69-1.998-.86-1.7-.348-3.071-.965-4.19-1.889-1.503-1.24-2.148-2.769-1.97-4.67.2-2.155 1.518-3.906 3.526-4.683 1.862-.722 4.467-.392 6.1.22 1.1.41 2.062 1.338 3.032 2.333.315.323 1.005 1.13 1.615 1.841l.206.24c.36.419.675.786.852.984.211.234.411.382.614.454.415.146.825-.007 1.07-.398.244-.391.218-.825-.07-1.161l-.454-.533c-.76-.895-2.174-2.56-2.807-3.197-1.2-1.208-2.554-2.051-4.026-2.507-1.301-.402-3.223-.612-4.472-.488-2.985.297-5.316 1.863-6.563 4.409-.74 1.509-.855 3.217-.34 5.077.493 1.78 1.663 3.219 3.578 4.398 1.295.8 2.743 1.228 3.989 1.542.34.086.63.188.89.31.58.278.758.878.464 1.565-.26.606-.631 1.015-1.137 1.25-.813.38-1.636.747-2.458 1.111l-.305.137q-.647.286-1.292.58l-.423.188c-.896.397-1.814.804-2.527 1.575a3.82 3.82 0 0 0-1.004 2.193c-.12 1.001-.028 1.792.289 2.488.666 1.477 2.119 2.181 3.708 1.784 1.087-.27 1.886-.806 2.371-1.59.232-.374.331-.832.403-1.27a.91.91 0 0 0-.753-1.048c-.514-.094-.918.174-1.15.744-.11.274-.213.53-.365.738-.174.237-.656.455-1.145.52-.384.046-.708-.003-.871-.138a1.38 1.38 0 0 1-.519-.912c-.233-1.521.227-2.313 1.76-3.027 1.11-.516 2.037-.93 3.036-1.191a5.4 5.4 0 0 1 1.365-.188m13.329 5.666a2.27 2.27 0 0 1-1.426-.585c-.283-.253-.417-.58-.367-.894.048-.314.277-.581.626-.733.4-.178.771-.414.8-.934a.98.98 0 0 0-.383-.83.97.97 0 0 0-.905-.155c-1.106.36-1.81 1.12-2.036 2.197-.212 1.01.086 1.933.887 2.746.556.563 1.292.94 2.127 1.09.222.039-1.104-.071.677.054 2.116.15 7.327-2.383 4.606-7.505-.353-.665-.622-.887-.91-1.181-.503-.517-1.075-.968-1.628-1.404l-.14-.11q-.244-.194-.484-.39c-.236-.196-.49-.37-.734-.539l-.183-.124.02-.22c.162-1.75 1.695-3.367 3.417-3.604.89-.121 1.753-.401 2.59-.672l.204-.065c1.188-.382 2.31-.284 3.337.291.817.457 1.177 1.251 1.102 2.43-.083 1.319-.884 2.484-1.946 2.833-.798.268-1.627.12-2.4-.424-.367-.254-.469-.685-.311-1.316.034-.101.058-.172.072-.243.102-.491-.15-.966-.598-1.136-.442-.172-.94.022-1.19.457-.367.634-.456 1.443-.244 2.222.213.784.71 1.446 1.364 1.818 1.434.81 2.844.942 4.194.396 1.198-.49 2.088-1.434 2.645-2.809.507-1.25.548-2.499.122-3.712-.455-1.295-1.403-2.194-2.817-2.674-1.447-.488-2.946-.407-4.72.257q-.895.338-1.595.32c-1.209-.03-2.239-.59-3.058-1.665l-.093-.127a3 3 0 0 0-.196-.256c-.358-.397-.869-.456-1.3-.16-.44.304-.549.835-.266 1.29.486.78 1.048 1.384 1.717 1.844l.387.266-.344.318a6.5 6.5 0 0 0-1.647 2.37l-.223.55-.4-.439c-.146-.165-.228-.277-.311-.39a9 9 0 0 0-.254-.341c-.383-.481-.927-.578-1.38-.245-.417.305-.51.875-.224 1.359.51.855 1.24 1.635 2.232 2.384.434.329.877.646 1.32.965l.16.115c.546.39 1.092.783 1.623 1.19.418.319.64.354 1.09.919.425.532 2.277 4.473-2.606 5.2" style="fill:#000"/></svg>