<svg xmlns="http://www.w3.org/2000/svg" viewBox="0 0 62.362 62.362"><path d="M31.275 62.407C13.443 62.407-.04 47.635-.04 31.359-.04 12.677 15.517.044 31.04.044c18.602 0 31.282 15.34 31.282 30.948 0 19.05-15.657 31.415-31.047 31.415" style="fill:none"/><path d="M21.147 42.726c-3.242 0-5.904-1.974-6.691-4.935a.156.156 0 0 0-.15-.117h-1.943a.16.16 0 0 1-.159-.16v-.552a.16.16 0 0 1 .16-.159h1.721a.156.156 0 0 0 .156-.17 8.5 8.5 0 0 1 0-1.38.156.156 0 0 0-.156-.17h-1.722a.16.16 0 0 1-.159-.16v-.552a.16.16 0 0 1 .16-.16h1.942a.156.156 0 0 0 .15-.116c.787-2.961 3.449-4.935 6.691-4.935.394 0 2.989.036 4.724 1.8 0 0 .154.123.014.26l-.534.533c-.133.133-.24.018-.262-.004 0 0-.53-.506-1.178-.855-.48-.257-1.541-.62-2.726-.62-2.522 0-4.665 1.482-5.448 3.725a.162.162 0 0 0 .154.213h6.434c.088 0 .159.071.159.159v.552a.16.16 0 0 1-.16.16h-6.703a.16.16 0 0 0-.16.137 6 6 0 0 0-.039.723c0 .27.013.505.04.723.009.08.079.138.159.138h6.704c.088 0 .159.07.159.159v.552a.16.16 0 0 1-.16.16h-6.433c-.11 0-.19.109-.154.212.783 2.243 2.926 3.724 5.448 3.724 1.561 0 2.829-.478 3.87-1.46.029-.028.148-.184.298-.035l.544.543c.134.135-.05.272-.05.272-1.152 1.159-2.816 1.795-4.7 1.795" style="fill:#000"/><path d="m47.79 38.777-1.039-1.039c-.285-.285-.514.014-.57.067-1.989 1.877-4.41 2.791-7.395 2.791-4.82 0-8.914-2.832-10.411-7.117a.31.31 0 0 1 .294-.407h12.296a.304.304 0 0 0 .303-.304v-1.056a.304.304 0 0 0-.304-.304h-12.81a.304.304 0 0 1-.305-.263c-.05-.417-.075-.867-.075-1.382s.024-.963.075-1.38a.303.303 0 0 1 .305-.264h12.812a.304.304 0 0 0 .303-.304V26.76a.304.304 0 0 0-.304-.304H28.67a.31.31 0 0 1-.294-.406c1.497-4.286 5.592-7.118 10.41-7.118 2.265 0 4.293.692 5.21 1.184 1.24.666 2.252 1.634 2.252 1.634.042.04.247.26.502.006l1.019-1.018c.256-.257.035-.43.003-.463-.025-.026.015.013-.03-.033-3.315-3.371-8.274-3.44-9.027-3.44-6.197 0-11.283 3.772-12.787 9.43a.3.3 0 0 1-.287.224h-3.712a.304.304 0 0 0-.304.304v1.056c0 .168.136.304.304.304h3.29a.3.3 0 0 1 .298.326c-.035.432-.052.868-.052 1.318l.002.056c.29.2.573.422.837.69a.78.78 0 0 1 .023 1.153l-.248.248-.284.284a.8.8 0 0 1-.572.246.8.8 0 0 1-.565-.239 5.6 5.6 0 0 0-1.042-.756l-.074-.037h-1.613a.304.304 0 0 0-.304.304v1.056c0 .168.136.304.304.304h3.712c.136 0 .252.092.287.224 1.504 5.658 6.59 9.43 12.788 9.43 3.6 0 6.78-1.215 8.981-3.43 0 0 .352-.262.095-.519Z" style="fill:#000"/></svg>