<svg xmlns="http://www.w3.org/2000/svg" viewBox="0 0 62.362 62.362"><path d="M31.315 62.362C13.483 62.362 0 47.59 0 31.315 0 12.633 15.557 0 31.08 0c18.602 0 31.282 15.34 31.282 30.947 0 19.05-15.657 31.415-31.047 31.415" style="fill:none"/><path d="M31.181 15.118c8.858 0 16.064 7.206 16.064 16.063S40.039 47.245 31.18 47.245 15.117 40.04 15.117 31.181s7.206-16.064 16.064-16.064m0-2c-9.976 0-18.064 8.088-18.064 18.064s8.088 18.064 18.064 18.064 18.064-8.087 18.064-18.064-8.087-18.063-18.064-18.063" style="fill:#000"/><path d="M31.315 62.362C13.483 62.362 0 47.59 0 31.315 0 12.633 15.557 0 31.08 0c18.602 0 31.282 15.34 31.282 30.947 0 19.05-15.657 31.415-31.047 31.415" style="fill:none"/><path d="M31.181 15.118c8.858 0 16.064 7.206 16.064 16.063S40.039 47.245 31.18 47.245 15.117 40.04 15.117 31.181s7.206-16.064 16.064-16.064m0-2c-9.976 0-18.064 8.088-18.064 18.064s8.088 18.064 18.064 18.064 18.064-8.087 18.064-18.064-8.087-18.063-18.064-18.063" style="fill:#000"/><path d="m37.77 39.183-4.627-4.628 1.41-1.41 4.627 4.628-.03-4.66 1.97 1.96-.01 6.03-6.04.02-1.96-1.97zM23.212 29.25l-.03-4.66 4.635 4.635 1.41-1.41-4.635-4.636 4.66.03-1.96-1.97-6.04.02-.01 6.03zm13.248-1.94 4.64-4.63-1.42-1.42-4.63 4.64.02-4.66-1.97 1.97.02 6.03 6.03.01 1.97-1.96zM22.681 41.094l-1.41-1.42 4.63-4.621-4.66.02 1.97-1.97 6.02.02.02 6.03-1.97 1.97.03-4.66z" style="fill:#000"/></svg>