<svg xmlns="http://www.w3.org/2000/svg" viewBox="0 0 62.362 62.362"><path d="M31.315 62.362C13.483 62.362 0 47.59 0 31.315 0 12.633 15.557 0 31.08 0c18.602 0 31.282 15.34 31.282 30.947 0 19.05-15.657 31.415-31.047 31.415" style="fill:none"/><path d="M45.353 47.77H17.008a2.42 2.42 0 0 1-2.416-2.418V17.01a2.42 2.42 0 0 1 2.416-2.417h28.344a2.42 2.42 0 0 1 2.416 2.417v28.344a2.42 2.42 0 0 1-2.416 2.416M17.585 16.592a.99.99 0 0 0-.992.992v27.193c0 .546.446.992.992.992h27.192a.995.995 0 0 0 .992-.992V17.588a1 1 0 0 0-.995-.996z" style="fill:#000"/><path d="m25.722 32.529-3.316-3.274h6.556V27.26h-6.556l3.316-3.274-2.779-.007-4.256 4.285 4.256 4.27zm0 11.099-3.316-3.274h6.556V38.36h-6.556l3.316-3.274-2.779-.007-4.256 4.285 4.256 4.27zm10.924-13.822 3.316 3.274h-6.556v1.994h6.556l-3.316 3.274 2.779.007 4.256-4.285-4.256-4.271zm0-11.099 3.316 3.274h-6.556v1.994h6.556l-3.316 3.274 2.779.007 4.256-4.285-4.256-4.271z" style="fill:#000"/></svg>