<svg xmlns="http://www.w3.org/2000/svg" viewBox="0 0 62.362 62.362"><path d="M31.315 62.362C13.483 62.362 0 47.59 0 31.315 0 12.633 15.557 0 31.08 0c18.602 0 31.282 15.34 31.282 30.947 0 19.05-15.657 31.415-31.047 31.415" style="fill:none"/><path d="m47.488 37.571-5.31-2.476-1.554.655 6.336 2.955c.211.098.24.28.238.38a.39.39 0 0 1-.252.372L32.757 45.44a2.5 2.5 0 0 1-2.033-.038L16.69 38.858c-.212-.099-.24-.281-.238-.381s.037-.282.252-.372l2.847-1.2-1.528-.713-1.805.76c-1.328.56-1.363 2.43-.057 3.038l14.034 6.544a3.76 3.76 0 0 0 3.047.057L47.43 40.61c1.328-.56 1.363-2.428.057-3.037ZM31.201 14.332q.464 0 .884.196l14.2 6.621c.212.099.24.281.238.381a.39.39 0 0 1-.252.372l-14.189 5.982a2.5 2.5 0 0 1-2.033-.038l-14.033-6.544a.39.39 0 0 1-.238-.38.39.39 0 0 1 .252-.373l14.358-6.053q.39-.164.813-.164m0-1.25c-.441 0-.883.087-1.298.262l-14.358 6.053c-1.328.56-1.363 2.43-.057 3.038L29.52 28.98a3.76 3.76 0 0 0 3.047.057l14.189-5.982c1.328-.56 1.363-2.429.057-3.038l-14.2-6.621a3.3 3.3 0 0 0-1.413-.314Z" style="fill:#000"/><path d="m47.15 28.794-5.31-2.477-1.553.655 6.336 2.955c.21.098.24.28.237.38a.39.39 0 0 1-.252.373L32.42 36.662a2.5 2.5 0 0 1-2.034-.038L16.353 30.08a.39.39 0 0 1-.238-.381.39.39 0 0 1 .252-.372l2.847-1.2-1.512-.706-1.82.754c-1.328.56-1.363 2.429-.057 3.038l14.033 6.543a3.76 3.76 0 0 0 3.047.057l14.19-5.982c1.327-.56 1.362-2.428.056-3.037" style="fill:#000"/><path d="M18.328 25.231c.195 0 .374.03.502.09l5.479 2.554c.298.139.208.391-.2.564-.234.098-.52.149-.778.149-.195 0-.374-.03-.503-.09l-5.478-2.554c-.298-.139-.208-.391.2-.563.233-.099.52-.15.778-.15m.337 8.778c.195 0 .374.03.502.089l5.479 2.555c.298.139.208.39-.2.563-.233.098-.52.15-.778.15-.195 0-.374-.03-.502-.09l-5.479-2.554c-.298-.14-.208-.392.2-.564a2.1 2.1 0 0 1 .778-.149m.337 8.778c.195 0 .375.029.503.089l5.478 2.554c.298.14.209.392-.2.564a2.1 2.1 0 0 1-.778.149c-.195 0-.374-.03-.502-.089L18.025 43.5c-.299-.139-.209-.39.2-.563.233-.098.519-.15.777-.15" style="fill:#000"/></svg>