<svg xmlns="http://www.w3.org/2000/svg" viewBox="0 0 62.362 62.362"><path d="M31.266 62.387C13.434 62.387-.05 47.615-.05 31.339-.05 12.657 15.508.024 31.03.024c18.602 0 31.282 15.34 31.282 30.948 0 19.05-15.658 31.415-31.047 31.415" style="fill:#da291c"/><path d="M37.366 22.307h-12.37a2.69 2.69 0 0 0-2.69 2.689v12.37a2.69 2.69 0 0 0 2.69 2.69h12.37a2.69 2.69 0 0 0 2.69-2.69v-12.37a2.69 2.69 0 0 0-2.69-2.69m-12.37 16.5c-.794 0-1.44-.646-1.44-1.44v-12.37c0-.795.645-1.44 1.44-1.44h12.37c.795 0 1.44.645 1.44 1.44v12.37c0 .795-.645 1.441-1.44 1.441z" style="fill:#fff"/><path d="M29.236 27.114a.76.76 0 0 0-.687.439l-2.928 6.332a.61.61 0 0 0 .557.871c.24 0 .46-.141.559-.36l.683-1.505q.02-.05.058-.051h3.486c.026 0 .044.018.051.035l.686 1.513a.629.629 0 0 0 1.1.079.63.63 0 0 0 .041-.601l-2.92-6.313a.76.76 0 0 0-.686-.44ZM28 31.63l1.224-2.681 1.218 2.68z" style="fill:#fff"/><rect width="1.257" height="7.65" x="34.302" y="27.106" style="fill:#fff" rx=".629" ry=".629"/><path d="m48.368 37.97-1.535-.887V25.274l1.525-.88a1.11 1.11 0 0 0 .555-.96v-1.845c0-.394-.212-.762-.554-.96l-1.598-.922a1.12 1.12 0 0 0-1.106 0l-1.527.882-10.242-5.914v-1.762c0-.394-.212-.761-.554-.96l-1.598-.922a1.12 1.12 0 0 0-1.107 0l-1.598.923a1.11 1.11 0 0 0-.553.959v1.845c0 .394.212.761.554.959l1.597.922a1.11 1.11 0 0 0 1.107 0l1.526-.881 10.243 5.913v1.763c0 .395.213.763.554.959l1.526.88v11.82l-1.517.876a1.11 1.11 0 0 0-.554.96v1.768l-7.85 4.53a.624.624 0 1 0 .624 1.083l7.857-4.534 1.521.88a1.11 1.11 0 0 0 1.107-.001l1.598-.923a1.11 1.11 0 0 0 .553-.958v-1.845a1.11 1.11 0 0 0-.554-.96M32.636 14.593a.14.14 0 0 1-.072.123l-1.312.758a.14.14 0 0 1-.142 0l-1.313-.758a.14.14 0 0 1-.071-.123v-1.516c0-.05.027-.097.071-.123l1.313-.758a.14.14 0 0 1 .142 0l1.313.758a.14.14 0 0 1 .07.123zm12.117 8.676v-1.516c0-.05.027-.098.071-.123l1.313-.758a.14.14 0 0 1 .142 0l1.313.758a.14.14 0 0 1 .071.123v1.516c0 .05-.027.098-.071.123l-1.313.758a.14.14 0 0 1-.142 0l-1.313-.758a.14.14 0 0 1-.071-.123m2.919 17.34c0 .05-.027.097-.071.123l-1.313.758a.14.14 0 0 1-.142 0l-1.313-.758a.14.14 0 0 1-.071-.124v-1.515c0-.05.027-.098.07-.123l1.314-.759a.14.14 0 0 1 .142 0l1.313.759a.14.14 0 0 1 .07.123zm-14.338 6.037-1.599-.924a1.11 1.11 0 0 0-1.106 0l-1.537.888-10.233-5.908V38.93c0-.396-.213-.763-.554-.96l-1.526-.881v-11.82l1.518-.875a1.11 1.11 0 0 0 .553-.96v-1.771l7.759-4.526a.625.625 0 0 0-.63-1.08l-7.761 4.528-1.52-.877a1.11 1.11 0 0 0-1.106 0l-1.598.923a1.11 1.11 0 0 0-.554.958v1.846c0 .395.213.762.554.959l1.535.885v11.81l-1.527.882a1.11 1.11 0 0 0-.553.959v1.844c0 .395.212.762.553.958l1.599.923a1.1 1.1 0 0 0 1.106 0l1.516-.875 10.255 5.92v1.75c0 .395.212.762.553.958l1.598.923a1.1 1.1 0 0 0 1.107 0l1.597-.922a1.11 1.11 0 0 0 .555-.959v-1.845a1.11 1.11 0 0 0-.554-.959M14.69 23.269v-1.516c0-.05.028-.098.072-.123l1.312-.758a.14.14 0 0 1 .143 0l1.312.758a.14.14 0 0 1 .071.123v1.516c0 .05-.027.098-.071.123l-1.312.758a.14.14 0 0 1-.143 0l-1.313-.758a.14.14 0 0 1-.07-.123m1.535 18.22a.14.14 0 0 1-.142 0l-1.313-.757a.14.14 0 0 1-.07-.124v-1.515c0-.05.026-.098.07-.123l1.313-.758a.14.14 0 0 1 .142 0l1.313.758a.14.14 0 0 1 .07.123v1.515a.14.14 0 0 1-.07.124zm16.413 7.795a.14.14 0 0 1-.071.123l-1.313.758a.14.14 0 0 1-.143 0l-1.312-.758a.14.14 0 0 1-.071-.123V47.77c0-.051.027-.098.071-.123l1.312-.758a.14.14 0 0 1 .143 0l1.312.758a.14.14 0 0 1 .072.123z" style="fill:#fff"/></svg>