<svg xmlns="http://www.w3.org/2000/svg" viewBox="0 0 62.362 62.362"><path d="M31.315 62.364C13.483 62.364 0 47.592 0 31.316 0 12.635 15.557.002 31.08.002c18.602 0 31.282 15.34 31.282 30.947 0 19.05-15.657 31.415-31.047 31.415" style="fill:#da291c"/><path d="M26.39 16.979q-.561 0-.994.36c-1.233 1.031-.599 3.644 1.002 8.105.11.305.19.53.244.689.025.074.072.149.121.225l.113.173-.086.188c-4.372 9.574-10.824 17.914-10.888 17.996a1 1 0 0 0-.202.737 1 1 0 0 0 .379.665c.426.33 1.075.247 1.404-.175a87 87 0 0 0 2.585-3.571l.496-.718.18.854c.187.89.276 1.785.272 2.739-.002.55.444 1.002.995 1.005.553 0 1.002-.447 1.005-.995.014-2.92-.767-4.845-1.023-5.478l-.073-.18.106-.164a107 107 0 0 0 2.52-4.093l.108-.185h.221c1.6 0 4.374-.41 5.512-3.143a1 1 0 0 0 .002-.765 1 1 0 0 0-.54-.542.994.994 0 0 0-1.308.538c-.326.783-.957 1.337-1.873 1.647l-.902.305.451-.838a79 79 0 0 0 2.957-6.059l.084-.324c-.002 0 .29-1.954 2.086-4.158 1.913-2.348 2.46-2.507 4.494-1.312 1.68.984 3.079.868 4.2.773.933-.08 1.737-.147 2.73.33.523.35.87 1.558 1.307 3.539.352 1.574.652 2.921 1.331 3.706.37.426.842.92 1.33 1.43 1.248 1.3 1.998 2.112 2.146 2.412l.046.092-.008.103c-.016.204-.192.549-.49.785-.224.173-.423.243-.609.21-.267-.067-.603-.329-1.22-.856-.881-.75-2.086-1.776-3.685-1.905-1.048-.083-1.908-.63-2.82-1.21-1.324-.842-3.128-1.99-5.073-.256-.2.177-.318.423-.332.69s.074.523.252.721c.178.2.424.319.69.334.254.017.523-.075.722-.252.74-.663 1.166-.505 2.664.448.976.621 2.192 1.395 3.738 1.52.95.074 1.758.761 2.54 1.426.695.593 1.405 1.2 2.244 1.32.891.129 1.797-.218 2.49-.952.684-.723 1.01-1.663.851-2.453-.178-.89-1.141-1.933-2.7-3.56l-.078-.081c-.435-.456-.856-.895-1.186-1.277-.296-.343-.542-1.26-.89-2.83-.46-2.066-.934-4.203-2.38-4.9-1.492-.719-2.757-.613-3.774-.527-.428.036-.88.068-1.332.034l-.257-.019-1.591-5.35a.99.99 0 0 0-1.245-.673 1 1 0 0 0-.673 1.244l1.327 4.464-4.583-5.54a1.003 1.003 0 0 0-1.408-.132 1 1 0 0 0-.133 1.408l2.719 3.286-.398.218c-.402.22-.82.543-1.28.987l-.24.231-.257-.21c-.647-.53-1.54-1.12-2.73-1.807q-.776-.447-1.402-.447zm1.49 6.663-.278-.856c-.403-1.24-.668-2.216-.788-2.898l-.142-.81.705.424c.764.461 1.378.875 1.824 1.23l.278.221-.206.29a13 13 0 0 0-.981 1.6z" style="fill:#fff"/><path d="M27.246 38.335a1 1 0 0 0-.886.534c-.566 1.075-.661 2.203-.275 3.26.884 2.423 3.92 3.712 4.263 3.85l1.14.464.221-1.208c.679-3.697 1.894-9.264 2.411-10.101l.061-.076c.195-.183.306-.431.313-.698s-.09-.52-.274-.714a1 1 0 0 0-.698-.313 1.03 1.03 0 0 0-.715.274c-.404.383-1.293 2.109-2.71 9.38l-.111.573-.475-.34c-.81-.58-1.332-1.18-1.549-1.782-.19-.524-.136-1.06.167-1.637a1 1 0 0 0-.883-1.466" style="fill:#fff"/></svg>