<svg xmlns="http://www.w3.org/2000/svg" viewBox="0 0 62.362 62.362"><path d="M31.315 62.362C13.483 62.362 0 47.59 0 31.315 0 12.633 15.557 0 31.08 0c18.602 0 31.282 15.34 31.282 30.947 0 19.05-15.657 31.415-31.047 31.415" style="fill:#da291c"/><path d="M31.18 22.979c-4.072 0-7.746 1.71-10.363 4.441.796-3.435 1.66-7.188 1.86-8.163.312-1.509.643-2.123.662-2.158 1.936-3.684 5.333-4.457 7.842-4.457 3.49 0 6.42 1.662 7.833 4.439.007.017.864 1.76 1.147 3.997a1 1 0 0 0 1.984-.252c-.328-2.59-1.301-4.557-1.345-4.645-1.765-3.468-5.36-5.539-9.62-5.539-4.325 0-7.738 1.963-9.589 5.486-.048.084-.49.871-.872 2.724-.38 1.842-3.391 14.725-3.395 14.747a14.3 14.3 0 0 0-.513 3.75c0 7.924 6.446 14.37 14.37 14.37s14.37-6.446 14.37-14.37-6.447-14.37-14.37-14.37m0 26.74c-6.82 0-12.37-5.548-12.37-12.37s5.55-12.37 12.37-12.37 12.372 5.55 12.372 12.37-5.55 12.37-12.371 12.37" style="fill:#fff"/><path d="M31.181 45.787c-4.653 0-8.438-3.785-8.438-8.437s3.785-8.439 8.438-8.439 8.438 3.785 8.438 8.439-3.785 8.437-8.438 8.437m-.053-1.253q.053.004.106 0c.34-.363 1.08-1.232 1.733-2.536h-3.572a11 11 0 0 0 1.733 2.536m3.228-2.536c-.42.958-.905 1.732-1.305 2.291a7.2 7.2 0 0 0 3.596-2.291zm-8.642 0a7.2 7.2 0 0 0 3.599 2.291c-.4-.559-.886-1.334-1.307-2.291zm9.112-1.25h2.683a7.1 7.1 0 0 0 .823-2.772h-3a11.4 11.4 0 0 1-.506 2.771m-5.97 0h4.65c.32-.9.51-1.83.572-2.772h-5.794c.06.942.253 1.874.572 2.771m-4.004 0h2.683a11.4 11.4 0 0 1-.505-2.772h-3a7.1 7.1 0 0 0 .822 2.771m10.48-4.024h3a7.1 7.1 0 0 0-.823-2.773h-2.682c.282.902.452 1.834.505 2.773m-7.048 0h5.794a10.3 10.3 0 0 0-.572-2.773h-4.65c-.32.898-.512 1.83-.572 2.773m-4.254 0h3a11.4 11.4 0 0 1 .507-2.773h-2.684a7.1 7.1 0 0 0-.823 2.773M34.355 32.7h2.293a7.2 7.2 0 0 0-3.598-2.29c.4.557.885 1.332 1.306 2.29m-4.96 0h3.572a11 11 0 0 0-1.733-2.535l-.053-.003-.053.003c-.34.363-1.08 1.233-1.733 2.535m-3.681 0h2.29c.42-.956.905-1.732 1.306-2.29a7.2 7.2 0 0 0-3.596 2.29" style="fill:#fff"/></svg>