<svg xmlns="http://www.w3.org/2000/svg" viewBox="0 0 62.362 62.362"><path d="M31.304 62.355C13.472 62.355-.01 47.583-.01 31.308-.01 12.626 15.547-.007 31.07-.007c18.602 0 31.282 15.34 31.282 30.947 0 19.05-15.658 31.415-31.048 31.415" style="fill:#da291c"/><path d="m28.178 35.19-4.1 11.388c-.103.29-.312.522-.59.654l-.602.288a.697.697 0 0 1-.928-.328l-.318-.666a1 1 0 0 1-.04-.753l.292-.825-.43-.9.9-.43.387-1.093-.43-.9.9-.429.387-1.094-.43-.9.379-.18c.336-.16.588-.44.712-.79l1.202-3.4c.141-.4.035-.857-.293-1.126a5.7 5.7 0 0 1-2.092-4.615 5.7 5.7 0 0 1 1.838-4.026 5.6 5.6 0 0 1 2.794-1.42l.033-.033a7.4 7.4 0 0 1 1.922-1.257c-.187-.025-.343-.048-.532-.056a6.94 6.94 0 0 0-5.066 1.849 6.95 6.95 0 0 0-2.238 4.903 6.94 6.94 0 0 0 2.253 5.365.31.31 0 0 1 .085.33l-1.084 3.067-.071.08-1.377.659a.147.147 0 0 0-.069.195l.683 1.427-.042.117-1.432.684a.14.14 0 0 0-.067.19l.684 1.43-.042.119-1.42.678a.155.155 0 0 0-.073.206l.678 1.421-.12.338a2.24 2.24 0 0 0 .09 1.71l.318.665a1.945 1.945 0 0 0 2.596.916l.605-.29a2.4 2.4 0 0 0 1.225-1.363l3.992-11.083a7.6 7.6 0 0 1-1.069-.723m10.914 9.986" style="fill:#fff"/><path d="m43.486 44.986-5.396-10.86a.26.26 0 0 1 .042-.295c2.2-2.476 2.339-6.19.332-8.843-.177.31-.43.708-.75 1.1.136.205.259.41.367.637a5.745 5.745 0 0 1-1.06 6.466 1.05 1.05 0 0 0-.202 1.18l.28.565-.005.002 5.277 10.613c.139.274.163.585.066.877l-.207.635a.697.697 0 0 1-.878.444l-.7-.229a.98.98 0 0 1-.574-.492l-.986-1.61-.94-.333.333-.94-.5-1.047-.94-.332.333-.94-.5-1.047-.94-.332.14-.396c.125-.35.105-.727-.055-1.062l-1.555-3.254a1.02 1.02 0 0 0-1.003-.589 5.7 5.7 0 0 1-4.742-1.784 5.7 5.7 0 0 1-1.547-4.147 5.7 5.7 0 0 1 1.867-4.014c1.141-1.04 2.712-1.564 4.31-1.437a5.7 5.7 0 0 1 1.877.488c.354-.448.557-.853.658-1.087a7 7 0 0 0-2.435-.647c-1.942-.155-3.856.487-5.252 1.76a6.94 6.94 0 0 0-2.274 4.889 6.95 6.95 0 0 0 1.884 5.05 6.94 6.94 0 0 0 5.476 2.196.17.17 0 0 1 .167.098l1.44 3.015.006.107-.508 1.439a.147.147 0 0 0 .09.187l1.49.526.055.113-.53 1.496a.14.14 0 0 0 .087.181l1.496.528.054.113-.525 1.485a.155.155 0 0 0 .094.197l1.484.525.177.046.6 1.125c.267.53.735.93 1.299 1.115l.7.23a1.945 1.945 0 0 0 2.455-1.245l.208-.639a2.4 2.4 0 0 0-.14-1.827" style="fill:#fff"/><path d="M38.83 21.221c0-3.94-3.206-7.147-7.147-7.147s-7.147 3.206-7.147 7.147c0 .53.07 1.126.18 1.623.587-.348 1.205-.652 1.9-.83-.033-.234-.08-.55-.08-.793 0-2.838 2.309-5.147 5.147-5.147s5.147 2.31 5.147 5.147c0 2.28-1.5 4.189-3.559 4.858a1.5 1.5 0 0 0-.742-.205 1.49 1.49 0 1 0 0 2.98c.587 0 1.089-.342 1.332-.835 2.877-.924 4.97-3.617 4.97-6.798" style="fill:#fff"/></svg>