<svg xmlns="http://www.w3.org/2000/svg" viewBox="0 0 62.362 62.362"><path d="M31.315 62.364C13.483 62.364 0 47.592 0 31.316 0 12.635 15.557.002 31.08.002c18.602 0 31.282 15.34 31.282 30.947 0 19.05-15.657 31.415-31.047 31.415" style="fill:#da291c"/><path d="M30.492 20.267c-.981 0-1.708.625-2.06 1.02q-.009.012-.02.022c-.587.567-3.197 5.347-3.425 7.55-.15 1.443.679 3.452 1.48 5.394.502 1.217.881 2.163.904 2.552l.062 8.1c0 1.313.684 2.508 1.83 3.199 1.3.782 3.077.818 4.429.084l10.935-6.342c3.291-2.103 3.262-3.882 3.224-6.134l-.008-11.343c0-2.726-.204-4.628-2.932-6.175l-9.28-4.916a8.18 8.18 0 0 0-7.94-.04l-8.708 4.967c-2.362 1.305-4.48 2.757-4.48 6.163v10.55c0 2.907 1.459 5.653 3.902 7.344.062.044.605.388 3.552 2.214a.999.999 0 0 0 1.5-1.078 1 1 0 0 0-.445-.62l-.008-.005-.659-.41c-.956-.593-2.62-1.625-2.793-1.74-1.911-1.321-3.049-3.453-3.049-5.706V24.368c0-1.946.776-2.937 3.46-4.42l8.707-4.965a6.18 6.18 0 0 1 5.998.049l9.28 4.915c1.648.935 1.895 1.829 1.895 4.421v10.55q0 .432.01.826c.034 2.123.047 2.916-2.266 4.394l-10.875 6.306c-.734.4-1.702.377-2.417-.053a1.73 1.73 0 0 1-.862-1.484l-.002-6.787-.062-1.4c-.032-.72-.42-1.695-1.052-3.228-.758-1.836-1.43-3.557-1.34-4.427.177-1.71 2.403-5.773 2.786-6.274.238-.301.479-.451.586-.496a.4.4 0 0 1 .142-.028l1.932-.004h.001q.063 0 .122.02c.125.044.25.143.463.335.016.015.086.08.1.097.48.613 2.681 4.667 2.856 6.35.15 1.448-.893 3.644-1.339 4.583q-.154.32-.231.498a1 1 0 0 0 .531 1.31 1.01 1.01 0 0 0 1.313-.532c.037-.088.096-.215.17-.37.584-1.227 1.754-3.684 1.545-5.697-.23-2.205-2.838-6.983-3.424-7.548-.434-.416-1.084-1.042-2.08-1.042z" style="fill:#fff"/></svg>